<svg width="55" height="55" viewBox="0 0 55 55" fill="none" xmlns="http://www.w3.org/2000/svg">
<path d="M0 0H55V55H0L4.5 50.5L16 48L21 50L27.5 51L34 50.5L37.5 49L41.5 47L45 43.5L49 38L51.5 31L52 25L50.5 19L47.5 13L42 8L35.5 4.5L29 3L21.5 4L14 7.5L7 15L4 23.5L4.5 32.5L7.5 39.5L4.5 50.5L0 55V0Z" fill="white"/>
<path fill-rule="evenodd" clip-rule="evenodd" d="M42.3641 12.5997C38.5564 8.80607 33.4953 6.7159 28.1083 6.71463C16.9869 6.71463 7.94175 15.7165 7.93664 26.7818C7.93536 30.5741 9.00099 34.266 11.0198 37.4629L11.5003 38.2224L9.46226 45.6277L17.0942 43.6355L17.8315 44.0706C20.9261 45.8999 24.4757 46.8668 28.0943 46.8681H28.1019C39.2157 46.8681 48.2609 37.8649 48.2647 26.7983C48.266 21.4362 46.1717 16.3933 42.3641 12.5997Z" fill="#40C351"/>
<path fill-rule="evenodd" clip-rule="evenodd" d="M22.0378 16.6872C21.5842 15.6822 21.1063 15.6618 20.6732 15.644C20.3192 15.6287 19.9155 15.63 19.5117 15.63C19.1079 15.63 18.4512 15.7814 17.8953 16.3857C17.3395 16.9899 15.773 18.4491 15.773 21.4184C15.773 24.3876 17.9452 27.2576 18.248 27.6596C18.5508 28.0616 22.4415 34.3499 28.6028 36.7696C33.7227 38.7796 34.7654 38.3802 35.877 38.2797C36.9886 38.1792 39.4636 36.8205 39.9683 35.4109C40.473 34.0014 40.473 32.7941 40.3222 32.5422C40.1702 32.2903 39.7664 32.1402 39.1608 31.8374C38.5551 31.5346 35.5742 30.0755 35.0183 29.8745C34.4625 29.6735 34.0588 29.573 33.6537 30.1772C33.25 30.7802 32.0885 32.1402 31.7346 32.5422C31.3806 32.9455 31.0267 32.9964 30.421 32.6936C29.8154 32.3908 27.863 31.7547 25.5465 29.6989C23.7448 28.0998 22.5284 26.1241 22.1745 25.5198C21.8206 24.9168 22.1362 24.5899 22.4403 24.2884C22.7124 24.0174 23.0459 23.5836 23.35 23.2312C23.6528 22.8788 23.7538 22.6269 23.9557 22.2249C24.1575 21.8216 24.0566 21.4692 23.9046 21.1677C23.7551 20.865 22.577 17.8805 22.0378 16.6872Z" fill="white"/>
<path d="M28 2C14.206 2 3 13.206 3 27C3 31.4338 4.21596 35.5716 6.24389 39.1837L3.04034 50.6201C2.98916 50.8031 2.98684 50.9963 3.03363 51.1805C3.08041 51.3647 3.17466 51.5334 3.30698 51.6698C3.43929 51.8062 3.60505 51.9055 3.78772 51.9578C3.9704 52.0102 4.1636 52.0138 4.34808 51.9682L16.2728 49.013C19.7768 50.8836 23.7528 52 28 52C41.794 52 53 40.794 53 27C53 13.206 41.794 2 28 2ZM28 4.17391C40.6191 4.17391 50.8261 14.3809 50.8261 27C50.8261 39.6191 40.6191 49.8261 28 49.8261C23.9544 49.8261 20.1653 48.7713 16.8714 46.9282C16.6305 46.7936 16.3474 46.7557 16.0796 46.8221L5.63672 49.41L8.43691 39.4193C8.47697 39.2781 8.48804 39.1303 8.46943 38.9847C8.45082 38.8391 8.40293 38.6988 8.32863 38.5723C6.32683 35.1778 5.17391 31.2284 5.17391 27C5.17391 14.3809 15.3809 4.17391 28 4.17391ZM18.9158 13.9565C18.2191 13.9565 17.224 14.2157 16.4065 15.0966C15.9155 15.6256 13.8696 17.619 13.8696 21.1236C13.8696 24.7775 16.4037 27.9303 16.7101 28.3353H16.7122V28.3375C16.6831 28.2993 17.1011 28.9046 17.6591 29.6303C18.217 30.3561 18.9972 31.3094 19.9773 32.3414C21.9376 34.4053 24.6938 36.7907 28.1146 38.2496C29.69 38.9204 30.9328 39.3255 31.8744 39.621C33.6194 40.1689 35.2088 40.0857 36.4027 39.9097C37.2963 39.7781 38.2792 39.349 39.2517 38.7336C40.2242 38.1182 41.1773 37.353 41.5976 36.1903C41.8987 35.3568 42.0517 34.5865 42.1071 33.9527C42.1348 33.6358 42.1383 33.3561 42.1177 33.0971C42.0971 32.8382 42.1191 32.6399 41.8778 32.2437C41.3717 31.4128 40.7986 31.3911 40.2007 31.0952C39.8684 30.9308 38.9225 30.4688 37.9737 30.0167C37.026 29.5651 36.2053 29.1652 35.7 28.985C35.3807 28.8701 34.9908 28.7047 34.4283 28.7684C33.8658 28.8321 33.3103 29.238 32.9868 29.7174C32.6803 30.1718 31.4461 31.6286 31.0698 32.0569C31.0648 32.0539 31.0975 32.0689 30.9488 31.9953C30.4834 31.765 29.9143 31.5692 29.0721 31.1249C28.2299 30.6806 27.1764 30.0246 26.0235 29.0083V29.0062C24.3076 27.4956 23.1057 25.599 22.7266 24.962C22.7521 24.9316 22.7235 24.9684 22.7775 24.9153L22.7796 24.9131C23.1672 24.5314 23.5106 24.0756 23.8008 23.7413C24.2122 23.2672 24.3938 22.8494 24.5905 22.459C24.9826 21.6809 24.7643 20.8247 24.5374 20.3742V20.3721C24.5531 20.4033 24.4148 20.098 24.2657 19.7458C24.1162 19.3927 23.9257 18.9348 23.7222 18.4466C23.3153 17.4701 22.8609 16.3749 22.5907 15.7334V15.7313C22.2724 14.9757 21.8417 14.4314 21.2787 14.1688C20.7157 13.9062 20.2182 13.9809 20.1981 13.9799H20.196C19.7942 13.9613 19.3533 13.9565 18.9158 13.9565ZM18.9158 16.1304C19.3349 16.1304 19.7481 16.1355 20.0941 16.1517C20.4501 16.1694 20.4279 16.1709 20.3595 16.1389C20.2899 16.1065 20.3843 16.096 20.5866 16.5763C20.8512 17.2044 21.3078 18.3035 21.716 19.283C21.9202 19.7728 22.1112 20.2324 22.2638 20.5929C22.4163 20.9534 22.499 21.1547 22.5949 21.3466V21.3487L22.5971 21.3508C22.6911 21.5364 22.6828 21.4176 22.6501 21.4824C22.4208 21.9377 22.3896 22.0494 22.1576 22.3167C21.8043 22.7237 21.444 23.1776 21.2532 23.3655C21.0863 23.5294 20.7852 23.7848 20.5972 24.2847C20.4089 24.7854 20.4968 25.4724 20.7989 25.9852C21.2011 26.668 22.5265 28.8253 24.5863 30.6388C25.8834 31.7823 27.0919 32.5391 28.0573 33.0483C29.0227 33.5576 29.809 33.855 29.985 33.9421C30.4028 34.1489 30.8594 34.3094 31.3904 34.2457C31.9213 34.1819 32.3791 33.8598 32.6705 33.5302L32.6726 33.5281C33.0605 33.0884 34.2129 31.7725 34.7659 30.9614C34.7893 30.9697 34.7816 30.9633 34.9654 31.0294V31.0315H34.9676C35.0515 31.0614 36.1025 31.5318 37.0396 31.9783C37.9767 32.4249 38.9278 32.889 39.2368 33.0419C39.6829 33.2627 39.8936 33.4064 39.948 33.4071C39.9517 33.5027 39.9554 33.6064 39.9417 33.7638C39.9035 34.2003 39.7868 34.8046 39.5532 35.4515C39.4387 35.7682 38.8424 36.4214 38.0904 36.8972C37.3385 37.3731 36.4232 37.7093 36.0842 37.7592C35.0651 37.9093 33.8551 37.9642 32.5262 37.5469C31.6047 37.2576 30.4558 36.8833 28.9681 36.2497C25.9509 34.963 23.3865 32.7734 21.5547 30.8447C20.6388 29.8803 19.905 28.9826 19.3829 28.3035C18.8618 27.6256 18.6343 27.2729 18.4445 27.0234L18.4424 27.0212C18.1057 26.5759 16.0435 23.7074 16.0435 21.1236C16.0435 18.3891 17.3136 17.3168 18.0008 16.5763C18.3617 16.1875 18.7561 16.1304 18.9158 16.1304Z" fill="black"/>
</svg>
