<svg width="280" height="283" viewBox="0 0 280 283" fill="none" xmlns="http://www.w3.org/2000/svg">
<path d="M234.963 256.026C244.915 249.005 253.065 239.729 258.748 228.957C294.302 162.347 286.272 64.127 217.802 21.999C186.155 2.53037 140.606 -9.79145 106.396 10.2059C78.6546 26.4214 61.6491 56.9554 47.5795 84.7339C38.7409 102.231 31.4572 121.009 20.5598 137.355C6.42795 158.553 -9.12827 186.866 6.57723 211.497C27.9803 245.048 68.404 260.368 105.058 270.457C144.829 281.398 189.551 282.953 226.286 261.606C229.259 259.877 232.152 258.017 234.963 256.026Z" fill="#C8C8C8"/>
<path opacity="0.7" d="M234.963 256.026C244.915 249.005 253.065 239.729 258.748 228.957C294.302 162.347 286.272 64.127 217.802 21.999C186.155 2.53037 140.606 -9.79145 106.396 10.2059C78.6546 26.4214 61.6491 56.9554 47.5795 84.7339C38.7409 102.231 31.4572 121.009 20.5598 137.355C6.42795 158.553 -9.12827 186.866 6.57723 211.497C27.9803 245.048 68.404 260.368 105.058 270.457C144.829 281.398 189.551 282.953 226.286 261.606C229.259 259.877 232.152 258.017 234.963 256.026Z" fill="white"/>
<g opacity="0.3">
<path opacity="0.3" d="M266.25 35.969H202.184V120.107H266.25V35.969Z" stroke="black" stroke-miterlimit="10"/>
<path opacity="0.3" d="M254.494 51.407H213.94V104.669H254.494V51.407Z" stroke="black" stroke-miterlimit="10"/>
</g>
<path d="M187.175 26.5396H17.5557V177.524H187.175V26.5396Z" fill="#263238" stroke="#263238" stroke-miterlimit="10"/>
<path d="M183.959 22.8635H14.3398V173.848H183.959V22.8635Z" fill="white" stroke="#263238" stroke-linecap="round" stroke-linejoin="round"/>
<path d="M150.931 83.7947H159.365V75.3604H150.931V83.7947Z" fill="white" stroke="#263238" stroke-linecap="round" stroke-linejoin="round"/>
<path d="M161.971 83.7947H170.406V75.3604H161.971V83.7947Z" fill="white" stroke="#263238" stroke-linecap="round" stroke-linejoin="round"/>
<path d="M147.56 80.0876H104.71" stroke="#263238" stroke-linecap="round" stroke-linejoin="round"/>
<path d="M150.931 103.705H159.365V95.2705H150.931V103.705Z" fill="white" stroke="#263238" stroke-linecap="round" stroke-linejoin="round"/>
<path d="M161.971 103.705H170.406V95.2705H161.971V103.705Z" fill="white" stroke="#263238" stroke-linecap="round" stroke-linejoin="round"/>
<path d="M147.56 99.9915H104.71" stroke="#263238" stroke-linecap="round" stroke-linejoin="round"/>
<path d="M150.931 123.615H159.365V115.181H150.931V123.615Z" fill="white" stroke="#263238" stroke-linecap="round" stroke-linejoin="round"/>
<path d="M161.971 123.615H170.406V115.181H161.971V123.615Z" fill="white" stroke="#263238" stroke-linecap="round" stroke-linejoin="round"/>
<path d="M147.56 119.902H104.71" stroke="#263238" stroke-linecap="round" stroke-linejoin="round"/>
<path d="M70.2952 83.7947H78.7295V75.3604H70.2952V83.7947Z" fill="white" stroke="#263238" stroke-linecap="round" stroke-linejoin="round"/>
<path d="M81.3416 83.7947H89.7759V75.3604H81.3416V83.7947Z" fill="white" stroke="#263238" stroke-linecap="round" stroke-linejoin="round"/>
<path d="M66.9238 80.0876H24.0742" stroke="#263238" stroke-linecap="round" stroke-linejoin="round"/>
<path d="M70.2952 103.705H78.7295V95.2705H70.2952V103.705Z" fill="white" stroke="#263238" stroke-linecap="round" stroke-linejoin="round"/>
<path d="M81.3416 103.705H89.7759V95.2705H81.3416V103.705Z" fill="white" stroke="#263238" stroke-linecap="round" stroke-linejoin="round"/>
<path d="M66.9238 99.9915H24.0742" stroke="#263238" stroke-linecap="round" stroke-linejoin="round"/>
<path d="M70.2952 123.615H78.7295V115.181H70.2952V123.615Z" fill="white" stroke="#263238" stroke-linecap="round" stroke-linejoin="round"/>
<path d="M81.3416 123.615H89.7759V115.181H81.3416V123.615Z" fill="white" stroke="#263238" stroke-linecap="round" stroke-linejoin="round"/>
<path d="M66.9238 119.902H24.0742" stroke="#263238" stroke-linecap="round" stroke-linejoin="round"/>
<path d="M36.029 152.613H26.7363V161.905H36.029V152.613Z" fill="white" stroke="#263238" stroke-linecap="round" stroke-linejoin="round"/>
<path d="M73.9523 152.613H64.6597V161.905H73.9523V152.613Z" fill="white" stroke="#263238" stroke-linecap="round" stroke-linejoin="round"/>
<path d="M113.381 152.613H104.088V161.906H113.381V152.613Z" fill="white" stroke="#263238" stroke-linecap="round" stroke-linejoin="round"/>
<path d="M84.1094 78.1842L85.5462 81.0703L92.5064 74.3464" stroke="#263238" stroke-width="2" stroke-linecap="round" stroke-linejoin="round"/>
<path d="M84.1094 97.8706L85.5462 100.75L92.5064 94.0266" stroke="#263238" stroke-width="2" stroke-linecap="round" stroke-linejoin="round"/>
<path d="M72.105 118.515L73.548 121.395L80.5082 114.671" stroke="#263238" stroke-width="2" stroke-linecap="round" stroke-linejoin="round"/>
<path d="M164.279 77.948L165.716 80.8278L172.676 74.104" stroke="#263238" stroke-width="2" stroke-linecap="round" stroke-linejoin="round"/>
<path d="M152.66 98.1069L154.097 100.987L161.057 94.2691" stroke="#263238" stroke-width="2" stroke-linecap="round" stroke-linejoin="round"/>
<path d="M152.66 118.334L154.097 121.214L161.057 114.497" stroke="#263238" stroke-width="2" stroke-linecap="round" stroke-linejoin="round"/>
<path d="M183.959 22.8635H14.3398V46.4498H183.959V22.8635Z" fill="white" stroke="#263238" stroke-linecap="round" stroke-linejoin="round"/>
<path d="M183.959 22.8635H177.571V173.848H183.959V22.8635Z" fill="#DBDBDB" stroke="#263238" stroke-linecap="round" stroke-linejoin="round"/>
<path d="M183.959 45.5542H177.571V74.6949H183.959V45.5542Z" fill="#949494" stroke="#263238" stroke-linecap="round" stroke-linejoin="round"/>
<path d="M183.959 22.8635H14.3398V34.3332H183.959V22.8635Z" fill="#DBDBDB" stroke="#263238" stroke-linecap="round" stroke-linejoin="round"/>
<path d="M89.8318 26.2036H22.9419V30.9806H89.8318V26.2036Z" fill="white" stroke="#263238" stroke-linecap="round" stroke-linejoin="round"/>
<path d="M173.945 26.4275H179.816" stroke="#263238" stroke-linecap="round" stroke-linejoin="round"/>
<path d="M173.945 28.9094H179.816" stroke="#263238" stroke-linecap="round" stroke-linejoin="round"/>
<path d="M173.945 31.3975H179.816" stroke="#263238" stroke-linecap="round" stroke-linejoin="round"/>
<path d="M73.5918 55.9913C73.5918 54.5172 74.3693 53.6775 75.7875 53.6775C77.2056 53.6775 77.9769 54.5172 77.9769 55.9913V60.7683C77.9769 62.2362 77.2056 63.0759 75.7875 63.0759C74.3693 63.0759 73.5918 62.2362 73.5918 60.7683V55.9913ZM75.0411 60.8616C75.0411 61.5147 75.3272 61.7635 75.7875 61.7635C76.2477 61.7635 76.5339 61.5147 76.5339 60.8616V55.8856C76.5339 55.2263 76.2477 54.9775 75.7875 54.9775C75.3272 54.9775 75.0411 55.2263 75.0411 55.8856V60.8616Z" fill="#263238"/>
<path d="M80.197 56.321V62.9701H78.897V53.7832H80.707L82.1936 59.2817V53.7832H83.4811V62.9701H81.9945L80.197 56.321Z" fill="#263238"/>
<path d="M84.5137 53.7832H85.9629V61.6577H88.3576V62.9701H84.5323L84.5137 53.7832Z" fill="#263238"/>
<path d="M88.98 53.7832H90.423V62.9701H88.98V53.7832Z" fill="#263238"/>
<path d="M92.7491 56.3209V62.9701H91.4678V53.7831H93.2778L94.7644 59.2816V53.7831H96.0457V62.9701H94.5778L92.7491 56.3209Z" fill="#263238"/>
<path d="M98.509 57.6582H100.493V58.9706H98.509V61.6577H100.997V62.9701H97.0659V53.7831H101.003V55.0956H98.5152L98.509 57.6582Z" fill="#263238"/>
<path d="M103.516 53.7832H107.976V55.0956H106.464V62.9701H105.021V55.0956H103.516V53.7832Z" fill="#263238"/>
<path d="M110.053 57.6582H112.031V58.9706H110.053V61.6577H112.541V62.9701H108.604V53.7831H112.541V55.0956H110.053V57.6582Z" fill="#263238"/>
<path d="M115.377 53.6774C116.783 53.6774 117.505 54.5171 117.505 55.9912V56.2774H116.143V55.8979C116.143 55.2386 115.881 54.9898 115.421 54.9898C114.961 54.9898 114.699 55.2386 114.699 55.8979C114.699 57.7639 117.517 58.1434 117.517 60.7682C117.517 62.2361 116.783 63.0758 115.365 63.0758C113.947 63.0758 113.238 62.2361 113.238 60.7682V60.2022H114.606V60.8615C114.606 61.5146 114.892 61.751 115.353 61.751C115.813 61.751 116.099 61.5146 116.099 60.8615C116.099 58.9955 113.281 58.6161 113.281 55.9912C113.238 54.5171 113.978 53.6774 115.377 53.6774Z" fill="#263238"/>
<path d="M117.928 53.7831H122.387V55.0956H120.882V62.9701H119.458V55.0956H117.946L117.928 53.7831Z" fill="#263238"/>
<path d="M33.9699 150.373H32.5082L32.2594 148.707H30.5116L30.2628 150.373H28.9131L30.381 141.187H32.4958L33.9699 150.373ZM30.6733 147.456H32.0666L31.37 142.81L30.6733 147.456Z" fill="#263238"/>
<path d="M71.284 143.283V143.606C71.284 144.552 70.9978 145.155 70.351 145.472C71.1285 145.771 71.427 146.467 71.427 147.438V148.19C71.427 149.608 70.6806 150.367 69.2376 150.367H66.9673V141.187H69.1443C70.6433 141.187 71.284 141.883 71.284 143.283ZM68.4103 142.48V144.906H68.9763C69.5113 144.906 69.8409 144.67 69.8409 143.936V143.426C69.8409 142.766 69.617 142.48 69.107 142.48H68.4103ZM68.4103 146.212V149.036H69.2376C69.7227 149.036 69.984 148.812 69.984 148.128V147.332C69.984 146.474 69.7103 146.212 69.0572 146.212H68.4103Z" fill="#263238"/>
<path d="M111.085 146.946V148.19C111.085 149.664 110.352 150.504 108.933 150.504C107.515 150.504 106.781 149.664 106.781 148.19V143.413C106.781 141.945 107.515 141.106 108.933 141.106C110.352 141.106 111.085 141.945 111.085 143.413V144.309H109.723V143.283C109.723 142.623 109.431 142.375 108.971 142.375C108.51 142.375 108.224 142.623 108.224 143.283V148.259C108.224 148.918 108.517 149.154 108.971 149.154C109.425 149.154 109.723 148.918 109.723 148.259V146.946H111.085Z" fill="#263238"/>
<path d="M24.7271 136.292H134.977" stroke="#263238" stroke-linecap="round" stroke-linejoin="round"/>
<path opacity="0.3" d="M205.81 23.6039H217.983V11.4313L205.81 11.4313V23.6039Z" stroke="black" stroke-linecap="round" stroke-linejoin="round"/>
<path opacity="0.3" d="M221.752 23.6039H233.925V11.4313L221.752 11.4313V23.6039Z" stroke="black" stroke-linecap="round" stroke-linejoin="round"/>
<path opacity="0.3" d="M208.428 16.2455L210.506 20.4004L216.614 13.6766" stroke="black" stroke-width="2" stroke-linecap="round" stroke-linejoin="round"/>
<path opacity="0.3" d="M21.5425 202.192H33.7151V190.02H21.5425V202.192Z" stroke="black" stroke-linecap="round" stroke-linejoin="round"/>
<path opacity="0.3" d="M37.4781 202.192H49.6506V190.02H37.4781V202.192Z" stroke="black" stroke-linecap="round" stroke-linejoin="round"/>
<path opacity="0.3" d="M24.1487 194.834L26.2262 198.989L32.3342 192.265" stroke="black" stroke-width="2" stroke-linecap="round" stroke-linejoin="round"/>
<path opacity="0.3" d="M79.2081 202.192H91.3806V190.02H79.2081V202.192Z" stroke="black" stroke-linecap="round" stroke-linejoin="round"/>
<path opacity="0.3" d="M95.15 202.192H107.323V190.02H95.15V202.192Z" stroke="black" stroke-linecap="round" stroke-linejoin="round"/>
<path opacity="0.3" d="M81.8206 194.834L83.898 198.989L90.0061 192.265" stroke="black" stroke-width="2" stroke-linecap="round" stroke-linejoin="round"/>
<g opacity="0.3">
<path opacity="0.3" d="M98.0861 17.5194C102.345 16.831 105.24 12.8201 104.552 8.56075C103.864 4.30138 99.8527 1.4065 95.5934 2.09484C91.334 2.78318 88.4391 6.79408 89.1275 11.0534C89.8158 15.3128 93.8267 18.2077 98.0861 17.5194Z" stroke="black" stroke-linecap="round" stroke-linejoin="round"/>
<path opacity="0.3" d="M99.0248 12.6317L96.8416 9.80777V5.36047" stroke="black" stroke-linecap="round" stroke-linejoin="round"/>
</g>
<g opacity="0.3">
<path opacity="0.3" d="M242.664 159.654H241.507L241.308 158.335H239.902L239.703 159.654H238.652L239.821 152.37H241.494L242.664 159.654ZM240.051 157.346H241.152L240.598 153.658L240.051 157.346Z" fill="black"/>
<path opacity="0.3" d="M258.954 154.043V154.305C258.998 154.595 258.951 154.892 258.82 155.155C258.688 155.418 258.479 155.633 258.22 155.773C258.512 155.905 258.753 156.129 258.907 156.411C259.06 156.693 259.118 157.016 259.072 157.334V157.956C259.101 158.191 259.075 158.429 258.998 158.652C258.92 158.876 258.792 159.078 258.624 159.245C258.456 159.411 258.252 159.536 258.028 159.612C257.803 159.687 257.565 159.71 257.331 159.679H255.533V152.37H257.262C258.444 152.37 258.954 152.918 258.954 154.043ZM256.677 153.421V155.35H257.125C257.548 155.35 257.809 155.163 257.809 154.578V154.174C257.809 153.652 257.635 153.421 257.225 153.421H256.677ZM256.677 156.388V158.628H257.331C257.716 158.628 257.953 158.453 257.953 157.912V157.29C257.953 156.618 257.729 156.407 257.212 156.407L256.677 156.388Z" fill="black"/>
<path opacity="0.3" d="M275.449 156.967V157.931C275.449 159.1 274.871 159.766 273.745 159.766C272.619 159.766 272.034 159.1 272.034 157.931V154.143C272.034 152.973 272.619 152.308 273.745 152.308C274.871 152.308 275.449 152.973 275.449 154.143V154.852H274.367V154.043C274.367 153.521 274.137 153.328 273.776 153.328C273.415 153.328 273.154 153.521 273.154 154.043V157.981C273.154 158.503 273.384 158.69 273.776 158.69C274.168 158.69 274.367 158.503 274.367 157.981V156.967H275.449Z" fill="black"/>
<path opacity="0.3" d="M244.94 163.628H236.089V172.479H244.94V163.628Z" stroke="black" stroke-miterlimit="10"/>
<path opacity="0.3" d="M261.405 163.628H252.553V172.479H261.405V163.628Z" stroke="black" stroke-miterlimit="10"/>
<path opacity="0.3" d="M277.869 163.628H269.018V172.479H277.869V163.628Z" stroke="black" stroke-miterlimit="10"/>
</g>
<path d="M35.1396 266.165H16.4111" stroke="#263238" stroke-miterlimit="10"/>
<path d="M279.517 266.165H41.2412" stroke="#263238" stroke-miterlimit="10"/>
<path d="M207.558 265.954L211.564 205.122L214.512 176.199L206.426 167.174L202.37 164.226C202.37 164.226 196.66 169.202 192.611 170.303C188.562 171.403 184.668 172.517 184.668 172.517C184.668 172.517 170.854 198.492 169.74 210.278C168.627 222.065 166.792 265.73 166.792 265.73L168.328 265.954H207.558Z" fill="#9E9E9E" stroke="#263238" stroke-miterlimit="10"/>
<path d="M188.569 215.802C188.569 215.802 187.878 215.447 189.259 211.889" stroke="#263238" stroke-miterlimit="10"/>
<path d="M186.945 171.895C187.632 176.809 188.012 181.762 188.083 186.723C188.083 186.723 192.232 185.063 195.547 179.259C197.379 176.145 198.955 172.887 200.262 169.519L186.945 171.895Z" fill="#263238" stroke="#263238" stroke-miterlimit="10"/>
<path d="M207.558 265.954L211.16 211.261C207.627 213.065 200.654 216.044 192.96 216.175C183.742 216.33 172.328 209.171 172.328 209.171L169.759 210.179C169.759 210.21 169.759 210.247 169.759 210.278C168.652 222.096 166.811 265.73 166.811 265.73L168.347 265.954H207.558Z" fill="white" stroke="#263238" stroke-miterlimit="10"/>
<path d="M201.562 235.339C201.562 249.427 202.047 262.98 202.184 265.941H229.334C229.708 261.55 232.046 234.219 233.247 224.423C234.559 213.718 243.168 197.782 243.168 192.079C243.168 186.375 244.915 187.277 237.053 183.128C229.191 178.979 211.85 170.023 209.449 168.928C207.048 167.833 204.423 165.196 204.423 165.196C204.423 165.196 205.294 170.657 205.045 185.504C204.796 200.351 201.562 219.409 201.562 235.339Z" fill="white"/>
<g opacity="0.2">
<path opacity="0.2" d="M204.423 165.252C204.747 167.836 204.934 170.435 204.983 173.039V165.78C204.635 165.463 204.423 165.252 204.423 165.252Z" fill="black"/>
<path opacity="0.2" d="M240.126 200.799V202.665C240.338 202.099 240.549 201.552 240.748 201.011V200.787H240.829C240.91 200.581 240.984 200.37 241.059 200.165H240.748V192.421H243.155C243.155 192.327 243.155 192.228 243.155 192.135C243.155 192.041 243.155 191.911 243.155 191.799H240.748V185.168C240.555 185.05 240.35 184.938 240.126 184.814V191.799H233.595V184.024H238.646L237.476 183.402H233.595V181.349L232.973 181.019V183.383H226.442V177.623L225.82 177.3V183.383H219.289V175.627H222.542L221.335 175.005H219.289V173.954L218.667 173.63V175.005H212.136V170.309C211.918 170.197 211.713 170.091 211.514 169.998V175.005H205.045C205.045 175.21 205.045 175.415 205.045 175.627H211.514V183.402H205.101C205.101 183.607 205.101 183.812 205.101 184.024H211.514V191.799H204.983V188.844C204.859 191.88 204.635 195.064 204.361 198.305V200.171H204.199L204.143 200.793H204.361V208.593H203.428L203.366 209.215H204.392V216.99H202.626L202.57 217.612H204.392V225.387H201.966L201.929 226.009H204.417V233.784H201.662C201.662 233.995 201.662 234.2 201.662 234.406H204.423V242.181H201.68C201.68 242.392 201.68 242.597 201.68 242.803H204.417V250.578H201.805C201.805 250.789 201.805 250.994 201.805 251.2H204.405V265.972H205.027V251.181H211.514V265.954H212.136V251.181H218.667V265.954H219.289V251.181H225.82V265.954H226.442V251.181H230.628C230.628 250.976 230.628 250.771 230.684 250.559H226.442V242.803H231.418C231.418 242.597 231.462 242.392 231.48 242.181H226.442V234.406H232.189C232.189 234.194 232.227 233.995 232.252 233.784H226.442V226.009H232.973V226.836L233.247 224.454C233.334 223.757 233.452 223.036 233.595 222.295V217.612H234.758L234.945 216.99H233.595V209.215H237.638C237.719 209.009 237.794 208.798 237.874 208.593H233.595V200.818L240.126 200.799ZM233.595 192.421H240.126V200.196H233.595V192.421ZM211.514 250.559H204.983V242.803H211.514V250.559ZM211.514 242.162H204.983V234.387H211.514V242.162ZM211.514 233.765H204.983V226.009H211.514V233.765ZM211.514 225.368H204.983V217.593H211.514V225.368ZM211.514 216.971H204.983V209.215H211.514V216.971ZM211.514 208.574H204.983V200.799H211.514V208.574ZM211.514 200.177H204.983V192.421H211.514V200.177ZM218.667 250.559H212.136V242.803H218.667V250.559ZM218.667 242.162H212.136V234.387H218.667V242.162ZM218.667 233.765H212.136V226.009H218.667V233.765ZM218.667 225.368H212.136V217.593H218.667V225.368ZM218.667 216.971H212.136V209.215H218.667V216.971ZM218.667 208.574H212.136V200.799H218.667V208.574ZM218.667 200.177H212.136V192.421H218.667V200.177ZM218.667 191.78H212.136V184.005H218.667V191.78ZM218.667 183.383H212.136V175.627H218.667V183.383ZM225.82 250.559H219.289V242.803H225.82V250.559ZM225.82 242.162H219.289V234.387H225.82V242.162ZM225.82 233.765H219.289V226.009H225.82V233.765ZM225.82 225.368H219.289V217.593H225.82V225.368ZM225.82 216.971H219.289V209.215H225.82V216.971ZM225.82 208.574H219.289V200.799H225.82V208.574ZM225.82 200.177H219.289V192.421H225.82V200.177ZM225.82 191.78H219.289V184.005H225.82V191.78ZM232.973 225.368H226.442V217.593H232.973V225.368ZM232.973 216.971H226.442V209.215H232.973V216.971ZM232.973 208.574H226.442V200.799H232.973V208.574ZM232.973 200.177H226.442V192.421H232.973V200.177ZM232.973 191.78H226.442V184.005H232.973V191.78Z" fill="black"/>
</g>
<path d="M201.562 235.339C201.562 249.427 202.047 262.98 202.184 265.941H229.334C229.708 261.55 232.046 234.219 233.247 224.423C234.559 213.718 243.168 197.782 243.168 192.079C243.168 186.375 244.915 187.277 237.053 183.128C229.191 178.979 211.85 170.023 209.449 168.928C207.048 167.833 204.423 165.196 204.423 165.196C204.423 165.196 205.294 170.657 205.045 185.504C204.796 200.351 201.562 219.409 201.562 235.339Z" stroke="#263238" stroke-miterlimit="10"/>
<path d="M204.423 165.252C204.423 165.252 205.294 170.713 205.045 185.56C204.996 189.292 204.741 193.323 204.423 197.478C205.17 196.451 207.577 193.173 208.155 192.987C208.808 192.769 212.304 196.047 215.14 196.482C217.977 196.918 219.071 196.918 216.017 193.64C212.963 190.362 211.663 180.758 210.556 173.549C210.346 172.006 210.006 170.483 209.542 168.996H209.468C207.042 167.877 204.423 165.252 204.423 165.252Z" fill="#263238" stroke="#263238" stroke-miterlimit="10"/>
<path d="M222.343 232.801C224.352 231.887 225.932 231.097 225.932 231.097L226.672 236.807C226.672 236.807 215.8 241.596 209.723 241.963C203.646 242.33 203.092 242.517 203.092 242.517L203.273 236.993" stroke="#263238" stroke-miterlimit="10"/>
<path d="M216.9 235.034C218.014 234.661 219.32 234.132 220.595 233.578" stroke="#263238" stroke-miterlimit="10"/>
<path d="M205.294 236.44C208.473 236.359 211.644 236.07 214.786 235.575" stroke="#263238" stroke-miterlimit="10"/>
<path d="M226.672 236.807L227.039 241.229" stroke="#263238" stroke-miterlimit="10"/>
<path d="M143.336 265.954H173.889C173.958 263.559 174.841 233.124 175.438 217.593C176.06 201.421 187.032 176.889 187.032 176.889C187.032 176.889 188.5 173.431 186.945 171.876C185.39 170.321 181.658 170.943 178.859 173.12C176.06 175.297 150.247 186.493 148.692 188.048C147.137 189.603 147.448 194.89 146.826 201.11C146.204 207.33 135.941 250.248 135.941 250.248C135.941 250.248 133.142 250.87 132.209 251.492C131.276 252.114 131.276 253.98 131.276 253.98C131.276 253.98 132.52 254.291 136.252 256.157C139.685 257.874 142.851 264.84 143.336 265.954Z" fill="white"/>
<path opacity="0.2" d="M182.902 184.005V187.184C183.114 186.611 183.319 186.058 183.524 185.523V184.005H184.109L184.351 183.383H183.524V175.627H187.443C187.486 175.434 187.536 175.223 187.567 175.005H183.524V171.099C183.319 171.13 183.114 171.161 182.902 171.211V175.005H176.371V174.582L175.749 174.899V175.005H175.538L174.294 175.627H175.749V183.402H169.218V178.053L168.596 178.345V183.383H162.065V181.399L161.443 181.691V183.383H157.829L156.511 184.005H161.443V191.799H154.912V184.77L154.29 185.069V191.799H147.759V190.231C147.409 192.497 147.202 194.782 147.137 197.073V200.183H146.913L146.857 200.805H147.137V208.593H145.464L145.333 209.215H147.137V216.99H143.648C143.604 217.195 143.554 217.407 143.511 217.612H147.137V225.387H141.757C141.707 225.598 141.664 225.804 141.614 226.009H147.137V233.784H140.606V230.363L139.984 233.05V233.753H139.822L139.679 234.375H139.984V242.181H137.857L137.708 242.803H139.984V250.578H134.703C134.069 250.747 133.446 250.955 132.837 251.2V251.2V254.584C133.024 254.658 133.229 254.745 133.459 254.851V251.2H139.984V259.908C140.202 260.219 140.407 260.53 140.606 260.847V251.206H147.137V265.979H147.759V251.181H154.29V265.954H154.912V251.181H161.443V265.954H162.065V251.181H168.596V265.954H169.218V251.181H174.325V250.559H169.218V242.803H174.586V242.181H169.218V234.406H174.854V233.784H169.218V226.009H175.133C175.133 225.804 175.133 225.592 175.133 225.387H169.218V217.612H175.438C175.438 217.407 175.438 217.201 175.469 216.99H169.218V209.215H175.749V213.811C175.911 212.487 176.116 211.124 176.371 209.744V209.215H176.471C176.508 209.01 176.552 208.804 176.589 208.593H176.371V200.818H178.455C178.511 200.613 178.573 200.407 178.629 200.196H176.371V192.421H181.036C181.111 192.216 181.179 192.004 181.248 191.799H176.371V184.024L182.902 184.005ZM176.371 175.627H182.902V183.402H176.371V175.627ZM147.137 250.578H140.606V242.803H147.137V250.578ZM147.137 242.181H140.606V234.406H147.137V242.181ZM154.29 250.578H147.759V242.803H154.29V250.578ZM154.29 242.181H147.759V234.406H154.29V242.181ZM154.29 233.784H147.759V226.009H154.29V233.784ZM154.29 225.387H147.759V217.612H154.29V225.387ZM154.29 216.99H147.759V209.215H154.29V216.99ZM154.29 208.593H147.759V200.818H154.29V208.593ZM154.29 200.196H147.759V192.421H154.29V200.196ZM161.443 250.578H154.912V242.803H161.443V250.578ZM161.443 242.181H154.912V234.406H161.443V242.181ZM161.443 233.784H154.912V226.009H161.443V233.784ZM161.443 225.387H154.912V217.612H161.443V225.387ZM161.443 216.99H154.912V209.215H161.443V216.99ZM161.443 208.593H154.912V200.818H161.443V208.593ZM161.443 200.196H154.912V192.421H161.443V200.196ZM168.596 250.578H162.065V242.803H168.596V250.578ZM168.596 242.181H162.065V234.406H168.596V242.181ZM168.596 233.784H162.065V226.009H168.596V233.784ZM168.596 225.387H162.065V217.612H168.596V225.387ZM168.596 216.99H162.065V209.215H168.596V216.99ZM168.596 208.593H162.065V200.818H168.596V208.593ZM168.596 200.196H162.065V192.421H168.596V200.196ZM168.596 191.799H162.065V184.024H168.596V191.799ZM175.749 208.593H169.218V200.818H175.749V208.593ZM175.749 200.196H169.218V192.421H175.749V200.196ZM175.749 191.799H169.218V184.024H175.749V191.799Z" fill="black"/>
<path d="M143.336 265.954H173.889C173.958 263.559 174.841 233.124 175.438 217.593C176.06 201.421 187.032 176.889 187.032 176.889C187.032 176.889 188.5 173.431 186.945 171.876C185.39 170.321 181.658 170.943 178.859 173.12C176.06 175.297 150.247 186.493 148.692 188.048C147.137 189.603 147.448 194.89 146.826 201.11C146.204 207.33 135.941 250.248 135.941 250.248C135.941 250.248 133.142 250.87 132.209 251.492C131.276 252.114 131.276 253.98 131.276 253.98C131.276 253.98 132.52 254.291 136.252 256.157C139.685 257.874 142.851 264.84 143.336 265.954Z" stroke="#263238" stroke-miterlimit="10"/>
<path d="M131.276 253.999C131.276 253.999 132.52 254.31 136.252 256.176C139.984 258.042 143.405 266.128 143.405 266.128H149.432C149.811 264.996 150.738 260.878 146.515 255.865C141.539 249.956 135.941 250.267 135.941 250.267C135.941 250.267 133.142 250.889 132.209 251.511C131.276 252.133 131.276 253.999 131.276 253.999Z" fill="#263238" stroke="#263238" stroke-miterlimit="10"/>
<path d="M183.188 171.136C181.851 174.675 178.685 182.68 176.06 186.493C172.639 191.469 166.419 195.512 168.596 197.378C170.773 199.244 176.993 193.335 176.993 193.335C176.993 193.335 178.548 197.689 178.859 198.933C178.876 198.99 178.903 199.042 178.94 199.089C181.185 191.533 183.885 184.119 187.026 176.889C187.026 176.889 188.494 173.431 186.939 171.876C186.136 171.067 184.768 170.856 183.188 171.136Z" fill="#263238" stroke="#263238" stroke-miterlimit="10"/>
<path d="M160.473 201.16C160.651 200.01 160.767 198.851 160.821 197.689" stroke="#263238" stroke-miterlimit="10"/>
<path d="M155.534 266.731C155.534 266.731 156.467 246.827 156.467 235.32C156.467 227.029 158.725 213.084 159.993 204.543" stroke="#263238" stroke-miterlimit="10"/>
<path d="M157.089 230.985C157.089 230.985 162.065 232.54 164.553 232.851L172.017 233.784L171.451 240.831C171.451 240.831 171.084 240.626 165.486 238.76C159.888 236.894 156.467 235.339 156.467 235.339" stroke="#263238" stroke-miterlimit="10"/>
<path d="M171.451 240.812C171.451 240.812 171.084 254.621 171.084 256.487C171.084 258.353 165.486 257.109 165.486 257.109" stroke="#263238" stroke-miterlimit="10"/>
<path d="M175.917 164.568C175.917 164.568 181.782 173.002 187.032 176.889C192.282 180.777 196.76 175.334 200.262 169.5C203.764 163.666 206.096 159.386 207.844 154.33C209.592 149.273 207.844 140.913 200.847 134.301C193.849 127.689 177.503 117.961 173.423 123.018C169.342 128.075 165.448 139.19 168.167 148.688C169.79 154.398 172.414 159.775 175.917 164.568V164.568Z" fill="#9E9E9E" stroke="#263238" stroke-miterlimit="10"/>
<path d="M173.448 146.424C175.661 145.76 178.02 145.76 180.234 146.424" stroke="#263238" stroke-width="2" stroke-miterlimit="10" stroke-linecap="round"/>
<path d="M178.467 151.63C178.654 152.638 178.417 153.527 177.938 153.614C177.459 153.701 176.931 152.955 176.744 151.941C176.557 150.927 176.794 150.044 177.273 149.957C177.752 149.87 178.28 150.616 178.467 151.63Z" fill="#263238"/>
<path d="M195.771 151.897C195.952 152.905 195.715 153.763 195.242 153.882C194.77 154 194.235 153.222 194.048 152.208C193.862 151.195 194.098 150.311 194.577 150.224C195.056 150.137 195.585 150.884 195.771 151.897Z" fill="#263238"/>
<path d="M182.952 165.613C185.199 166.387 187.576 166.717 189.949 166.583C194.036 166.39 197.538 163.473 197.538 163.473" stroke="#263238" stroke-miterlimit="10"/>
<path d="M174.026 127.316C174.026 127.316 182.666 147.021 183.748 147.562C184.83 148.103 186.989 141.622 186.989 141.622C186.989 141.622 189.956 147.015 193.476 148.638C196.997 150.262 198.066 147.562 198.066 147.562C199.83 148.556 201.543 149.637 203.198 150.803L204.548 151.879L205.897 156.737C205.897 156.737 201.848 169.967 203.198 171.59C204.548 173.213 212.105 171.049 212.105 171.049C212.105 171.049 210.239 173.748 212.646 173.748C215.053 173.748 219.395 174.289 225.602 165.917C231.81 157.545 232.351 144.054 232.351 144.054C232.351 144.054 235.318 147.288 235.592 143.239C235.865 139.19 232.084 132.441 232.084 132.441C232.084 132.441 238.017 138.381 237.483 132.174C236.948 125.966 233.433 118.944 232.084 117.327C230.734 115.71 222.629 111.107 222.629 111.107C222.629 111.107 225.87 110.566 223.444 106.784C221.018 103.002 212.105 101.926 208.864 101.926C205.624 101.926 198.875 103.008 198.875 103.008C198.875 103.008 203.198 94.6361 198.608 94.095C194.017 93.5539 185.919 102.467 185.919 102.467C185.919 102.467 177.833 95.9859 175.388 97.3356C172.944 98.6854 174.58 100.576 174.58 100.576C174.58 100.576 164.055 101.385 161.082 105.975C158.109 110.566 161.623 113.265 161.623 113.265C161.623 113.265 142.727 126.221 145.694 131.079C148.661 135.937 154.066 131.353 154.066 131.353C154.066 131.353 146.503 150.79 147.585 152.14C148.667 153.49 153.805 151.599 153.805 151.599C153.805 151.599 153.537 167.255 157.587 168.878C161.636 170.501 162.444 167.528 162.444 167.528C162.444 167.528 164.603 169.687 169.467 169.954C174.331 170.222 175.942 164.555 175.942 164.555C175.942 164.555 170.543 151.866 170.817 141.342C171.09 130.818 174.026 127.316 174.026 127.316Z" fill="#263238" stroke="#263238" stroke-miterlimit="10"/>
<path d="M184.899 150.05C184.899 150.05 182.952 160.164 184.507 162.304C186.062 164.443 191.51 162.304 191.896 161.14" fill="#9E9E9E"/>
<path d="M184.899 150.05C184.899 150.05 182.952 160.164 184.507 162.304C186.062 164.443 191.51 162.304 191.896 161.14" stroke="#263238" stroke-miterlimit="10"/>
<path d="M176.825 156.276C181.067 156.276 184.506 153.75 184.506 150.635C184.506 147.519 181.067 144.993 176.825 144.993C172.582 144.993 169.143 147.519 169.143 150.635C169.143 153.75 172.582 156.276 176.825 156.276Z" stroke="#263238" stroke-miterlimit="10"/>
<path d="M195.298 155.891C199.541 155.891 202.98 153.365 202.98 150.249C202.98 147.133 199.541 144.608 195.298 144.608C191.056 144.608 187.617 147.133 187.617 150.249C187.617 153.365 191.056 155.891 195.298 155.891Z" stroke="#263238" stroke-miterlimit="10"/>
<path d="M184.898 150.05C184.898 150.05 186.453 148.887 187.617 150.249" stroke="#263238" stroke-miterlimit="10"/>
<path d="M120.895 257.675C120.895 257.675 130.66 254.919 133.664 254.422C136.668 253.924 142.683 259.429 143.685 262.433C144.686 265.437 143.405 266.109 143.405 266.109L123.395 265.444L120.895 257.675Z" fill="#9E9E9E" stroke="#263238" stroke-miterlimit="10"/>
<path d="M124.434 256.704C124.434 256.704 131.805 259.466 133.646 260.573C135.487 261.68 134.933 263.889 133.832 264.989C132.504 266.1 130.92 266.861 129.223 267.204C127.506 267.302 125.784 267.302 124.067 267.204C121.859 267.017 119.831 267.39 117.99 267.39C116.149 267.39 110.619 266.837 110.619 266.837L108.959 265.73C108.959 265.73 105.849 266.65 103.435 267.596C101.022 268.541 101.774 266.489 103.616 265.014C105.457 263.54 110.066 259.858 110.806 259.491C111.546 259.124 120.938 256.381 120.938 256.381L124.434 256.704Z" fill="#9E9E9E" stroke="#263238" stroke-miterlimit="10"/>
<path d="M127.196 257.438C127.196 257.438 122.4 255.23 121.113 255.23C119.825 255.23 110.613 258.34 109.326 259.279C108.038 260.219 106.744 269.045 107.665 269.598C108.586 270.152 109.326 268.491 109.531 267.39C109.736 266.289 112.299 260.387 112.299 260.387L110.433 269.785C110.433 269.785 111.173 271.253 111.907 269.965C112.641 268.678 117.25 259.833 117.617 259.279C118.1 258.766 118.66 258.332 119.278 257.992C119.278 257.992 118.357 262.047 117.617 265.916C116.877 269.785 117.437 270.892 118.544 271.073C119.651 271.253 120.198 268.678 120.752 267.39C121.305 266.103 123.7 258.726 123.7 258.726" fill="#9E9E9E"/>
<path d="M127.196 257.438C127.196 257.438 122.4 255.23 121.113 255.23C119.825 255.23 110.613 258.34 109.326 259.279C108.038 260.219 106.744 269.045 107.665 269.598C108.586 270.152 109.326 268.491 109.531 267.39C109.736 266.289 112.299 260.387 112.299 260.387L110.433 269.785C110.433 269.785 111.173 271.253 111.907 269.965C112.641 268.678 117.25 259.833 117.617 259.279C118.1 258.766 118.66 258.332 119.278 257.992C119.278 257.992 118.357 262.047 117.617 265.916C116.877 269.785 117.437 270.892 118.544 271.073C119.651 271.253 120.198 268.678 120.752 267.39C121.305 266.103 123.7 258.726 123.7 258.726" stroke="#263238" stroke-miterlimit="10"/>
<path d="M132.52 261.127C132.52 261.127 126.996 266.837 126.256 268.124C125.516 269.412 125.522 269.599 127.55 269.599C129.578 269.599 135.841 265.543 136.389 264.99C136.936 264.436 136.762 262.781 135.468 261.674C135.056 261.354 134.573 261.137 134.06 261.042C133.548 260.947 133.019 260.976 132.52 261.127V261.127Z" fill="#9E9E9E" stroke="#263238" stroke-miterlimit="10"/>
<path d="M167.016 260.492C167.016 260.492 159.645 262.875 157.835 264.224C156.025 265.574 153.413 267.061 153.979 267.515C154.545 267.969 156.361 267.515 156.927 267.061C157.493 266.607 160.1 266.153 160.1 266.153C160.1 266.153 163.16 264.336 165.542 262.868C167.924 261.401 169.734 259.808 167.016 260.492Z" fill="#9E9E9E" stroke="#263238" stroke-miterlimit="10"/>
<path d="M207.701 248.015C207.701 248.015 187.175 251.747 179.748 254.353C172.322 256.96 169.367 258.776 165.654 261.401C161.94 264.025 154.414 268.983 155.534 269.854C156.653 270.724 160.553 267.67 161.213 267.017C161.872 266.364 166.668 264.399 166.668 264.399L169.877 262.757C169.877 262.757 165.044 268.709 163.303 270.221C161.561 271.732 162.737 272.677 164.049 272.242C165.361 271.807 167.837 269.201 167.837 269.201L175.817 263.951C175.817 263.951 172.539 268.541 171.009 269.847C169.479 271.154 172.757 272.255 173.416 271.16C174.076 270.065 177.347 267.229 177.347 267.229C177.347 267.229 182.802 264.392 184.115 263.298C185.427 262.203 188.699 259.149 188.699 259.149L213.156 261.114C213.156 261.114 214.686 260.244 213.815 255.218C212.944 250.192 207.701 248.015 207.701 248.015Z" fill="#9E9E9E" stroke="#263238" stroke-miterlimit="10"/>
<path d="M224.296 209.364L236.307 239.071L216.869 245.838L222.33 261.78C222.33 261.78 236.288 261.817 247.21 261.158C258.133 260.499 265.796 253.912 264.048 246.056C262.3 238.2 255.75 226.836 250.507 213.295C245.263 199.754 246.887 191.681 244.486 187.532C242.085 183.383 235.311 182.288 235.311 182.288L231.579 181.666" fill="white"/>
<path opacity="0.2" d="M262.207 254.316V251.206H263.83C263.899 251.001 263.955 250.796 264.004 250.584H262.207V242.803H263.14C263.071 242.604 262.997 242.392 262.928 242.181H262.207V240.284C262.008 239.768 261.802 239.239 261.585 238.71V242.181H255.054V234.406H259.744C259.65 234.201 259.563 233.995 259.47 233.784H255.054V226.009H255.925C255.825 225.804 255.732 225.598 255.638 225.387H255.054V224.087C254.848 223.627 254.637 223.166 254.432 222.7V225.387H247.901V217.612H252.255C252.168 217.407 252.081 217.201 252 216.99H247.901V209.215H249.064C248.995 209.01 248.933 208.798 248.871 208.593H247.901V205.047C247.664 204.065 247.459 203.125 247.279 202.224V208.593H240.748V200.818H247.017L246.906 200.196H240.748V192.421H245.854L245.761 191.799H240.748V184.173C240.202 183.88 239.642 183.617 239.068 183.383H233.595V181.99L232.973 181.878V183.383H231.138L230.97 184.005H232.973V191.799H228.93L228.768 192.421H232.979V200.196H226.715L226.547 200.818H232.973V208.593H226.442V201.216L225.82 203.573V208.549H224.501L224.339 209.171H225.82V213.109L226.442 214.645V209.215H232.973V216.99H227.375L227.624 217.612H232.973V225.387H230.796L231.051 226.009H233.004V230.842L233.626 232.378V226.009H240.126V233.784H234.161L234.416 234.406H240.126V242.181H233.595V240.029L232.973 240.246V242.181H227.412L225.621 242.803H225.82V250.578H219.289V244.98L218.667 245.198V250.547H218.486L219.289 252.885V251.169H225.82V261.743H226.442V251.169H232.973V261.662H233.595V251.181H240.126V261.463H240.748V251.181H247.279V261.133L247.901 261.083V251.181H254.432V259.715L255.054 259.479V251.181H261.585V255.087C261.802 254.832 262.014 254.577 262.207 254.316ZM232.973 250.584H226.442V242.803H232.973V250.584ZM240.126 250.584H233.595V242.803H240.126V250.584ZM240.126 225.393H233.595V217.618H240.126V225.393ZM240.126 216.996H233.595V209.215H240.126V216.996ZM240.126 208.599H233.595V200.824H240.126V208.599ZM240.126 200.202H233.595V192.421H240.126V200.202ZM240.126 191.805H233.595V184.03H240.126V191.805ZM247.279 250.584H240.748V242.803H247.279V250.584ZM247.279 242.187H240.748V234.412H247.279V242.187ZM247.279 233.79H240.748V226.009H247.279V233.79ZM247.279 225.393H240.748V217.618H247.279V225.393ZM247.279 216.996H240.748V209.215H247.279V216.996ZM254.432 250.584H247.901V242.803H254.432V250.584ZM254.432 242.187H247.901V234.412H254.432V242.187ZM254.432 233.79H247.901V226.009H254.432V233.79ZM255.054 250.584V242.803H261.585V250.578L255.054 250.584Z" fill="#263238"/>
<path d="M224.296 209.364L236.307 239.071L216.869 245.838L222.33 261.78C222.33 261.78 236.288 261.817 247.21 261.158C258.133 260.499 265.796 253.912 264.048 246.056C262.3 238.2 255.75 226.836 250.507 213.295C245.263 199.754 246.887 191.681 244.486 187.532C242.085 183.383 235.311 182.288 235.311 182.288L231.579 181.666" stroke="#263238" stroke-miterlimit="10"/>
<path d="M248 236.048C244.037 236.782 240.13 237.79 236.307 239.065C236.307 239.065 244.604 233.603 249.188 233.168" stroke="#263238" stroke-miterlimit="10"/>
<path d="M253.561 235.786C252.7 235.663 251.829 235.634 250.961 235.699" stroke="#263238" stroke-miterlimit="10"/>
<path d="M222.548 243.425C222.548 243.425 226.964 247.648 228.27 250.92C229.577 254.192 229.098 263.08 228.227 263.951C227.356 264.821 211.103 264.716 208.429 261.376C207.732 260.505 212.503 258.496 210.102 253.688C207.701 248.88 206.606 248.45 206.606 248.45C206.606 248.45 204.641 247.356 208.354 244.955C212.067 242.554 220.583 240.812 222.548 243.425Z" fill="#263238" stroke="#263238" stroke-miterlimit="10"/>
<path d="M261.268 277.1H245.146L243.13 245.229H263.283L261.268 277.1Z" fill="#263238" stroke="#263238" stroke-linejoin="round"/>
<path d="M264.179 245.279H242.241V249.919H264.179V245.279Z" fill="white" stroke="#263238" stroke-linejoin="round"/>
<path d="M264.179 245.453H242.241L244.43 242.703H261.983L264.179 245.453Z" fill="white" stroke="#263238" stroke-linejoin="round"/>
<path d="M261.858 267.751L262.661 255.056H243.752L244.554 267.751H261.858Z" fill="white" stroke="#263238" stroke-linejoin="round"/>
<path d="M168.359 279.221L188.226 273.971V276.658L168.359 282.225V279.221Z" fill="#263238" stroke="#263238" stroke-linejoin="round"/>
<path d="M188.226 273.971H84.3584L64.2803 279.221H168.36L188.226 273.971Z" fill="white" stroke="#263238" stroke-linejoin="round"/>
<path d="M168.36 219.198H64.2803V282.225H168.36V219.198Z" fill="white" stroke="#263238" stroke-linejoin="round"/>
<path d="M168.36 228.316C145.719 229.392 132.234 250.26 112.199 264.243C93.9373 276.994 71.3835 279.171 64.3052 279.513V282.225H168.36V228.316Z" fill="#263238" stroke="#263238" stroke-linejoin="round"/>
<path d="M168.36 279.221H64.2803V282.225H168.36V279.221Z" fill="white" stroke="#263238" stroke-miterlimit="10"/>
<path d="M33.4665 258.427C33.4665 258.427 24.7958 244.557 31.756 236.751C38.7162 228.944 49.9619 232.701 52.282 239.929C54.602 247.157 49.682 259.298 49.682 259.298L33.4665 258.427Z" fill="white" stroke="#263238" stroke-linecap="round" stroke-linejoin="round"/>
<path d="M33.7528 242.529C32.3097 242.529 26.8175 240.508 25.0821 237.908C23.3467 235.308 23.0482 229.523 27.9744 229.523C32.9006 229.523 34.6236 238.194 34.6236 238.194L34.9097 241.372" fill="white"/>
<path d="M33.7528 242.529C32.3097 242.529 26.8175 240.508 25.0821 237.908C23.3467 235.308 23.0482 229.523 27.9744 229.523C32.9006 229.523 34.6236 238.194 34.6236 238.194L34.9097 241.372" stroke="#263238" stroke-linecap="round" stroke-linejoin="round"/>
<path d="M38.2001 237.13C36.9063 236.508 32.8944 232.229 32.5026 229.125C32.1107 226.021 34.437 220.722 38.8345 222.905C43.2321 225.088 40.912 233.634 40.912 233.634L39.7489 236.608" fill="white"/>
<path d="M38.2001 237.13C36.9063 236.508 32.8944 232.229 32.5026 229.125C32.1107 226.021 34.437 220.722 38.8345 222.905C43.2321 225.088 40.912 233.634 40.912 233.634L39.7489 236.608" stroke="#263238" stroke-linecap="round" stroke-linejoin="round"/>
<path d="M43.4496 238.585C42.7281 237.341 41.7577 231.563 43.151 228.764C44.5443 225.965 49.4208 222.843 51.859 227.11C54.2972 231.376 47.6356 237.186 47.6356 237.186L45.017 239.015" fill="white"/>
<path d="M43.4496 238.585C42.7281 237.341 41.7577 231.563 43.151 228.764C44.5443 225.965 49.4208 222.843 51.859 227.11C54.2972 231.376 47.6356 237.186 47.6356 237.186L45.017 239.015" stroke="#263238" stroke-linecap="round" stroke-linejoin="round"/>
<path d="M45.1725 248.948C44.9361 247.518 46.0184 241.77 48.2825 239.618C50.5466 237.466 56.213 236.228 57.0278 241.074C57.8426 245.919 49.5638 249.073 49.5638 249.073L46.4538 249.881" fill="white"/>
<path d="M45.1725 248.948C44.9361 247.518 46.0184 241.77 48.2825 239.618C50.5466 237.466 56.213 236.228 57.0278 241.074C57.8426 245.919 49.5638 249.073 49.5638 249.073L46.4538 249.881" stroke="#263238" stroke-linecap="round" stroke-linejoin="round"/>
<path d="M25.7163 234.418L26.6928 235.955" stroke="white" stroke-linecap="round" stroke-linejoin="round"/>
<path d="M28.5093 238.187L30.0394 239.438" stroke="white" stroke-linecap="round" stroke-linejoin="round"/>
<path d="M26.8359 231.489L28.3661 233.722" stroke="white" stroke-linecap="round" stroke-linejoin="round"/>
<path d="M30.4624 235.538L32.1356 238.604" stroke="white" stroke-linecap="round" stroke-linejoin="round"/>
<path d="M34.3623 228.142L34.9221 229.815" stroke="white" stroke-linecap="round" stroke-linejoin="round"/>
<path d="M36.3154 232.882L37.292 234.281" stroke="white" stroke-linecap="round" stroke-linejoin="round"/>
<path d="M35.8989 224.796L37.1554 227.582" stroke="white" stroke-linecap="round" stroke-linejoin="round"/>
<path d="M31.0161 244.463L31.4391 246.97" stroke="white" stroke-linecap="round" stroke-linejoin="round"/>
<path d="M32.2725 249.34L32.8323 251.436" stroke="white" stroke-linecap="round" stroke-linejoin="round"/>
<path d="M33.6655 244.6L34.2253 247.387" stroke="white" stroke-linecap="round" stroke-linejoin="round"/>
<path d="M35.4819 249.34L35.8987 251.436" stroke="white" stroke-linecap="round" stroke-linejoin="round"/>
<path d="M36.4585 240.974L37.292 244.88" stroke="white" stroke-linecap="round" stroke-linejoin="round"/>
<path d="M38.4116 248.643L38.5485 250.46" stroke="white" stroke-linecap="round" stroke-linejoin="round"/>
<path d="M39.9419 239.718L40.6385 243.344" stroke="white" stroke-linecap="round" stroke-linejoin="round"/>
<path d="M40.6382 247.113L40.9181 250.876" stroke="white" stroke-linecap="round" stroke-linejoin="round"/>
<path d="M43.9907 241.111V244.184" stroke="white" stroke-linecap="round" stroke-linejoin="round"/>
<path d="M43.5679 248.09L43.7109 250.459" stroke="white" stroke-linecap="round" stroke-linejoin="round"/>
<path d="M47.474 226.606L46.7773 228.285" stroke="white" stroke-linecap="round" stroke-linejoin="round"/>
<path d="M46.4974 230.232L45.8008 232.608" stroke="white" stroke-linecap="round" stroke-linejoin="round"/>
<path d="M50.5406 229.815L49.4272 232.048" stroke="white" stroke-linecap="round" stroke-linejoin="round"/>
<path d="M47.0572 234.561L45.8008 235.955" stroke="white" stroke-linecap="round" stroke-linejoin="round"/>
<path d="M44.4075 229.678L43.9907 231.488" stroke="white" stroke-linecap="round" stroke-linejoin="round"/>
<path d="M50.5404 239.718L49.0103 242.23" stroke="white" stroke-linecap="round" stroke-linejoin="round"/>
<path d="M48.034 243.76L47.1943 245.993" stroke="white" stroke-linecap="round" stroke-linejoin="round"/>
<path d="M49.2905 247.113L51.7972 245.714" stroke="white" stroke-linecap="round" stroke-linejoin="round"/>
<path d="M53.3331 239.718L52.0767 241.814" stroke="white" stroke-linecap="round" stroke-linejoin="round"/>
<path d="M54.5897 242.087L52.9165 243.344" stroke="white" stroke-linecap="round" stroke-linejoin="round"/>
<path d="M52.7858 253.588H29.0752V277.299H52.7858V253.588Z" fill="#263238" stroke="#263238" stroke-linecap="round" stroke-linejoin="round"/>
</svg>
