<svg width="267" height="230" viewBox="0 0 267 230" fill="none" xmlns="http://www.w3.org/2000/svg">
<path d="M243.956 144.24C243.956 144.24 238.19 140.865 237.763 148.508C237.336 156.15 236.266 205.861 236.266 205.861" stroke="#263238" stroke-width="2" stroke-linecap="round" stroke-linejoin="round"/>
<path d="M234.75 149.184C234.75 149.184 239.442 160.206 237.317 205.184" stroke="#263238" stroke-width="2" stroke-linecap="round" stroke-linejoin="round"/>
<path d="M239.391 145.776C239.391 145.776 237.181 147.258 235.928 145.563C234.675 143.869 236.777 140.737 234.924 139.403C233.071 138.069 229.866 140.105 229.866 140.105C229.866 140.105 232.329 140.865 232.25 142.283C232.17 143.701 230.983 144.259 230.842 143.617C230.701 142.975 229.505 139.877 227.501 141.177C226.925 141.536 226.424 142.015 226.028 142.584C225.632 143.152 225.35 143.8 225.198 144.486C225.198 144.486 229.857 143.963 230.138 145.81C230.42 147.658 228.229 145.489 226.305 145.371C224.381 145.252 222.627 145.549 222.753 146.774C222.796 147.858 222.735 148.943 222.57 150.014C223.622 149.091 224.954 148.597 226.324 148.621C228.44 148.75 228.36 150.167 226.436 150.049C224.513 149.93 222.861 151.857 222.861 151.857C222.861 151.857 224.616 155.014 226.845 156.575C229.073 158.136 229.876 157.563 230.129 156.372C230.382 155.182 229.791 152.084 231.138 152.168C232.484 152.252 228.909 157.518 230.626 157.829C232.344 158.141 233.728 157.612 234.178 156.422L234.647 155.231C234.647 155.231 234.047 152.148 234.309 150.943C234.572 149.738 234.887 150.978 235.192 152.425C235.496 153.872 235.689 157.335 236.275 157.167C236.862 156.999 238.743 154.475 239.184 153.487C239.625 152.499 236.707 149.471 236.74 148.863C236.773 148.256 239.025 149.412 239.377 150.044C239.632 150.525 239.862 151.019 240.066 151.526C240.066 151.526 241.474 150.597 241.436 147.752C241.399 144.906 239.391 145.776 239.391 145.776Z" fill="white"/>
<path opacity="0.3" d="M239.391 145.776C239.391 145.776 237.181 147.258 235.928 145.563C234.675 143.869 236.777 140.737 234.924 139.403C233.071 138.069 229.866 140.105 229.866 140.105C229.866 140.105 232.329 140.865 232.25 142.283C232.17 143.701 230.983 144.259 230.842 143.617C230.701 142.975 229.505 139.877 227.501 141.177C226.925 141.536 226.424 142.015 226.028 142.584C225.632 143.152 225.35 143.8 225.198 144.486C225.198 144.486 229.857 143.963 230.138 145.81C230.42 147.658 228.229 145.489 226.305 145.371C224.381 145.252 222.627 145.549 222.753 146.774C222.796 147.858 222.735 148.943 222.57 150.014C223.622 149.091 224.954 148.597 226.324 148.621C228.44 148.75 228.36 150.167 226.436 150.049C224.513 149.93 222.861 151.857 222.861 151.857C222.861 151.857 224.616 155.014 226.845 156.575C229.073 158.136 229.876 157.563 230.129 156.372C230.382 155.182 229.791 152.084 231.138 152.168C232.484 152.252 228.909 157.518 230.626 157.829C232.344 158.141 233.728 157.612 234.178 156.422L234.647 155.231C234.647 155.231 234.047 152.148 234.309 150.943C234.572 149.738 234.887 150.978 235.192 152.425C235.496 153.872 235.689 157.335 236.275 157.167C236.862 156.999 238.743 154.475 239.184 153.487C239.625 152.499 236.707 149.471 236.74 148.863C236.773 148.256 239.025 149.412 239.377 150.044C239.632 150.525 239.862 151.019 240.066 151.526C240.066 151.526 241.474 150.597 241.436 147.752C241.399 144.906 239.391 145.776 239.391 145.776Z" fill="#263238"/>
<path d="M228.205 152.45C229.646 150.578 231.762 148.043 233.54 146.833" stroke="#263238" stroke-linecap="round" stroke-linejoin="round"/>
<path d="M226.535 154.732C226.535 154.732 226.906 154.189 227.506 153.379" stroke="#263238" stroke-linecap="round" stroke-linejoin="round"/>
<path d="M234.478 147.297C234.478 147.297 236.618 150.479 237.012 153.754" stroke="#263238" stroke-linecap="round" stroke-linejoin="round"/>
<path d="M232.057 149.18C232.057 149.18 232.658 148.814 232.433 152.86" stroke="#263238" stroke-linecap="round" stroke-linejoin="round"/>
<path d="M233.62 145.405C233.62 145.405 234.84 144.259 234.197 141.987" stroke="#263238" stroke-linecap="round" stroke-linejoin="round"/>
<path d="M231.968 147.347L231.095 145.667" stroke="#263238" stroke-linecap="round" stroke-linejoin="round"/>
<path d="M230.134 149.061C230.134 149.061 227.365 146.858 225.634 146.749" stroke="#263238" stroke-linecap="round" stroke-linejoin="round"/>
<path d="M247.254 139.774C247.254 139.774 247.165 143.113 244.688 143.276C242.211 143.439 240.681 139.097 238.147 140.139C235.614 141.182 235.37 145.949 235.37 145.949C235.37 145.949 237.772 143.869 239.067 144.921C240.362 145.973 240.062 147.589 239.363 147.332C238.663 147.075 234.896 146.191 234.769 149.184C234.717 150.037 234.829 150.892 235.099 151.698C235.369 152.504 235.792 153.243 236.341 153.873C236.341 153.873 239.02 148.607 240.972 149.565C242.924 150.523 239.363 151.358 237.936 153.304C236.51 155.251 235.59 157.301 236.852 158.007C237.912 158.701 238.902 159.505 239.808 160.408C239.808 160.408 239.47 157.652 241.038 155.513C242.605 153.374 243.895 154.421 242.473 156.367C241.052 158.314 241.755 161.367 241.755 161.367C241.755 161.367 245.95 161.673 248.953 160.379C251.956 159.084 251.974 157.864 251.008 156.767C250.041 155.671 246.701 154.204 247.695 152.84C248.69 151.477 251.261 158.837 252.73 157.237C254.198 155.636 254.635 153.823 253.814 152.534L252.988 151.244C252.988 151.244 249.647 149.762 248.681 148.681C247.714 147.599 249.108 148.093 250.689 148.755C252.27 149.417 255.69 151.575 255.934 150.844C256.178 150.113 255.057 146.398 254.419 145.272C253.781 144.146 248.911 145.144 248.357 144.694C247.803 144.244 250.435 142.659 251.275 142.718C252.115 142.777 253.152 142.99 253.152 142.99C253.152 142.99 253.227 140.88 250.496 138.974C247.766 137.067 247.254 139.774 247.254 139.774Z" fill="white"/>
<path opacity="0.2" d="M247.254 139.774C247.254 139.774 247.165 143.113 244.688 143.276C242.211 143.439 240.681 139.097 238.147 140.139C235.614 141.182 235.37 145.949 235.37 145.949C235.37 145.949 237.772 143.869 239.067 144.921C240.362 145.973 240.062 147.589 239.363 147.332C238.663 147.075 234.896 146.191 234.769 149.184C234.717 150.037 234.829 150.892 235.099 151.698C235.369 152.504 235.792 153.243 236.341 153.873C236.341 153.873 239.02 148.607 240.972 149.565C242.924 150.523 239.363 151.358 237.936 153.304C236.51 155.251 235.59 157.301 236.852 158.007C237.912 158.701 238.902 159.505 239.808 160.408C239.808 160.408 239.47 157.652 241.038 155.513C242.605 153.374 243.895 154.421 242.473 156.367C241.052 158.314 241.755 161.367 241.755 161.367C241.755 161.367 245.95 161.673 248.953 160.379C251.956 159.084 251.974 157.864 251.008 156.767C250.041 155.671 246.701 154.204 247.695 152.84C248.69 151.477 251.261 158.837 252.73 157.237C254.198 155.636 254.635 153.823 253.814 152.534L252.988 151.244C252.988 151.244 249.647 149.762 248.681 148.681C247.714 147.599 249.108 148.093 250.689 148.755C252.27 149.417 255.69 151.575 255.934 150.844C256.178 150.113 255.057 146.398 254.419 145.272C253.781 144.146 248.911 145.144 248.357 144.694C247.803 144.244 250.435 142.659 251.275 142.718C252.115 142.777 253.152 142.99 253.152 142.99C253.152 142.99 253.227 140.88 250.496 138.974C247.766 137.067 247.254 139.774 247.254 139.774Z" fill="#263238"/>
<path d="M245.973 156.115C245.176 153.319 244.209 149.357 244.275 146.66" stroke="#263238" stroke-linecap="round" stroke-linejoin="round"/>
<path d="M247.006 159.425C247.006 159.425 246.743 158.669 246.382 157.484" stroke="#263238" stroke-linecap="round" stroke-linejoin="round"/>
<path d="M245.354 145.988C245.354 145.988 249.835 145.904 253.218 147.717" stroke="#263238" stroke-linecap="round" stroke-linejoin="round"/>
<path d="M245.495 149.822C245.495 149.822 245.551 148.942 249.248 151.941" stroke="#263238" stroke-linecap="round" stroke-linejoin="round"/>
<path d="M242.98 145.613C242.98 145.613 242.727 143.543 240.123 142.674" stroke="#263238" stroke-linecap="round" stroke-linejoin="round"/>
<path d="M243.688 148.671L241.497 148.443" stroke="#263238" stroke-linecap="round" stroke-linejoin="round"/>
<path d="M244.068 151.768C244.068 151.768 240.085 153.191 238.804 154.94" stroke="#263238" stroke-linecap="round" stroke-linejoin="round"/>
<path d="M220.675 162.004C220.675 162.004 233.277 170.777 233.061 204.735" stroke="#263238" stroke-width="2" stroke-linecap="round" stroke-linejoin="round"/>
<path d="M236.214 159.687C236.214 159.687 235.811 163.53 232.93 163.476C230.049 163.422 228.679 158.249 225.667 159.203C222.655 160.156 221.937 165.625 221.937 165.625C221.937 165.625 224.897 163.466 226.3 164.805C227.703 166.144 227.206 167.981 226.422 167.616C225.639 167.25 221.374 165.857 220.956 169.3C220.82 170.28 220.875 171.279 221.117 172.236C221.359 173.193 221.783 174.088 222.364 174.868C222.364 174.868 225.93 169.053 228.093 170.352C230.256 171.652 226.075 172.264 224.255 174.369C222.434 176.473 221.2 178.75 222.58 179.689C223.743 180.592 224.815 181.619 225.78 182.752C225.78 182.752 225.634 179.536 227.656 177.224C229.678 174.912 231.053 176.236 229.237 178.35C227.422 180.465 227.961 184.051 227.961 184.051C227.961 184.051 232.78 184.822 236.36 183.636C239.94 182.45 240.066 181.038 239.048 179.684C238.03 178.331 234.309 176.295 235.581 174.823C236.852 173.351 239.156 182.095 240.995 180.395C242.835 178.696 243.501 176.646 242.666 175.075L241.788 173.504C241.788 173.504 238.068 171.474 237.049 170.115C236.031 168.757 237.594 169.483 239.358 170.402C241.122 171.321 244.88 174.156 245.223 173.331C245.565 172.506 244.603 168.129 243.989 166.751C243.374 165.373 237.645 166.06 237.045 165.487C236.444 164.913 239.63 163.343 240.592 163.511C241.308 163.636 242.017 163.801 242.717 164.005C242.717 164.005 242.989 161.574 240.01 159.104C237.031 156.634 236.214 159.687 236.214 159.687Z" fill="white"/>
<path opacity="0.3" d="M236.214 159.687C236.214 159.687 235.811 163.53 232.93 163.476C230.049 163.422 228.679 158.249 225.667 159.203C222.655 160.156 221.937 165.625 221.937 165.625C221.937 165.625 224.897 163.466 226.3 164.805C227.703 166.144 227.206 167.981 226.422 167.616C225.639 167.25 221.374 165.857 220.956 169.3C220.82 170.28 220.875 171.279 221.117 172.236C221.359 173.193 221.783 174.088 222.364 174.868C222.364 174.868 225.93 169.053 228.093 170.352C230.256 171.652 226.075 172.264 224.255 174.369C222.434 176.473 221.2 178.75 222.58 179.689C223.743 180.592 224.815 181.619 225.78 182.752C225.78 182.752 225.634 179.536 227.656 177.224C229.678 174.912 231.053 176.236 229.237 178.35C227.422 180.465 227.961 184.051 227.961 184.051C227.961 184.051 232.78 184.822 236.36 183.636C239.94 182.45 240.066 181.038 239.048 179.684C238.03 178.331 234.309 176.295 235.581 174.823C236.852 173.351 239.156 182.095 240.995 180.395C242.835 178.696 243.501 176.646 242.666 175.075L241.788 173.504C241.788 173.504 238.068 171.474 237.049 170.115C236.031 168.757 237.594 169.483 239.358 170.402C241.122 171.321 244.88 174.156 245.223 173.331C245.565 172.506 244.603 168.129 243.989 166.751C243.374 165.373 237.645 166.06 237.045 165.487C236.444 164.913 239.63 163.343 240.592 163.511C241.308 163.636 242.017 163.801 242.717 164.005C242.717 164.005 242.989 161.574 240.01 159.104C237.031 156.634 236.214 159.687 236.214 159.687Z" fill="#263238"/>
<path d="M233.277 178.414C232.601 175.115 231.846 170.446 232.156 167.339" stroke="#263238" stroke-linecap="round" stroke-linejoin="round"/>
<path d="M234.169 182.337C234.169 182.337 233.934 181.438 233.62 180.035" stroke="#263238" stroke-linecap="round" stroke-linejoin="round"/>
<path d="M233.465 166.647C233.465 166.647 238.626 166.998 242.379 169.429" stroke="#263238" stroke-linecap="round" stroke-linejoin="round"/>
<path d="M233.282 171.093C233.282 171.093 233.427 170.105 237.425 173.909" stroke="#263238" stroke-linecap="round" stroke-linejoin="round"/>
<path d="M230.758 166C230.758 166 230.65 163.589 227.727 162.325" stroke="#263238" stroke-linecap="round" stroke-linejoin="round"/>
<path d="M231.302 169.597L228.796 169.117" stroke="#263238" stroke-linecap="round" stroke-linejoin="round"/>
<path d="M231.466 173.213C231.466 173.213 226.741 174.453 225.104 176.345" stroke="#263238" stroke-linecap="round" stroke-linejoin="round"/>
<path d="M225.587 188.769C225.587 188.769 233.704 195.289 234.558 204.962L232.874 172.575" stroke="#263238" stroke-width="2" stroke-linecap="round" stroke-linejoin="round"/>
<path d="M245.237 184.046C234.558 182.021 234.558 204.962 234.558 204.962" stroke="#263238" stroke-width="2" stroke-linecap="round" stroke-linejoin="round"/>
<path d="M235.839 204.735C235.839 204.735 229.646 157.281 247.569 157.281" stroke="#263238" stroke-width="2" stroke-linecap="round" stroke-linejoin="round"/>
<path d="M241.169 182.678C239.71 180.954 236.608 180.954 234.788 185.37C232.967 189.786 234.605 189.016 234.605 189.016C234.605 189.016 238.068 187.865 240.235 187.094C242.403 186.323 245.34 184.407 245.523 185.563C245.706 186.719 244.064 187.865 242.056 188.25C240.047 188.635 234.764 190.167 235.309 191.323C235.853 192.479 237.134 195.927 237.134 195.927C238.693 194.535 240.337 193.253 242.056 192.088C244.43 190.552 245.889 191.13 244.613 192.854C243.337 194.578 239.686 196.505 240.418 198.807C241.15 201.109 245.542 203.994 245.542 203.994C245.542 203.994 246.086 199.192 247.367 197.656C248.648 196.119 248.643 197.848 248.277 200.536C248.094 201.68 247.972 202.835 247.911 203.994L253.016 205.91C253.851 204.572 254.764 203.29 255.751 202.072L256.69 201.114C256.69 201.114 252.678 197.463 252.495 195.186C252.312 192.908 255.23 195.186 256.141 195.571C257.051 195.956 258.51 198.639 258.51 198.639C258.51 198.639 259.425 194.227 259.608 192.711L259.791 191.174C259.791 191.174 255.958 189.638 254.499 189.638C253.039 189.638 252.312 190.789 252.312 189.253C252.312 187.716 253.771 186.758 255.413 186.951C256.9 187.21 258.364 187.595 259.791 188.102C259.791 188.102 260.884 187.138 260.518 184.258C260.152 181.378 259.242 181.378 257.056 182.149C254.869 182.92 253.405 184.619 251.763 184.619C250.121 184.619 251.036 182.51 252.129 181.932C253.222 181.354 255.958 180.203 256.507 180.01C257.056 179.817 253.588 177.13 251.763 176.75C249.938 176.369 247.578 177.738 247.752 179.63C248.099 183.641 242.628 184.431 241.169 182.678Z" fill="white"/>
<path d="M252.908 202.448C252.964 203.026 253.002 203.609 253.021 204.186" stroke="#263238" stroke-linecap="round" stroke-linejoin="round"/>
<path d="M249.244 188.665C250.846 192.469 252 196.466 252.678 200.565" stroke="#263238" stroke-linecap="round" stroke-linejoin="round"/>
<path d="M248.587 187.124C247.686 185.079 247.006 183.834 247.006 183.834C247.992 183.333 248.81 182.528 249.352 181.527C249.779 180.618 250.404 179.83 251.177 179.225" stroke="#263238" stroke-linecap="round" stroke-linejoin="round"/>
<path d="M240.62 190.359C240.62 190.359 247.189 187.479 247.189 188.057" stroke="#263238" stroke-linecap="round" stroke-linejoin="round"/>
<path d="M250.834 186.714C250.834 186.714 253.753 185.177 256.305 185.177" stroke="#263238" stroke-linecap="round" stroke-linejoin="round"/>
<path d="M249.765 191.347C248.5 192.442 247.338 193.663 246.297 194.993C245.233 196.316 244.371 197.806 243.745 199.409" stroke="#263238" stroke-linecap="round" stroke-linejoin="round"/>
<path d="M251.744 192.088C251.744 192.088 255.578 190.937 257.581 192.854" stroke="#263238" stroke-linecap="round" stroke-linejoin="round"/>
<path d="M258.679 166.153C256.694 164.918 254.499 164.889 253.419 163.585C252.34 162.28 254.456 161.609 255.587 162.103C256.718 162.597 259.341 164.014 259.833 164.326C260.326 164.637 259.988 160.117 259.068 158.398C258.149 156.678 255.629 155.705 254.377 157.093C251.726 160.028 247.587 156.179 247.869 153.887C248.15 151.595 246.119 149.13 241.77 150.578C237.42 152.025 239.034 152.82 239.034 152.82C239.034 152.82 242.131 154.821 244.12 156.061C246.109 157.301 249.394 158.358 248.685 159.257C247.977 160.156 246.077 159.608 244.486 158.269C242.896 156.93 238.33 153.729 237.861 154.92C237.392 156.11 235.75 159.366 235.75 159.366C237.771 159.692 239.769 160.159 241.732 160.764C244.388 161.638 244.932 163.175 242.858 163.293C240.784 163.412 237.012 161.772 235.82 163.861C234.628 165.951 235.45 171.321 235.45 171.321C235.45 171.321 239.25 168.609 241.188 168.618C243.125 168.628 241.887 169.76 239.719 171.232C238.78 171.838 237.873 172.497 237.003 173.208L238.973 178.528C240.48 178.313 241.999 178.199 243.52 178.187L244.805 178.281C244.805 178.281 244.805 172.699 246.325 171.044C247.845 169.389 248.118 173.218 248.441 174.196C248.765 175.174 247.794 178.093 247.794 178.093C247.794 178.093 251.547 175.925 252.777 175.065L254.001 174.201C254.001 174.201 252.594 170.15 251.655 168.989C250.717 167.828 249.399 168.001 250.496 167.013C251.594 166.025 253.246 166.519 254.184 167.966C254.97 169.318 255.652 170.734 256.225 172.2C256.225 172.2 257.633 172.442 259.458 170.263C261.283 168.085 260.668 167.383 258.679 166.153ZM241.422 172.299C239.963 171.533 243.426 169.997 243.426 169.997C244.707 169.794 242.881 173.069 241.427 172.289L241.422 172.299ZM243.876 165.131C243.257 164.805 245.119 164.143 245.119 164.143C247.822 164.671 244.505 165.452 243.881 165.121L243.876 165.131Z" fill="white"/>
<path d="M241.385 176.201C241.006 176.626 240.617 177.036 240.217 177.431" stroke="#263238" stroke-linecap="round" stroke-linejoin="round"/>
<path d="M248.868 164.251C247.193 168.02 245.083 171.558 242.586 174.784" stroke="#263238" stroke-linecap="round" stroke-linejoin="round"/>
<path d="M249.544 162.72C250.421 160.66 250.867 159.302 250.867 159.302C251.875 159.77 252.995 159.901 254.076 159.677C255.008 159.421 255.984 159.401 256.924 159.618" stroke="#263238" stroke-linecap="round" stroke-linejoin="round"/>
<path d="M247.958 162.201C248.371 161.826 242.004 158.491 242.004 158.491" stroke="#263238" stroke-linecap="round" stroke-linejoin="round"/>
<path d="M251.313 164.237C251.313 164.237 254.33 165.551 256.005 167.581" stroke="#263238" stroke-linecap="round" stroke-linejoin="round"/>
<path d="M247.292 166.386C245.677 166.101 244.04 165.98 242.403 166.025C240.757 166.044 239.125 166.336 237.566 166.889" stroke="#263238" stroke-linecap="round" stroke-linejoin="round"/>
<path d="M248.057 168.485C248.057 168.485 251.393 170.777 251.341 173.628" stroke="#263238" stroke-linecap="round" stroke-linejoin="round"/>
<path d="M230.345 192.75C228.75 191.762 226.981 191.733 226.122 190.681C225.263 189.628 226.953 189.1 227.863 189.5C228.773 189.9 230.88 191.036 231.283 191.283C231.687 191.53 231.405 187.899 230.664 186.531C229.922 185.163 227.896 184.362 226.91 185.484C224.775 187.84 221.444 184.748 221.674 182.9C221.904 181.052 220.267 179.072 216.752 180.237C213.238 181.403 214.552 182.045 214.552 182.045C214.552 182.045 217.043 183.656 218.643 184.649C220.243 185.642 222.866 186.496 222.317 187.223C221.768 187.949 220.22 187.504 218.939 186.422C217.658 185.34 213.984 182.767 213.604 183.725C213.224 184.683 211.91 187.326 211.91 187.326C213.537 187.588 215.145 187.962 216.724 188.448C218.859 189.154 219.295 190.394 217.625 190.488C215.955 190.582 212.933 189.263 211.995 190.942C211.056 192.622 211.699 196.944 211.699 196.944C211.699 196.944 214.758 194.766 216.316 194.771C217.874 194.776 216.879 195.69 215.138 196.875C214.381 197.361 213.649 197.89 212.947 198.461L214.533 202.744C215.746 202.57 216.969 202.478 218.193 202.467L219.23 202.546C219.23 202.546 219.23 198.051 220.454 196.722C221.679 195.393 221.895 198.471 222.153 199.256C222.411 200.042 221.632 202.393 221.632 202.393C221.632 202.393 224.663 200.649 225.644 199.953L226.629 199.261C226.629 199.261 225.493 196.001 224.724 195.067C223.954 194.134 222.903 194.272 223.786 193.462C224.668 192.652 225.995 193.081 226.751 194.232C227.384 195.321 227.935 196.461 228.398 197.641C228.398 197.641 229.528 197.834 230.997 196.08C232.466 194.326 231.935 193.743 230.345 192.75ZM216.457 197.69C215.284 197.073 218.071 195.838 218.071 195.838C219.098 195.685 217.63 198.313 216.452 197.695L216.457 197.69ZM218.437 191.92C217.935 191.659 219.436 191.13 219.436 191.13C221.613 191.575 218.934 192.192 218.437 191.925V191.92Z" fill="white"/>
<path d="M216.452 200.842C216.147 201.183 215.833 201.514 215.514 201.83" stroke="#263238" stroke-linecap="round" stroke-linejoin="round"/>
<path d="M222.448 191.229C221.097 194.26 219.399 197.105 217.39 199.701" stroke="#263238" stroke-linecap="round" stroke-linejoin="round"/>
<path d="M222.992 189.994C223.696 188.339 224.058 187.242 224.058 187.242C224.868 187.619 225.769 187.724 226.638 187.544C227.387 187.338 228.171 187.321 228.928 187.494" stroke="#263238" stroke-linecap="round" stroke-linejoin="round"/>
<path d="M216.921 186.605C216.921 186.605 222.049 189.287 221.716 189.569" stroke="#263238" stroke-linecap="round" stroke-linejoin="round"/>
<path d="M224.428 191.214C224.428 191.214 226.854 192.271 228.182 193.901" stroke="#263238" stroke-linecap="round" stroke-linejoin="round"/>
<path d="M221.177 192.943C219.878 192.711 218.561 192.614 217.245 192.652C215.92 192.668 214.606 192.903 213.351 193.348" stroke="#263238" stroke-linecap="round" stroke-linejoin="round"/>
<path d="M221.792 194.632C221.792 194.632 224.48 196.475 224.428 198.772" stroke="#263238" stroke-linecap="round" stroke-linejoin="round"/>
<path d="M223.832 161.045C223.832 161.045 221.824 162.582 220.548 161.045C219.272 159.509 221.097 156.436 219.267 155.285C217.437 154.134 214.528 156.244 214.528 156.244C214.528 156.244 216.898 156.822 216.898 158.165C216.898 159.509 215.804 160.082 215.621 159.509C215.438 158.936 214.162 156.051 212.337 157.395C211.811 157.768 211.362 158.25 211.018 158.811C210.673 159.373 210.441 160.001 210.334 160.66C210.334 160.66 214.707 159.889 215.073 161.618C215.439 163.347 213.247 161.426 211.427 161.426C209.606 161.426 207.96 161.811 208.143 162.962C208.242 163.984 208.242 165.013 208.143 166.035C209.087 165.104 210.317 164.559 211.61 164.499C213.613 164.499 213.613 165.842 211.793 165.842C209.972 165.842 208.509 167.764 208.509 167.764C208.509 167.764 210.334 170.644 212.52 171.988C214.707 173.331 215.438 172.758 215.621 171.602C215.804 170.446 215.073 167.571 216.349 167.571C217.625 167.571 214.528 172.758 216.166 172.946C217.803 173.134 219.084 172.566 219.45 171.41L219.816 170.259C219.816 170.259 219.084 167.379 219.267 166.228C219.45 165.076 219.816 166.228 220.177 167.571C220.539 168.915 220.909 172.18 221.454 171.988C221.998 171.795 223.645 169.3 224.011 168.342C224.377 167.383 221.454 164.691 221.454 164.118C221.454 163.545 223.645 164.499 224.011 165.076C224.275 165.511 224.517 165.96 224.738 166.42C224.738 166.42 226.014 165.462 225.831 162.77C225.648 160.077 223.832 161.045 223.832 161.045Z" fill="white"/>
<path d="M213.637 168.006C214.899 166.153 216.766 163.634 218.385 162.389" stroke="#263238" stroke-linecap="round" stroke-linejoin="round"/>
<path d="M212.159 170.258C212.159 170.258 212.483 169.725 213.003 168.925" stroke="#263238" stroke-linecap="round" stroke-linejoin="round"/>
<path d="M219.267 162.77C219.267 162.77 221.454 165.65 222.003 168.722" stroke="#263238" stroke-linecap="round" stroke-linejoin="round"/>
<path d="M217.085 164.671C217.085 164.671 217.63 164.286 217.63 168.129" stroke="#263238" stroke-linecap="round" stroke-linejoin="round"/>
<path d="M218.362 161.045C218.362 161.045 219.455 159.89 218.723 157.78" stroke="#263238" stroke-linecap="round" stroke-linejoin="round"/>
<path d="M216.902 162.962L215.988 161.426" stroke="#263238" stroke-linecap="round" stroke-linejoin="round"/>
<path d="M215.26 164.671C215.26 164.671 212.525 162.75 210.883 162.75" stroke="#263238" stroke-linecap="round" stroke-linejoin="round"/>
<path d="M242.248 204.058H228.149V225.423H242.248V204.058Z" fill="#263238" stroke="#263238" stroke-width="2" stroke-linecap="round" stroke-linejoin="round"/>
<path d="M115.257 39.8771C115.257 39.8771 115.427 33.5638 115.215 28.1347C115.003 22.7057 115.431 11.067 115.431 11.067" stroke="#263238" stroke-miterlimit="10"/>
<path d="M115.332 17.9138L112.991 15.9724" stroke="#263238" stroke-miterlimit="10"/>
<path d="M115.304 19.2476L116.139 17.8298" stroke="#263238" stroke-miterlimit="10"/>
<path d="M115.116 24.8645L117.195 23.0515" stroke="#263238" stroke-miterlimit="10"/>
<path d="M115.431 13.4531L114.333 12.4009" stroke="#263238" stroke-miterlimit="10"/>
<path d="M115.097 25.8475L113.723 24.2964" stroke="#263238" stroke-miterlimit="10"/>
<path d="M115.215 31.9434L112.357 29.1968" stroke="#263238" stroke-miterlimit="10"/>
<path d="M115.29 35.3274C116.018 35.0301 116.726 34.6819 117.411 34.285" stroke="#263238" stroke-miterlimit="10"/>
<path d="M113.699 18.8871C112.55 17.9534 108.693 18.1164 107.952 20.0579C107.21 21.9993 109.57 25.1658 111.823 24.9435C112.709 24.8546 113.094 24.7904 113.441 24.2668L110.274 21.0064L113.704 23.9111C113.8 23.722 113.879 23.5235 113.939 23.3183C113.976 23.175 114.014 23.0169 114.042 22.8539C114.281 21.693 114.783 19.7615 113.699 18.8871Z" fill="white"/>
<path d="M121.164 16.6344V16.7036C120.854 18.151 119.287 18.971 117.96 18.8475C117.775 18.8311 117.593 18.7963 117.415 18.7438C117.105 19.261 116.913 19.847 116.854 20.4556C116.796 21.0643 116.872 21.6789 117.077 22.2512C117.133 22.4148 117.207 22.5707 117.298 22.7155C117.687 22.3796 121.854 18.6351 121.854 18.6351L117.528 23.0218C118.832 24.5038 121.891 24.2914 122.956 21.5695C124.022 18.8475 122.666 17.0247 121.164 16.6344Z" fill="white"/>
<path d="M119.043 11.5709C116.801 11.0769 114.792 12.1242 114.821 14.5893C114.833 15.1327 114.951 15.6677 115.167 16.1613C115.383 16.6549 115.693 17.0967 116.078 17.4594L118.391 14.1397L116.449 17.7607C116.884 18.0733 117.388 18.2637 117.913 18.314C119.236 18.4326 120.807 17.6125 121.117 16.1651C121.441 14.5497 121.286 12.0896 119.043 11.5709Z" fill="white"/>
<path d="M116.425 3C116.425 3 116.195 3.0741 114.76 3.81016C113.919 4.29814 113.296 5.11667 113.027 6.0868C112.758 7.05692 112.865 8.09974 113.324 8.98728C113.722 9.8165 114.41 10.4506 115.243 10.7558L115.82 4.88214L115.576 10.8348C115.685 10.8467 115.795 10.8467 115.904 10.8348C116.843 10.736 118.311 9.56032 118.452 7.15454C118.593 4.74876 116.425 3 116.425 3Z" fill="white"/>
<path d="M109.871 8.34017L114.201 11.9859C114.244 11.8253 114.258 11.6579 114.243 11.4919C114.042 9.40721 112.066 8.19691 110.762 7.76219C109.458 7.32747 108.552 8.10305 109.392 10.0988C110.232 12.0946 112.432 13.0628 113.413 12.7615C113.646 12.701 113.856 12.5665 114.014 12.3762L109.871 8.34017Z" fill="white"/>
<path d="M112.85 13.0133C112.186 12.9629 111.542 12.7544 110.965 12.4036C110.389 12.0527 109.896 11.5687 109.523 10.9879C109.063 10.942 108.605 11.0873 108.245 11.3929C107.886 11.6985 107.654 12.14 107.6 12.6231C107.159 14.7967 108.651 17.0691 110.804 16.7924C111.481 16.7553 112.122 16.4664 112.615 15.9773L108.768 12.2773L112.887 15.5821C112.968 15.4296 113.019 15.2617 113.038 15.0881C113.171 14.3922 113.105 13.6704 112.85 13.0133V13.0133Z" fill="white"/>
<path d="M112.827 25.1016C112.477 25.2593 112.104 25.3529 111.724 25.3782C110.316 25.5165 108.881 24.3556 108.167 22.9922C107.749 23.022 107.351 23.1988 107.039 23.4943C106.727 23.7899 106.518 24.187 106.446 24.6224C106.019 27.1665 108.257 30.5207 110.518 29.9872C111.106 29.8667 111.65 29.5759 112.09 29.1474L107.154 24.1481L112.376 28.8214C112.675 28.4182 112.867 27.9395 112.934 27.4332C113.182 26.6699 113.143 25.836 112.827 25.1016Z" fill="white"/>
<path d="M122.759 30.3034C121.098 28.278 119.123 30.0909 119.123 30.0909C119.123 30.0909 117.913 30.5108 117.453 32.3189C117.312 32.8674 117.333 33.4481 117.514 33.9837L122.506 30.9209L117.636 34.2702C118.105 35.1791 119.081 35.7522 120.451 35.3323C122.637 34.7 124.416 32.3436 122.759 30.3034Z" fill="white"/>
<path d="M118.621 37.9702H111.71V48.7444H118.621V37.9702Z" fill="#263238"/>
<path d="M194.902 48.6554H103.748V226.115H194.902V48.6554Z" fill="white" stroke="#263238" stroke-miterlimit="10"/>
<path d="M182.046 50.9032H105.643V223.413H182.046V50.9032Z" fill="#263238" stroke="#263238" stroke-linecap="round" stroke-linejoin="round"/>
<path d="M182.046 77.6582H105.643V80.2023H182.046V77.6582Z" fill="white" stroke="#263238" stroke-miterlimit="10"/>
<path d="M182.046 107.071H105.643V109.615H182.046V107.071Z" fill="white" stroke="#263238" stroke-miterlimit="10"/>
<path d="M157.423 50.9327H155.8V77.6532H157.423V50.9327Z" fill="white" stroke="#263238" stroke-miterlimit="10"/>
<path d="M131.449 50.9327H129.825V77.6532H131.449V50.9327Z" fill="white" stroke="#263238" stroke-miterlimit="10"/>
<path d="M157.423 109.645H155.8V136.365H157.423V109.645Z" fill="white" stroke="#263238" stroke-miterlimit="10"/>
<path d="M131.449 109.645H129.825V136.365H131.449V109.645Z" fill="white" stroke="#263238" stroke-miterlimit="10"/>
<path d="M144.309 80.3456H142.686V107.066H144.309V80.3456Z" fill="white" stroke="#263238" stroke-miterlimit="10"/>
<path d="M182.046 136.37H105.643V138.914H182.046V136.37Z" fill="white" stroke="#263238" stroke-miterlimit="10"/>
<path d="M182.046 165.684H105.643V224.312H182.046V165.684Z" fill="white" stroke="#263238" stroke-miterlimit="10"/>
<path d="M144.309 138.959H142.686V165.679H144.309V138.959Z" fill="white" stroke="#263238" stroke-miterlimit="10"/>
<path d="M183.918 48.6406V226.076L194.907 226.115V48.6406H183.918Z" fill="#263238" stroke="#263238" stroke-linecap="round" stroke-linejoin="round"/>
<path d="M162.472 53.0076H158.549V77.5939H162.472V53.0076Z" fill="white" stroke="#263238" stroke-miterlimit="10"/>
<path d="M162.472 72.3131H158.549V74.3286H162.472V72.3131Z" fill="white" stroke="#263238" stroke-miterlimit="10"/>
<path d="M162.472 55.5023H158.549V57.5178H162.472V55.5023Z" fill="white" stroke="#263238" stroke-miterlimit="10"/>
<path d="M166.483 53.0076H162.561V77.5939H166.483V53.0076Z" fill="white" stroke="#263238" stroke-miterlimit="10"/>
<path d="M166.483 72.3131H162.561V74.3286H166.483V72.3131Z" fill="white" stroke="#263238" stroke-miterlimit="10"/>
<path d="M166.483 55.5023H162.561V57.5178H166.483V55.5023Z" fill="white" stroke="#263238" stroke-miterlimit="10"/>
<path d="M170.499 53.0076H166.577V77.5939H170.499V53.0076Z" fill="white" stroke="#263238" stroke-miterlimit="10"/>
<path d="M170.499 72.3131H166.577V74.3286H170.499V72.3131Z" fill="white" stroke="#263238" stroke-miterlimit="10"/>
<path d="M170.499 55.5023H166.577V57.5178H170.499V55.5023Z" fill="white" stroke="#263238" stroke-miterlimit="10"/>
<path d="M174.511 53.0076H170.589V77.5939H174.511V53.0076Z" fill="white" stroke="#263238" stroke-miterlimit="10"/>
<path d="M181.047 53.0076H174.478V77.5939H181.047V53.0076Z" fill="white" stroke="#263238" stroke-miterlimit="10"/>
<path d="M174.511 72.3131H170.589V74.3286H174.511V72.3131Z" fill="white" stroke="#263238" stroke-miterlimit="10"/>
<path d="M174.511 55.5023H170.589V57.5178H174.511V55.5023Z" fill="white" stroke="#263238" stroke-miterlimit="10"/>
<path d="M136.23 53.0076H132.307V77.5939H136.23V53.0076Z" fill="white" stroke="#263238" stroke-miterlimit="10"/>
<path d="M136.23 72.3131H132.307V74.3286H136.23V72.3131Z" fill="white" stroke="#263238" stroke-miterlimit="10"/>
<path d="M136.23 55.5023H132.307V57.5178H136.23V55.5023Z" fill="white" stroke="#263238" stroke-miterlimit="10"/>
<path d="M140.241 53.0076H136.319V77.5939H140.241V53.0076Z" fill="white" stroke="#263238" stroke-miterlimit="10"/>
<path d="M140.241 72.3131H136.319V74.3286H140.241V72.3131Z" fill="white" stroke="#263238" stroke-miterlimit="10"/>
<path d="M140.241 55.5023H136.319V57.5178H140.241V55.5023Z" fill="white" stroke="#263238" stroke-miterlimit="10"/>
<path d="M144.258 53.0076H140.335V77.5939H144.258V53.0076Z" fill="white" stroke="#263238" stroke-miterlimit="10"/>
<path d="M144.258 72.3131H140.335V74.3286H144.258V72.3131Z" fill="white" stroke="#263238" stroke-miterlimit="10"/>
<path d="M144.258 55.5023H140.335V57.5178H144.258V55.5023Z" fill="white" stroke="#263238" stroke-miterlimit="10"/>
<path d="M148.269 53.0076H144.347V77.5939H148.269V53.0076Z" fill="white" stroke="#263238" stroke-miterlimit="10"/>
<path d="M154.805 53.0076H148.236V77.5939H154.805V53.0076Z" fill="white" stroke="#263238" stroke-miterlimit="10"/>
<path d="M148.269 72.3131H144.347V74.3286H148.269V72.3131Z" fill="white" stroke="#263238" stroke-miterlimit="10"/>
<path d="M148.269 55.5023H144.347V57.5178H148.269V55.5023Z" fill="white" stroke="#263238" stroke-miterlimit="10"/>
<path d="M136.23 111.808H132.307V136.395H136.23V111.808Z" fill="white" stroke="#263238" stroke-miterlimit="10"/>
<path d="M136.23 131.114H132.307V133.129H136.23V131.114Z" fill="white" stroke="#263238" stroke-miterlimit="10"/>
<path d="M136.23 114.308H132.307V116.324H136.23V114.308Z" fill="white" stroke="#263238" stroke-miterlimit="10"/>
<path d="M140.241 111.808H136.319V136.395H140.241V111.808Z" fill="white" stroke="#263238" stroke-miterlimit="10"/>
<path d="M140.241 131.114H136.319V133.129H140.241V131.114Z" fill="white" stroke="#263238" stroke-miterlimit="10"/>
<path d="M140.241 114.308H136.319V116.324H140.241V114.308Z" fill="white" stroke="#263238" stroke-miterlimit="10"/>
<path d="M144.258 111.808H140.335V136.395H144.258V111.808Z" fill="white" stroke="#263238" stroke-miterlimit="10"/>
<path d="M144.258 131.114H140.335V133.129H144.258V131.114Z" fill="white" stroke="#263238" stroke-miterlimit="10"/>
<path d="M144.258 114.308H140.335V116.324H144.258V114.308Z" fill="white" stroke="#263238" stroke-miterlimit="10"/>
<path d="M148.269 111.808H144.347V136.395H148.269V111.808Z" fill="white" stroke="#263238" stroke-miterlimit="10"/>
<path d="M154.805 111.808H148.236V136.395H154.805V111.808Z" fill="white" stroke="#263238" stroke-miterlimit="10"/>
<path d="M148.269 131.114H144.347V133.129H148.269V131.114Z" fill="white" stroke="#263238" stroke-miterlimit="10"/>
<path d="M148.269 114.308H144.347V116.324H148.269V114.308Z" fill="white" stroke="#263238" stroke-miterlimit="10"/>
<path d="M162.134 111.808H158.211V136.395H162.134V111.808Z" fill="white" stroke="#263238" stroke-miterlimit="10"/>
<path d="M162.134 131.114H158.211V133.129H162.134V131.114Z" fill="white" stroke="#263238" stroke-miterlimit="10"/>
<path d="M162.134 114.308H158.211V116.324H162.134V114.308Z" fill="white" stroke="#263238" stroke-miterlimit="10"/>
<path d="M166.15 111.808H162.228V136.395H166.15V111.808Z" fill="white" stroke="#263238" stroke-miterlimit="10"/>
<path d="M166.15 131.114H162.228V133.129H166.15V131.114Z" fill="white" stroke="#263238" stroke-miterlimit="10"/>
<path d="M166.15 114.308H162.228V116.324H166.15V114.308Z" fill="white" stroke="#263238" stroke-miterlimit="10"/>
<path d="M170.162 111.808H166.239V136.395H170.162V111.808Z" fill="white" stroke="#263238" stroke-miterlimit="10"/>
<path d="M170.162 131.114H166.239V133.129H170.162V131.114Z" fill="white" stroke="#263238" stroke-miterlimit="10"/>
<path d="M170.162 114.308H166.239V116.324H170.162V114.308Z" fill="white" stroke="#263238" stroke-miterlimit="10"/>
<path d="M174.178 111.808H170.255V136.395H174.178V111.808Z" fill="white" stroke="#263238" stroke-miterlimit="10"/>
<path d="M180.709 111.808H174.14V136.395H180.709V111.808Z" fill="white" stroke="#263238" stroke-miterlimit="10"/>
<path d="M174.178 131.114H170.255V133.129H174.178V131.114Z" fill="white" stroke="#263238" stroke-miterlimit="10"/>
<path d="M174.178 114.308H170.255V116.324H174.178V114.308Z" fill="white" stroke="#263238" stroke-miterlimit="10"/>
<path d="M110.49 111.808H106.568V136.395H110.49V111.808Z" fill="white" stroke="#263238" stroke-miterlimit="10"/>
<path d="M110.49 131.114H106.568V133.129H110.49V131.114Z" fill="white" stroke="#263238" stroke-miterlimit="10"/>
<path d="M110.49 114.308H106.568V116.324H110.49V114.308Z" fill="white" stroke="#263238" stroke-miterlimit="10"/>
<path d="M114.506 111.808H110.584V136.395H114.506V111.808Z" fill="white" stroke="#263238" stroke-miterlimit="10"/>
<path d="M114.506 131.114H110.584V133.129H114.506V131.114Z" fill="white" stroke="#263238" stroke-miterlimit="10"/>
<path d="M114.506 114.308H110.584V116.324H114.506V114.308Z" fill="white" stroke="#263238" stroke-miterlimit="10"/>
<path d="M118.518 111.808H114.595V136.395H118.518V111.808Z" fill="white" stroke="#263238" stroke-miterlimit="10"/>
<path d="M118.518 131.114H114.595V133.129H118.518V131.114Z" fill="white" stroke="#263238" stroke-miterlimit="10"/>
<path d="M118.518 114.308H114.595V116.324H118.518V114.308Z" fill="white" stroke="#263238" stroke-miterlimit="10"/>
<path d="M122.534 111.808H118.612V136.395H122.534V111.808Z" fill="white" stroke="#263238" stroke-miterlimit="10"/>
<path d="M129.065 111.808H122.497V136.395H129.065V111.808Z" fill="white" stroke="#263238" stroke-miterlimit="10"/>
<path d="M122.534 131.114H118.612V133.129H122.534V131.114Z" fill="white" stroke="#263238" stroke-miterlimit="10"/>
<path d="M122.534 114.308H118.612V116.324H122.534V114.308Z" fill="white" stroke="#263238" stroke-miterlimit="10"/>
<path d="M109.988 53.0076H106.066V77.5939H109.988V53.0076Z" fill="white" stroke="#263238" stroke-miterlimit="10"/>
<path d="M109.988 72.3131H106.066V74.3286H109.988V72.3131Z" fill="white" stroke="#263238" stroke-miterlimit="10"/>
<path d="M109.988 55.5023H106.066V57.5178H109.988V55.5023Z" fill="white" stroke="#263238" stroke-miterlimit="10"/>
<path d="M114 53.0076H110.077V77.5939H114V53.0076Z" fill="white" stroke="#263238" stroke-miterlimit="10"/>
<path d="M114 72.3131H110.077V74.3286H114V72.3131Z" fill="white" stroke="#263238" stroke-miterlimit="10"/>
<path d="M114 55.5023H110.077V57.5178H114V55.5023Z" fill="white" stroke="#263238" stroke-miterlimit="10"/>
<path d="M118.016 53.0076H114.094V77.5939H118.016V53.0076Z" fill="white" stroke="#263238" stroke-miterlimit="10"/>
<path d="M118.016 72.3131H114.094V74.3286H118.016V72.3131Z" fill="white" stroke="#263238" stroke-miterlimit="10"/>
<path d="M118.016 55.5023H114.094V57.5178H118.016V55.5023Z" fill="white" stroke="#263238" stroke-miterlimit="10"/>
<path d="M122.027 53.0076H118.105V77.5939H122.027V53.0076Z" fill="white" stroke="#263238" stroke-miterlimit="10"/>
<path d="M128.563 53.0076H121.995V77.5939H128.563V53.0076Z" fill="white" stroke="#263238" stroke-miterlimit="10"/>
<path d="M122.027 72.3131H118.105V74.3286H122.027V72.3131Z" fill="white" stroke="#263238" stroke-miterlimit="10"/>
<path d="M122.027 55.5023H118.105V57.5178H122.027V55.5023Z" fill="white" stroke="#263238" stroke-miterlimit="10"/>
<path d="M121.596 82.3068H117.673V106.893H121.596V82.3068Z" fill="white" stroke="#263238" stroke-miterlimit="10"/>
<path d="M121.596 101.612H117.673V103.628H121.596V101.612Z" fill="white" stroke="#263238" stroke-miterlimit="10"/>
<path d="M121.596 84.8064H117.673V86.8219H121.596V84.8064Z" fill="white" stroke="#263238" stroke-miterlimit="10"/>
<path d="M117.725 82.3068H113.802V106.893H117.725V82.3068Z" fill="white" stroke="#263238" stroke-miterlimit="10"/>
<path d="M117.725 101.612H113.802V103.628H117.725V101.612Z" fill="white" stroke="#263238" stroke-miterlimit="10"/>
<path d="M117.725 84.8064H113.802V86.8219H117.725V84.8064Z" fill="white" stroke="#263238" stroke-miterlimit="10"/>
<path d="M113.854 82.3068H109.932V106.893H113.854V82.3068Z" fill="white" stroke="#263238" stroke-miterlimit="10"/>
<path d="M113.854 101.612H109.932V103.628H113.854V101.612Z" fill="white" stroke="#263238" stroke-miterlimit="10"/>
<path d="M113.854 84.8064H109.932V86.8219H113.854V84.8064Z" fill="white" stroke="#263238" stroke-miterlimit="10"/>
<path d="M109.988 82.3068H106.066V106.893H109.988V82.3068Z" fill="white" stroke="#263238" stroke-miterlimit="10"/>
<path d="M109.988 101.612H106.066V103.628H109.988V101.612Z" fill="white" stroke="#263238" stroke-miterlimit="10"/>
<path d="M109.988 84.8064H106.066V86.8219H109.988V84.8064Z" fill="white" stroke="#263238" stroke-miterlimit="10"/>
<path d="M125.607 82.3068H121.685V106.893H125.607V82.3068Z" fill="white" stroke="#263238" stroke-miterlimit="10"/>
<path d="M125.607 101.612H121.685V103.628H125.607V101.612Z" fill="white" stroke="#263238" stroke-miterlimit="10"/>
<path d="M125.607 84.8064H121.685V86.8219H125.607V84.8064Z" fill="white" stroke="#263238" stroke-miterlimit="10"/>
<path d="M129.619 82.3068H125.697V106.893H129.619V82.3068Z" fill="white" stroke="#263238" stroke-miterlimit="10"/>
<path d="M129.619 101.612H125.697V103.628H129.619V101.612Z" fill="white" stroke="#263238" stroke-miterlimit="10"/>
<path d="M129.619 84.8064H125.697V86.8219H129.619V84.8064Z" fill="white" stroke="#263238" stroke-miterlimit="10"/>
<path d="M133.635 82.3068H129.713V106.893H133.635V82.3068Z" fill="white" stroke="#263238" stroke-miterlimit="10"/>
<path d="M140.171 82.3068H133.602V106.893H140.171V82.3068Z" fill="white" stroke="#263238" stroke-miterlimit="10"/>
<path d="M133.635 101.612H129.713V103.628H133.635V101.612Z" fill="white" stroke="#263238" stroke-miterlimit="10"/>
<path d="M133.635 84.8064H129.713V86.8219H133.635V84.8064Z" fill="white" stroke="#263238" stroke-miterlimit="10"/>
<path d="M149.484 82.3068H145.562V106.893H149.484V82.3068Z" fill="white" stroke="#263238" stroke-miterlimit="10"/>
<path d="M149.484 101.612H145.562V103.628H149.484V101.612Z" fill="white" stroke="#263238" stroke-miterlimit="10"/>
<path d="M149.484 84.8064H145.562V86.8219H149.484V84.8064Z" fill="white" stroke="#263238" stroke-miterlimit="10"/>
<path d="M153.501 82.3068H149.578V106.893H153.501V82.3068Z" fill="white" stroke="#263238" stroke-miterlimit="10"/>
<path d="M153.501 101.612H149.578V103.628H153.501V101.612Z" fill="white" stroke="#263238" stroke-miterlimit="10"/>
<path d="M153.501 84.8064H149.578V86.8219H153.501V84.8064Z" fill="white" stroke="#263238" stroke-miterlimit="10"/>
<path d="M161.531 82.3007L157.875 83.9263L167.071 106.859L170.727 105.233L161.531 82.3007Z" fill="white" stroke="#263238" stroke-miterlimit="10"/>
<path d="M168.753 100.305L165.096 101.931L165.85 103.811L169.507 102.185L168.753 100.305Z" fill="white" stroke="#263238" stroke-miterlimit="10"/>
<path d="M162.468 84.6313L158.811 86.2568L159.565 88.1364L163.221 86.5108L162.468 84.6313Z" fill="white" stroke="#263238" stroke-miterlimit="10"/>
<path d="M167.074 106.849H175.262L178.945 105.233L170.729 105.223L167.074 106.849Z" fill="white" stroke="#263238" stroke-miterlimit="10"/>
<path d="M161.533 82.2919H169.223L178.945 105.233L170.729 105.223L161.533 82.2919Z" fill="white" stroke="#263238" stroke-miterlimit="10"/>
<path d="M157.371 82.3068H153.449V106.893H157.371V82.3068Z" fill="white" stroke="#263238" stroke-miterlimit="10"/>
<path d="M157.371 101.612H153.449V103.628H157.371V101.612Z" fill="white" stroke="#263238" stroke-miterlimit="10"/>
<path d="M157.371 84.8064H153.449V86.8219H157.371V84.8064Z" fill="white" stroke="#263238" stroke-miterlimit="10"/>
<path d="M157.372 82.3068H161.533L157.874 83.9172L167.074 106.849H157.372V82.3068Z" fill="white" stroke="#263238" stroke-miterlimit="10"/>
<path d="M121.596 141.004H117.673V165.59H121.596V141.004Z" fill="white" stroke="#263238" stroke-miterlimit="10"/>
<path d="M121.596 160.309H117.673V162.325H121.596V160.309Z" fill="white" stroke="#263238" stroke-miterlimit="10"/>
<path d="M121.596 143.499H117.673V145.514H121.596V143.499Z" fill="white" stroke="#263238" stroke-miterlimit="10"/>
<path d="M117.725 141.004H113.802V165.59H117.725V141.004Z" fill="white" stroke="#263238" stroke-miterlimit="10"/>
<path d="M117.725 160.309H113.802V162.325H117.725V160.309Z" fill="white" stroke="#263238" stroke-miterlimit="10"/>
<path d="M117.725 143.499H113.802V145.514H117.725V143.499Z" fill="white" stroke="#263238" stroke-miterlimit="10"/>
<path d="M113.854 141.004H109.932V165.59H113.854V141.004Z" fill="white" stroke="#263238" stroke-miterlimit="10"/>
<path d="M113.854 160.309H109.932V162.325H113.854V160.309Z" fill="white" stroke="#263238" stroke-miterlimit="10"/>
<path d="M113.854 143.499H109.932V145.514H113.854V143.499Z" fill="white" stroke="#263238" stroke-miterlimit="10"/>
<path d="M109.988 141.004H106.066V165.59H109.988V141.004Z" fill="white" stroke="#263238" stroke-miterlimit="10"/>
<path d="M109.988 160.309H106.066V162.325H109.988V160.309Z" fill="white" stroke="#263238" stroke-miterlimit="10"/>
<path d="M109.988 143.499H106.066V145.514H109.988V143.499Z" fill="white" stroke="#263238" stroke-miterlimit="10"/>
<path d="M125.607 141.004H121.685V165.59H125.607V141.004Z" fill="white" stroke="#263238" stroke-miterlimit="10"/>
<path d="M125.607 160.309H121.685V162.325H125.607V160.309Z" fill="white" stroke="#263238" stroke-miterlimit="10"/>
<path d="M125.607 143.499H121.685V145.514H125.607V143.499Z" fill="white" stroke="#263238" stroke-miterlimit="10"/>
<path d="M129.619 141.004H125.697V165.59H129.619V141.004Z" fill="white" stroke="#263238" stroke-miterlimit="10"/>
<path d="M129.619 160.309H125.697V162.325H129.619V160.309Z" fill="white" stroke="#263238" stroke-miterlimit="10"/>
<path d="M129.619 143.499H125.697V145.514H129.619V143.499Z" fill="white" stroke="#263238" stroke-miterlimit="10"/>
<path d="M133.635 141.004H129.713V165.59H133.635V141.004Z" fill="white" stroke="#263238" stroke-miterlimit="10"/>
<path d="M140.171 141.004H133.602V165.59H140.171V141.004Z" fill="white" stroke="#263238" stroke-miterlimit="10"/>
<path d="M133.635 160.309H129.713V162.325H133.635V160.309Z" fill="white" stroke="#263238" stroke-miterlimit="10"/>
<path d="M133.635 143.499H129.713V145.514H133.635V143.499Z" fill="white" stroke="#263238" stroke-miterlimit="10"/>
<path d="M149.484 141.004H145.562V165.59H149.484V141.004Z" fill="white" stroke="#263238" stroke-miterlimit="10"/>
<path d="M149.484 160.309H145.562V162.325H149.484V160.309Z" fill="white" stroke="#263238" stroke-miterlimit="10"/>
<path d="M149.484 143.499H145.562V145.514H149.484V143.499Z" fill="white" stroke="#263238" stroke-miterlimit="10"/>
<path d="M153.501 141.004H149.578V165.59H153.501V141.004Z" fill="white" stroke="#263238" stroke-miterlimit="10"/>
<path d="M153.501 160.309H149.578V162.325H153.501V160.309Z" fill="white" stroke="#263238" stroke-miterlimit="10"/>
<path d="M153.501 143.499H149.578V145.514H153.501V143.499Z" fill="white" stroke="#263238" stroke-miterlimit="10"/>
<path d="M161.528 140.995L157.871 142.62L167.067 165.553L170.724 163.927L161.528 140.995Z" fill="white" stroke="#263238" stroke-miterlimit="10"/>
<path d="M168.657 158.563L165.005 160.193L165.761 162.07L169.413 160.44L168.657 158.563Z" fill="white" stroke="#263238" stroke-width="0.99925" stroke-miterlimit="10"/>
<path d="M162.464 143.325L158.807 144.951L159.561 146.83L163.218 145.205L162.464 143.325Z" fill="white" stroke="#263238" stroke-miterlimit="10"/>
<path d="M167.074 165.546H175.262L178.945 163.93L170.729 163.916L167.074 165.546Z" fill="white" stroke="#263238" stroke-miterlimit="10"/>
<path d="M161.533 140.984H169.223L178.945 163.93L170.729 163.915L161.533 140.984Z" fill="white" stroke="#263238" stroke-miterlimit="10"/>
<path d="M157.371 141.004H153.449V165.59H157.371V141.004Z" fill="white" stroke="#263238" stroke-miterlimit="10"/>
<path d="M157.371 160.309H153.449V162.325H157.371V160.309Z" fill="white" stroke="#263238" stroke-miterlimit="10"/>
<path d="M157.371 143.499H153.449V145.514H157.371V143.499Z" fill="white" stroke="#263238" stroke-miterlimit="10"/>
<path d="M157.372 141.004H161.533L157.874 142.609L167.074 165.546H157.372V141.004Z" fill="white" stroke="#263238" stroke-miterlimit="10"/>
<path d="M142.686 165.679V223.329" stroke="#263238" stroke-miterlimit="10"/>
<path d="M106.263 172.817H182.027" stroke="#263238" stroke-miterlimit="10"/>
<path d="M121.812 177.693V188.146" stroke="#263238" stroke-width="2" stroke-miterlimit="10"/>
<path d="M125.119 177.693V188.146" stroke="#263238" stroke-width="2" stroke-miterlimit="10"/>
<path d="M159.863 177.693V188.146" stroke="#263238" stroke-width="2" stroke-miterlimit="10"/>
<path d="M163.171 177.693V188.146" stroke="#263238" stroke-width="2" stroke-miterlimit="10"/>
<path d="M203.146 49.5743V31.8496H227.628" stroke="#263238" stroke-miterlimit="10"/>
<path d="M229.43 31.8496H239.743V75.8156H203.146V52.2617" stroke="#263238" stroke-miterlimit="10"/>
<path d="M226.427 69.8876H208.077V37.7776H234.807V69.8876H228.529" stroke="#263238" stroke-miterlimit="10"/>
<path d="M226.582 47.6576H216.302V60.0076H226.582V47.6576Z" stroke="#263238" stroke-miterlimit="10"/>
<path d="M242.994 70.0655V59.0098H258.266" stroke="#263238" stroke-miterlimit="10"/>
<path d="M259.388 59.0098H265.82V86.4317H242.994V71.7401" stroke="#263238" stroke-miterlimit="10"/>
<path d="M257.516 82.7365H246.072V62.7048H262.742V82.7365H258.825" stroke="#263238" stroke-miterlimit="10"/>
<path d="M257.614 68.87H251.2V76.5715H257.614V68.87Z" stroke="#263238" stroke-miterlimit="10"/>
<path d="M1 226.115H265.623" stroke="#263238" stroke-linecap="round" stroke-linejoin="round"/>
<path d="M19.7678 156.955C19.7678 156.955 16.9526 117.435 18.3602 112.989C19.7678 108.543 28.4478 108.79 30.0899 108.79C31.7321 108.79 65.9829 108.79 70.9094 111.26C75.8359 113.73 76.5397 174.492 76.5397 174.492H22.1137L19.7678 156.955Z" fill="#263238" stroke="#263238" stroke-miterlimit="10"/>
<path d="M78.4117 153.744C78.4117 153.744 72.7814 153.744 71.6554 159.672C70.5293 165.6 74.9631 190.053 75.2916 196.969C75.62 203.885 76.7742 213.518 76.7742 213.518H96.7148L101.172 153.744H78.4117Z" fill="#263238" stroke="#263238" stroke-miterlimit="10"/>
<path d="M101.172 153.744C101.172 153.744 95.5419 153.744 94.1344 159.672C92.7268 165.6 96.0111 190.053 96.0111 196.969C96.0111 203.885 96.7149 213.518 96.7149 213.518H103.753C103.753 213.518 104.457 195.734 104.457 193.264C104.457 190.794 107.272 165.106 105.864 159.919C104.457 154.732 103.284 154.238 101.172 153.744Z" fill="#636363" stroke="#263238" stroke-miterlimit="10"/>
<path d="M41.7023 111.384C41.7023 111.384 23.052 119.411 23.052 120.276C23.052 121.14 29.3861 144.358 31.732 147.94C34.078 151.521 35.7201 155.473 36.4239 156.955C37.1277 158.437 40.1774 162.142 42.6407 162.142C45.1039 162.142 48.0363 159.055 55.8953 157.82C63.7542 156.585 70.792 156.708 72.1996 155.597C73.6072 154.485 71.8477 151.521 71.6131 150.904C71.3785 150.286 70.4401 148.063 70.4401 148.063C70.4401 148.063 78.0645 154.732 81.1142 154.979C84.1639 155.226 86.3926 153.621 86.8618 151.521C87.331 149.422 85.5715 144.358 84.3985 141.641C83.2255 138.924 77.7126 134.602 75.2493 131.267C72.7861 127.933 69.6191 123.981 67.3904 121.264C65.4483 118.872 63.0506 116.936 60.3526 115.583C58.2412 114.595 52.8455 112.125 49.4439 111.754C46.0423 111.384 41.7023 111.384 41.7023 111.384Z" fill="white" stroke="#263238" stroke-miterlimit="10"/>
<path d="M78.2569 140.322C78.2569 140.322 75.6013 148.063 76.5396 150.039C77.478 152.015 79.9788 152.672 79.9788 152.672" stroke="#263238" stroke-miterlimit="10"/>
<path d="M38.8872 113.977L54.3705 129.785L56.7164 117.929" stroke="#263238" stroke-miterlimit="10"/>
<path d="M79.003 141.271C79.003 141.271 82.7565 144.111 84.0467 143.123C85.337 142.135 84.9851 140.283 84.164 138.307C83.343 136.331 80.6451 135.219 79.5895 136.084C78.5338 136.948 78.1819 140.406 79.003 141.271Z" fill="white" stroke="#263238" stroke-miterlimit="10"/>
<path d="M40.5293 106.197L41.1158 113.607L53.5493 126.451L55.4261 117.312L56.2471 113.483C56.2471 113.483 48.1536 112.001 45.5731 110.149C42.9925 108.296 40.5293 106.197 40.5293 106.197Z" fill="white" stroke="#263238" stroke-miterlimit="10"/>
<path d="M56.2471 113.483C56.2471 113.483 48.1536 112.001 45.5731 110.149C42.9925 108.296 40.5293 106.197 40.5293 106.197L41.1158 113.607L44.2594 116.852C46.7038 117.578 49.1389 117.929 50.7952 117.257C52.633 116.554 54.3895 115.634 56.0313 114.516L56.2471 113.483Z" fill="#263238" stroke="#263238" stroke-miterlimit="10"/>
<path d="M36.8134 100.476C36.8134 100.476 34.6223 89.9341 34.6223 88.1261C34.6223 86.3181 40.5669 77.0902 48.698 78.5722C56.8291 80.0542 61.3661 84.9942 61.6805 86.4761C61.9948 87.9581 60.7421 90.9221 60.7421 90.9221C60.9896 91.7808 61.147 92.6654 61.2113 93.5601C61.2113 94.5481 59.8037 98.8261 59.8037 98.8261L59.3345 94.3801C59.3345 94.3801 55.4262 95.5361 53.2351 95.5361C51.044 95.5361 47.2904 94.0541 47.2904 94.0541C47.2904 94.0541 48.074 96.6871 47.2904 98.0061C46.5069 99.3251 44.1656 100.476 44.1656 100.476C44.1656 100.476 43.8513 103.109 42.9129 103.109C41.7553 103.047 40.6048 102.882 39.4737 102.615C38.845 102.452 36.8134 100.476 36.8134 100.476Z" fill="#263238" stroke="#263238" stroke-miterlimit="10"/>
<path d="M40.412 101.627C40.412 101.627 40.0977 97.6751 36.9682 98.6631C33.8387 99.6511 35.875 103.272 37.5969 105.085C39.3188 106.898 39.7833 105.579 39.7833 105.579C39.7833 105.579 40.2525 109.368 42.5984 111.507C44.9444 113.646 48.5431 117.598 52.2966 117.104C56.0501 116.61 58.7104 111.67 59.1796 108.049C59.6488 104.428 59.9585 95.8621 59.9585 94.8741C59.8454 93.7598 59.6365 92.6586 59.3344 91.5841C59.3344 91.5841 56.0501 94.0541 53.0801 93.3921C50.1102 92.7302 46.9807 91.4161 45.5731 91.4161C44.1655 91.4161 44.4752 93.5601 44.9444 94.2171C45.4136 94.8741 46.6663 96.1931 45.2587 97.0181C43.8512 97.8431 41.9744 98.6631 41.9744 98.6631V102.121L40.412 101.627Z" fill="white" stroke="#263238" stroke-miterlimit="10"/>
<path d="M55.3745 99.829L54.605 108.756L50.7529 107.58" stroke="#263238" stroke-miterlimit="10"/>
<path d="M52.1231 108.301C52.1231 108.301 50.2464 108.301 49.2142 108.395C48.5941 108.503 47.9641 108.533 47.3374 108.484C46.9104 108.395 46.399 108.034 47.2529 108.933C48.1069 109.832 50.678 110.909 52.0481 111.097C53.4181 111.285 54.3612 110.825 55.384 110.109C56.4068 109.393 57.2608 108.667 56.754 108.489C56.048 108.356 55.3316 108.295 54.6145 108.306V108.76L52.1231 108.301Z" fill="#263238" stroke="#263238" stroke-miterlimit="10"/>
<path d="M49.4253 102.892C49.7336 102.892 49.9836 102.348 49.9836 101.677C49.9836 101.005 49.7336 100.461 49.4253 100.461C49.1169 100.461 48.8669 101.005 48.8669 101.677C48.8669 102.348 49.1169 102.892 49.4253 102.892Z" fill="#263238"/>
<path d="M57.7721 101.499C57.7721 102.171 57.5235 102.714 57.2185 102.714C56.9135 102.714 56.6602 102.171 56.6602 101.499C56.6602 100.827 56.9088 100.279 57.2185 100.279C57.5282 100.279 57.7721 100.827 57.7721 101.499Z" fill="#263238"/>
<path d="M47.3279 99.8289C47.3279 99.8289 49.641 98.1147 51.5224 98.8409" stroke="#263238" stroke-miterlimit="10"/>
<path d="M55.8062 98.9299C55.8062 98.9299 58.2037 97.7542 59.2312 98.8361" stroke="#263238" stroke-miterlimit="10"/>
<path d="M50.9267 103.909C50.9267 103.909 50.4105 104.542 48.698 105.08" stroke="#263238" stroke-miterlimit="10"/>
<path d="M55.6326 103.524C56.1392 103.892 56.6858 104.196 57.2607 104.428" stroke="#263238" stroke-miterlimit="10"/>
<path d="M62.9331 126.945L63.7542 124.722C63.7542 124.722 64.8099 125.833 67.625 125.833C70.4401 125.833 75.0147 127.933 75.0147 127.933L75.3666 128.55C75.3666 128.55 76.1877 125.957 77.7126 125.463C79.2374 124.969 81.7007 123.24 82.0526 122.746L82.4045 122.252L84.0466 123.734L76.7742 133.861L63.1677 128.303L62.9331 126.945Z" fill="white" stroke="#263238" stroke-miterlimit="10"/>
<path d="M63.0504 126.08L59.5315 145.717L71.7304 148.681L76.1877 129.662L63.0504 126.08Z" fill="white" stroke="#263238" stroke-miterlimit="10"/>
<path d="M76.1878 129.662L84.0467 123.734L79.3548 142.753L71.7305 148.681L76.1878 129.662Z" fill="white" stroke="#263238" stroke-miterlimit="10"/>
<path d="M47.9192 142.135L53.2351 139.828C53.2351 139.828 57.927 134.562 58.3962 134.068C58.8654 133.574 63.5573 133.08 63.5573 133.08L68.7184 136.701C68.7184 136.701 69.6567 137.526 68.7184 137.852C67.78 138.178 65.7484 137.195 65.7484 137.195L63.7121 135.876L62.4641 136.538L65.1197 138.84C65.1197 138.84 65.9032 140.984 65.9032 142.135C65.8888 142.875 65.7291 143.603 65.434 144.274L63.8716 146.581L59.1797 144.111C59.1797 144.111 56.3646 146.25 55.7359 146.581C55.1072 146.912 49.1672 146.418 49.1672 146.418L47.9192 142.135Z" fill="white" stroke="#263238" stroke-miterlimit="10"/>
<path d="M59.1375 136.365L60.7984 136.034L62.2247 136.449" stroke="#263238" stroke-miterlimit="10"/>
<path d="M57.5562 139.616C57.5562 139.616 61.2721 138.529 61.5114 138.529C61.7507 138.529 64.5189 141.528 64.5189 141.528L64.8333 144.778" stroke="#263238" stroke-miterlimit="10"/>
<path d="M57.7158 141.695L60.7186 141.779L63.4868 143.696C63.7677 144.628 63.8977 145.604 63.8716 146.581" stroke="#263238" stroke-miterlimit="10"/>
<path d="M26.3364 117.929C26.3364 117.929 22.8926 118.423 22.4234 121.55C21.9542 124.677 18.8294 151.027 19.7677 153.991C20.7061 156.955 38.0661 151.852 38.6902 151.521C39.3142 151.19 49.1672 148.063 49.3267 147.406C49.4862 146.749 49.7959 141.31 48.3883 140.984C46.9807 140.658 33.5291 141.147 33.5291 141.147L31.6523 124.02" fill="white"/>
<path d="M26.3364 117.929C26.3364 117.929 22.8926 118.423 22.4234 121.55C21.9542 124.677 18.8294 151.027 19.7677 153.991C20.7061 156.955 38.0661 151.852 38.6902 151.521C39.3142 151.19 49.1672 148.063 49.3267 147.406C49.4862 146.749 49.7959 141.31 48.3883 140.984C46.9807 140.658 33.5291 141.147 33.5291 141.147L31.6523 124.02" stroke="#263238" stroke-miterlimit="10"/>
<path d="M33.5291 141.147L25.2385 142.629" stroke="#263238" stroke-miterlimit="10"/>
<path d="M23.676 140.653L30.8687 141.641" stroke="#263238" stroke-miterlimit="10"/>
<path d="M81.9352 131.885C81.9352 131.885 78.7682 135.343 78.8855 136.207C79.0028 137.072 80.645 135.713 80.9969 135.343C81.3488 134.972 82.9909 133.984 82.9909 132.996C82.9909 132.008 82.639 130.897 81.9352 131.885Z" fill="white" stroke="#263238" stroke-miterlimit="10"/>
<path d="M82.2872 133.984C82.2872 133.984 83.2255 134.972 83.2255 135.837C83.2255 136.701 81.2315 139.542 80.2931 139.542C79.3547 139.542 80.0585 137.566 80.5277 136.701C80.9969 135.837 82.2872 133.984 82.2872 133.984Z" fill="white" stroke="#263238" stroke-miterlimit="10"/>
<path d="M83.2258 135.837C83.2258 135.837 84.3987 136.207 84.3987 137.319C84.3987 138.43 82.1701 140.283 81.5836 140.406C80.9971 140.53 81.1144 139.418 81.5836 138.554C82.0528 137.689 83.2258 135.837 83.2258 135.837Z" fill="white" stroke="#263238" stroke-miterlimit="10"/>
<path d="M84.3986 137.319C84.6389 137.945 84.7197 138.626 84.6332 139.295C84.5159 140.53 82.7565 141.271 82.17 141.271C81.5835 141.271 81.5835 140.406 81.5835 140.406C82.5762 139.433 83.516 138.403 84.3986 137.319V137.319Z" fill="white" stroke="#263238" stroke-miterlimit="10"/>
<path d="M47.5062 226.115H45.2775L44.1655 210.554H48.6228L47.5062 226.115Z" fill="white" stroke="#263238" stroke-miterlimit="10"/>
<path d="M27.0965 226.115H24.8678L23.7559 210.554H28.2132L27.0965 226.115Z" fill="white" stroke="#263238" stroke-miterlimit="10"/>
<path d="M100.759 226.115H98.5307L97.4187 210.554H101.876L100.759 226.115Z" fill="white" stroke="#263238" stroke-miterlimit="10"/>
<path d="M80.3494 226.115H78.1208L77.0088 210.554H81.4661L80.3494 226.115Z" fill="white" stroke="#263238" stroke-miterlimit="10"/>
<path d="M97.6532 180.781H44.4001V213.385H97.6532V180.781Z" fill="#263238" stroke="#263238" stroke-miterlimit="10"/>
<path d="M136.282 175.564C136.282 175.564 141.912 173.094 143.165 172.106C144.417 171.118 146.135 173.257 145.351 175.564C144.567 177.871 142.536 181.986 139.411 183.962C136.286 185.938 133.781 187.583 133.152 188.24C132.523 188.897 132.683 191.372 130.027 192.36C127.372 193.348 124.083 191.372 122.206 188.24C120.329 185.108 119.076 182.974 119.076 182.974C119.076 182.974 119.236 180.667 122.361 179.516C125.486 178.365 130.806 177.866 130.806 177.866L136.282 175.564Z" fill="white" stroke="#263238" stroke-miterlimit="10"/>
<path d="M72.1996 155.597C72.1996 155.597 75.9109 154.648 76.8492 155.142C77.7876 155.636 80.9171 158.768 80.9171 158.768C80.9171 158.768 99.8395 159.094 101.247 159.756C102.655 160.418 117.2 172.106 120.329 173.751C123.459 175.396 126.114 176.878 126.114 176.878L123.768 187.746V188.734L123.928 190.384C123.928 190.384 115.792 187.746 113.76 187.252C111.729 186.758 103.283 182.149 102.5 182.149C101.716 182.149 95.3072 180.173 95.3072 180.173C95.3072 180.173 94.3688 179.516 84.2014 178.528C74.0341 177.54 62.6187 176.384 58.5509 176.221C54.483 176.058 49.1671 175.727 47.1355 174.902C45.1039 174.077 41.5052 168.317 40.8812 164.859C40.2572 161.401 46.8211 158.437 49.6363 157.118C52.4514 155.799 62.9331 154.154 64.8098 154.154C66.6866 154.154 72.1996 155.597 72.1996 155.597Z" fill="white" stroke="#263238" stroke-miterlimit="10"/>
<path d="M75.7562 160.413L72.6267 165.19L76.8494 162.226" fill="white"/>
<path d="M75.7562 160.413L72.6267 165.19L76.8494 162.226" stroke="#263238" stroke-miterlimit="10"/>
<path d="M123.768 174.739C123.768 174.739 128.305 170.95 129.244 169.799C130.182 168.648 133.312 162.389 133.936 160.413C134.56 158.437 136.127 157.449 137.22 158.931C138.313 160.413 139.097 163.377 139.721 164.696C140.345 166.015 139.411 172.432 137.534 174.576C135.658 176.72 133.063 181.912 132.528 182.974C131.12 185.77 128.929 186.101 127.522 186.264C126.114 186.427 122.675 182.48 122.675 182.48L123.768 174.739Z" fill="white" stroke="#263238" stroke-miterlimit="10"/>
<path d="M54.1733 163.708C54.1733 163.708 58.8652 162.72 63.0879 163.214C67.3106 163.708 75.9108 166.504 79.5095 167.492C83.1082 168.48 89.5173 168.974 92.492 170.13C95.4666 171.286 103.283 172.763 109.223 172.763C115.163 172.763 124.237 173.588 124.237 173.588C124.237 173.588 122.989 183.137 123.299 184.95C123.608 186.409 124.026 187.84 124.552 189.228C124.552 189.228 112.508 190.216 109.068 190.71C105.629 191.204 91.7084 188.902 89.3625 188.24C87.0165 187.578 83.5774 186.595 81.3863 186.595C79.1952 186.595 74.9725 187.583 68.873 188.24C62.7735 188.897 54.1733 186.101 53.0801 185.938C51.9869 185.775 48.0738 184.288 47.1354 183.631C46.1971 182.974 40.7216 172.763 42.5984 168.48C44.4751 164.197 46.8211 163.54 46.8211 163.54" fill="white"/>
<path d="M54.1733 163.708C54.1733 163.708 58.8652 162.72 63.0879 163.214C67.3106 163.708 75.9108 166.504 79.5095 167.492C83.1082 168.48 89.5173 168.974 92.492 170.13C95.4666 171.286 103.283 172.763 109.223 172.763C115.163 172.763 124.237 173.588 124.237 173.588C124.237 173.588 122.989 183.137 123.299 184.95C123.608 186.409 124.026 187.84 124.552 189.228C124.552 189.228 112.508 190.216 109.068 190.71C105.629 191.204 91.7084 188.902 89.3625 188.24C87.0165 187.578 83.5774 186.595 81.3863 186.595C79.1952 186.595 74.9725 187.583 68.873 188.24C62.7735 188.897 54.1733 186.101 53.0801 185.938C51.9869 185.775 48.0738 184.288 47.1354 183.631C46.1971 182.974 40.7216 172.763 42.5984 168.48C44.4751 164.197 46.8211 163.54 46.8211 163.54" stroke="#263238" stroke-miterlimit="10"/>
<path d="M82.9441 180.321C85.961 180.954 89.1562 182.88 93.4774 184.664C99.2437 187.04 110.786 186.822 112.273 187.04C113.76 187.257 117.537 187.04 117.537 187.04" fill="white"/>
<path d="M82.9441 180.321C85.961 180.954 89.1562 182.88 93.4774 184.664C99.2437 187.04 110.786 186.822 112.273 187.04C113.76 187.257 117.537 187.04 117.537 187.04" stroke="#263238" stroke-miterlimit="10"/>
<path d="M59.6816 182.554L61.4036 182.816C66.4145 183.606 75.9484 180.707 79.9459 180.178" fill="white"/>
<path d="M59.6816 182.554L61.4036 182.816C66.4145 183.606 75.9484 180.707 79.9459 180.178" stroke="#263238" stroke-miterlimit="10"/>
<path d="M54.6379 182.026C54.6379 182.026 55.5388 182.026 57.8894 182.317Z" fill="white"/>
<path d="M54.6379 182.026C54.6379 182.026 55.5388 182.026 57.8894 182.317" stroke="#263238" stroke-miterlimit="10"/>
<path d="M24.2203 153.744C24.2203 153.744 18.5901 153.744 17.464 159.672C16.338 165.6 20.7483 190.053 21.1002 196.969C21.4521 203.885 22.5829 213.518 22.5829 213.518H42.5234L46.9807 153.744H24.2203Z" fill="#263238" stroke="#263238" stroke-miterlimit="10"/>
<path d="M46.9808 153.744C46.9808 153.744 41.3505 153.744 39.943 159.672C38.5354 165.6 41.8197 190.053 41.8197 196.969C41.8197 203.885 42.5235 213.518 42.5235 213.518H49.5614C49.5614 213.518 50.2651 195.734 50.2651 193.264C50.2651 190.794 53.0803 165.106 51.6727 159.919C50.2651 154.732 49.0922 154.238 46.9808 153.744Z" fill="#636363" stroke="#263238" stroke-miterlimit="10"/>
<path d="M92.783 226.115H90.5544L89.4424 210.554H93.8997L92.783 226.115Z" fill="white" stroke="#263238" stroke-miterlimit="10"/>
<path d="M111.785 226.115H109.557L108.445 210.554H112.902L111.785 226.115Z" fill="white" stroke="#263238" stroke-miterlimit="10"/>
<path d="M120.7 226.115H118.471L117.359 210.554H121.816L120.7 226.115Z" fill="white" stroke="#263238" stroke-miterlimit="10"/>
<path d="M139.467 226.115H137.239L136.127 210.554H140.584L139.467 226.115Z" fill="white" stroke="#263238" stroke-miterlimit="10"/>
<path d="M90.0288 190.3H139.036C139.938 190.3 140.803 190.677 141.441 191.349C142.079 192.021 142.437 192.932 142.437 193.882V219.199H86.6038V193.882C86.6037 193.409 86.6925 192.941 86.8649 192.505C87.0373 192.069 87.29 191.673 87.6083 191.34C87.9267 191.007 88.3045 190.744 88.7199 190.566C89.1353 190.387 89.5802 190.297 90.0288 190.3V190.3Z" fill="#263238" stroke="#263238" stroke-miterlimit="10"/>
<path d="M139.059 190.3H121.23C120.328 190.3 119.463 190.678 118.825 191.349C118.187 192.021 117.828 192.932 117.828 193.882V219.199H142.461V193.882C142.46 192.932 142.101 192.022 141.463 191.351C140.825 190.679 139.961 190.301 139.059 190.3V190.3Z" fill="#636363" stroke="#263238" stroke-miterlimit="10"/>
</svg>
