<svg width="50" height="50" viewBox="0 0 50 50" fill="none" xmlns="http://www.w3.org/2000/svg">
<path d="M25 50C11.2154 50 0 38.7856 0 25C0 11.2144 11.2154 0 25 0C38.7846 0 50 11.2144 50 25C50 38.7856 38.7846 50 25 50ZM25 1.92308C12.276 1.92308 1.92308 12.276 1.92308 25C1.92308 37.724 12.276 48.0769 25 48.0769C37.724 48.0769 48.0769 37.724 48.0769 25C48.0769 12.276 37.724 1.92308 25 1.92308Z" fill="#263238"/>
<path d="M34.4688 24.9473C34.4688 24.9473 38.3496 19.2617 38.7354 17.4629C38.8652 16.8203 38.583 16.25 37.9131 16.25C37.9131 16.25 35.6768 16.25 34.5459 16.25C33.7744 16.25 33.4922 16.7949 33.2607 17.2832C33.2607 17.2832 31.4404 21.2676 29.2256 23.7119C28.5146 24.502 28.333 24.793 27.9404 24.793C27.624 24.793 27.6572 24.582 27.6572 23.8691V17.623C27.6572 16.748 27.1963 16.25 26.4766 16.25H21.0791C20.668 16.25 20.4756 16.6094 20.4756 16.9355C20.4756 17.7588 21.7998 18.0645 21.7998 20.2949V24.8955C21.7998 25.8213 21.6836 26.1807 21.2471 26.1807C20.0908 26.1807 17.3076 22.0762 15.7656 17.5518C15.4551 16.6279 15.0889 16.25 14.2158 16.25H10.8486C10.3604 16.25 10 16.7051 10 17.1934C10 18.0928 11.0537 22.3174 15.1924 27.8955C17.9688 31.6484 21.7461 33.709 25.0361 33.709C27.041 33.709 27.6572 33.4053 27.6572 32.5566V29.6777C27.6572 28.958 27.8115 28.6494 28.2227 28.6494C28.6855 28.6494 29.4375 28.8428 31.3457 30.7246C33.6094 32.8838 33.6992 33.8281 34.9326 33.8281H38.7109C39.0967 33.8281 39.4561 33.6035 39.4561 32.9609C39.4561 32.1123 38.3506 30.5742 36.6543 28.7744C35.96 27.8496 34.8291 26.8359 34.4697 26.373C33.9561 25.833 34.1094 25.5127 34.4688 24.9473Z" fill="#263238"/>
</svg>
