<svg width="44" height="41" viewBox="0 0 44 41" fill="none" xmlns="http://www.w3.org/2000/svg">
<path d="M43.137 0.551987C42.387 -0.0840129 41.209 -0.175013 39.991 0.313987H39.989C38.708 0.827987 3.728 15.832 2.304 16.445C2.045 16.535 -0.217 17.379 0.0160002 19.259C0.224 20.954 2.042 21.656 2.264 21.737L11.157 24.782C11.747 26.746 13.922 33.992 14.403 35.54C14.703 36.505 15.192 37.773 16.049 38.034C16.801 38.324 17.549 38.059 18.033 37.679L23.47 32.636L32.247 39.481L32.456 39.606C33.052 39.87 33.623 40.002 34.168 40.002C34.589 40.002 34.993 39.923 35.379 39.765C36.694 39.225 37.22 37.972 37.275 37.83L43.831 3.75299C44.231 1.93299 43.675 1.00699 43.137 0.551987ZM18.5 27.5L16.5 36L13 24L36 6.99999L18.5 27.5Z" fill="#229ED9"/>
<path d="M17.5 36L19 29L23 31.5L17.5 36Z" fill="#016B9D"/>
<path d="M35 9L12 24L17 37.5L19 28.5L35 9Z" fill="#2191C6"/>
<path d="M41.3757 0.00294199C40.8887 0.0243096 40.4146 0.159864 39.987 0.331067C39.5639 0.501125 37.1276 1.54095 33.53 3.07911C29.9324 4.61727 25.2557 6.62028 20.6199 8.60646C11.3481 12.5788 2.23705 16.4873 2.23705 16.4873L2.30345 16.4619C2.30345 16.4619 1.75355 16.6457 1.19603 17.0342C0.91727 17.2284 0.617368 17.4792 0.371812 17.8447C0.126257 18.2103 -0.0532609 18.7284 0.0143906 19.2764C0.252013 21.2011 2.24681 21.7471 2.24681 21.7471L2.25462 21.751L11.157 24.7979C11.3839 25.555 13.8571 33.8095 14.4011 35.5576C14.7016 36.5241 14.9828 37.0816 15.2761 37.4619C15.4229 37.6522 15.5767 37.7995 15.7468 37.9072C15.8144 37.95 15.8855 37.9821 15.9558 38.0108H15.9597C15.9683 38.0146 15.9765 38.0149 15.9851 38.0186L15.9617 38.0127C15.978 38.0193 15.9941 38.0304 16.0105 38.0361C16.0422 38.0473 16.0617 38.0469 16.1023 38.0557C17.1218 38.4117 17.9656 37.751 17.9656 37.751L18.0007 37.7236L23.4695 32.6514L32.3445 39.5713L32.4558 39.6221C34.0092 40.3118 35.4141 39.927 36.1921 39.294C36.9701 38.6609 37.2761 37.8447 37.2761 37.8447L37.3093 37.7588L43.8308 3.76857C43.9977 3.00813 44.0214 2.35082 43.864 1.75685C43.7066 1.16288 43.3243 0.64655 42.8445 0.360364C42.3647 0.0741778 41.8628 -0.0184256 41.3757 0.00294199ZM41.4285 2.03615C41.6263 2.02698 41.7729 2.0496 41.8191 2.07716C41.8653 2.10472 41.886 2.1011 41.9304 2.26857C41.9748 2.43604 41.9988 2.78877 41.8777 3.34083L41.8738 3.35255L35.3894 37.1455C35.374 37.1795 35.2389 37.4921 34.9304 37.7432C34.6157 37.9993 34.2656 38.1992 33.3367 37.8096L23.6316 30.2412L23.3581 30.0264L23.3523 30.0322L20.4499 27.8545L36.7605 8.66505C36.8858 8.51798 36.9659 8.33776 36.9909 8.14616C37.016 7.95457 36.985 7.75982 36.9018 7.58545C36.8185 7.41108 36.6865 7.26456 36.5218 7.16361C36.357 7.06266 36.1665 7.01161 35.9734 7.01661C35.7846 7.02152 35.6011 7.07975 35.4441 7.18458L11.8425 22.919L2.9265 19.8662C2.9265 19.8662 2.04114 19.3735 1.99877 19.0303C1.99642 19.0113 1.98596 19.0285 2.03197 18.96C2.07798 18.8915 2.19362 18.7758 2.33861 18.6748C2.62859 18.4728 2.9597 18.3506 2.9597 18.3506L2.99291 18.3389L3.02611 18.3252C3.02611 18.3252 12.1377 14.4165 21.4089 10.4443C26.0446 8.45827 30.7204 6.45674 34.3171 4.91896C37.9129 3.38158 40.5112 2.27498 40.7312 2.18654C40.9816 2.08624 41.2306 2.04531 41.4285 2.03615ZM30.612 12.8096L18.2429 27.3623L18.237 27.3682C18.2177 27.3914 18.1995 27.4155 18.1824 27.4404C18.1627 27.4675 18.1445 27.4955 18.1277 27.5244C18.0582 27.6424 18.0136 27.7733 17.9968 27.9092C17.9968 27.9118 17.9968 27.9144 17.9968 27.917L16.3855 35.1631C16.3587 35.0848 16.3399 35.0562 16.3113 34.9639V34.9619C15.7995 33.3175 13.4661 25.5327 13.1433 24.4561L30.612 12.8096ZM19.6394 29.7471L21.862 31.4151L18.5964 34.4424L19.6394 29.7471Z" fill="white"/>
</svg>
