<svg width="316" height="282" viewBox="0 0 316 282" fill="none" xmlns="http://www.w3.org/2000/svg">
<path d="M312.649 131.898C309.086 114.47 302.83 97.4564 295.39 81.8164C282.566 54.834 261.554 32.428 234.673 19.1272C168.713 -13.5128 121.113 0.0872412 95.2732 26.6072C69.4332 53.1272 76.9132 98.6872 49.0332 118.407C21.1532 138.127 1.43323 146.967 0.0732332 183.007C-1.28677 219.047 16.3932 246.247 44.9532 255.087C73.5132 263.927 116.353 292.487 202.033 276.167C287.713 259.847 308.793 214.287 314.233 181.647C316.953 165.225 316.015 148.375 312.649 131.898Z" fill="#CBCBCB"/>
<path opacity="0.7" d="M312.649 131.898C309.086 114.47 302.83 97.4564 295.39 81.8164C282.566 54.834 261.554 32.428 234.673 19.1272C168.713 -13.5128 121.113 0.0872412 95.2732 26.6072C69.4332 53.1272 76.9132 98.6872 49.0332 118.407C21.1532 138.127 1.43323 146.967 0.0732332 183.007C-1.28677 219.047 16.3932 246.247 44.9532 255.087C73.5132 263.927 116.353 292.487 202.033 276.167C287.713 259.847 308.793 214.287 314.233 181.647C316.953 165.225 316.015 148.375 312.649 131.898Z" fill="white"/>
<path d="M111.811 32.4008H105.65V59.7028H111.811V32.4008Z" fill="#C9C9C9" stroke="#263238" stroke-linecap="round" stroke-linejoin="round"/>
<path d="M111.811 36.508H105.65V39.1736H111.811V36.508Z" fill="white" stroke="#263238" stroke-linecap="round" stroke-linejoin="round"/>
<path d="M111.811 53.4468H105.65V56.1124H111.811V53.4468Z" fill="white" stroke="#263238" stroke-linecap="round" stroke-linejoin="round"/>
<path d="M118.998 32.4008H110.376V59.7028H118.998V32.4008Z" fill="#878787" stroke="#263238" stroke-linecap="round" stroke-linejoin="round"/>
<path d="M118.386 32.4008H112.226V59.7028H118.386V32.4008Z" fill="#C9C9C9" stroke="#263238" stroke-linecap="round" stroke-linejoin="round"/>
<path d="M118.386 36.508H112.226V39.1736H118.386V36.508Z" fill="white" stroke="#263238" stroke-linecap="round" stroke-linejoin="round"/>
<path d="M118.386 53.4468H112.226V56.1124H118.386V53.4468Z" fill="white" stroke="#263238" stroke-linecap="round" stroke-linejoin="round"/>
<path d="M125.567 32.4008H116.945V59.7028H125.567V32.4008Z" fill="#878787" stroke="#263238" stroke-linecap="round" stroke-linejoin="round"/>
<path d="M124.955 32.4008H118.794V59.7028H124.955V32.4008Z" fill="#C9C9C9" stroke="#263238" stroke-linecap="round" stroke-linejoin="round"/>
<path d="M124.955 36.508H118.794V39.1736H124.955V36.508Z" fill="white" stroke="#263238" stroke-linecap="round" stroke-linejoin="round"/>
<path d="M124.955 53.4468H118.794V56.1124H124.955V53.4468Z" fill="white" stroke="#263238" stroke-linecap="round" stroke-linejoin="round"/>
<path d="M132.136 32.4008H123.514V59.7028H132.136V32.4008Z" fill="#C9C9C9" stroke="#263238" stroke-linecap="round" stroke-linejoin="round"/>
<path d="M137.753 59.9816H152.223L156.072 56.5H137.753V59.9816Z" fill="white" stroke="#263238" stroke-linecap="round" stroke-linejoin="round"/>
<path d="M154.433 60.1585L153.971 59.3629L137.454 59.3289L137.93 60.1585H154.433Z" fill="white" stroke="#263238" stroke-linecap="round" stroke-linejoin="round"/>
<path d="M129.375 32.9693L124.042 36.0534L137.709 59.6881L143.043 56.604L129.375 32.9693Z" fill="#C9C9C9" stroke="#263238" stroke-linecap="round" stroke-linejoin="round"/>
<path d="M131.433 36.5153L126.1 39.5994L127.434 41.907L132.767 38.8228L131.433 36.5153Z" fill="white" stroke="#263238" stroke-linecap="round" stroke-linejoin="round"/>
<path d="M139.918 51.1771L134.584 54.2612L135.919 56.5688L141.252 53.4846L139.918 51.1771Z" fill="white" stroke="#263238" stroke-linecap="round" stroke-linejoin="round"/>
<path d="M155.977 56.7379L142.9 56.7039L129.232 33.0671L142.309 33.1011L155.977 56.7379Z" fill="#C9C9C9" stroke="#263238" stroke-linecap="round" stroke-linejoin="round"/>
<path d="M163.103 46.1572C163.103 46.1572 160.723 45.3072 160.043 41.5672C159.363 37.8272 158.173 32.5572 159.533 31.3672C160.893 30.1772 163.443 29.4972 163.783 31.8772C164.123 34.2572 163.613 38.8472 164.123 39.8672C164.633 40.8872 166.333 40.2072 166.333 38.1672C166.333 34.808 164.973 31.3672 165.456 27.9672C166.136 23.2684 170.896 22.7516 171.406 27.9672C171.691 30.8504 171.773 33.7948 171.773 36.6916C171.773 37.8816 173.813 38.5616 173.643 35.6716C173.521 33.6316 175.003 31.2516 177.043 31.9316C179.083 32.6116 177.383 41.6216 176.703 43.1516C176.023 44.6816 171.773 44.9672 171.773 44.9672V48.8772L166.673 49.0472L166.503 45.1372C165.465 45.7375 164.3 46.0868 163.103 46.1572V46.1572Z" fill="#CBCBCB" stroke="#263238" stroke-linecap="round" stroke-linejoin="round"/>
<path d="M167.693 38.7043C167.755 39.5543 167.795 40.0643 167.795 40.0643" stroke="#263238" stroke-linecap="round" stroke-linejoin="round"/>
<path d="M168.033 25.5193C168.033 25.5193 166.918 26.2945 166.999 28.6201C167.054 30.0345 167.326 33.9513 167.537 36.8141" stroke="#263238" stroke-linecap="round" stroke-linejoin="round"/>
<path d="M169.951 33.5364L170.127 39.228" stroke="#263238" stroke-linecap="round" stroke-linejoin="round"/>
<path d="M172.44 42.9272C172.046 42.9885 171.648 43.0226 171.25 43.0292" stroke="#263238" stroke-linecap="round" stroke-linejoin="round"/>
<path d="M175.989 33.3665C175.596 34.1108 175.389 34.9388 175.384 35.7805C175.384 37.1405 175.472 40.9553 174.609 41.9889C174.398 42.2209 174.141 42.4062 173.854 42.5329" stroke="#263238" stroke-linecap="round" stroke-linejoin="round"/>
<path d="M161.233 41.0164C161.438 42.0387 161.928 42.982 162.648 43.7364C163.073 44.077 163.599 44.2693 164.144 44.284C164.689 44.2987 165.224 44.1351 165.667 43.818" stroke="#263238" stroke-linecap="round" stroke-linejoin="round"/>
<path d="M161.07 31.8162C161.07 31.8162 159.35 31.8162 159.948 34.8286C160.207 36.1002 160.445 37.6642 160.751 39.1398" stroke="#263238" stroke-linecap="round" stroke-linejoin="round"/>
<path d="M167.537 43.2808L167.883 46.9868" stroke="#263238" stroke-linecap="round" stroke-linejoin="round"/>
<path d="M176.363 47.3472L175.744 52.42L175.323 55.8744L174.833 59.8932H162.6L162.11 55.8744L161.689 52.42L161.07 47.3472H176.363Z" fill="white" stroke="#263238" stroke-linecap="round" stroke-linejoin="round"/>
<path d="M175.745 52.4199L175.323 55.8743H162.111L161.689 52.4199H175.745Z" fill="#CBCBCB" stroke="#263238" stroke-linecap="round" stroke-linejoin="round"/>
<path d="M183.082 59.8932H104.562V65.0953H183.082V59.8932Z" fill="white" stroke="#263238" stroke-linecap="round" stroke-linejoin="round"/>
<path d="M183.082 59.8932H164.98V65.0953H183.082V59.8932Z" fill="white" stroke="#263238" stroke-linecap="round" stroke-linejoin="round"/>
<path d="M163.219 65.1156C171.63 68.2164 170.114 74.078 170.114 74.078H178.077V65.1156H163.219Z" fill="#919191" stroke="#263238" stroke-linecap="round" stroke-linejoin="round"/>
<path d="M165.905 65.1156C174.31 68.2164 172.793 74.078 172.793 74.078H180.763V65.1156H165.905Z" fill="white" stroke="#263238" stroke-linecap="round" stroke-linejoin="round"/>
<path d="M109.329 65.1157C117.74 68.2165 116.224 74.0781 116.224 74.0781H124.187V65.1157H109.329Z" fill="#919191" stroke="#263238" stroke-linecap="round" stroke-linejoin="round"/>
<path d="M112.015 65.1157C120.419 68.2165 118.903 74.0781 118.903 74.0781H126.873V65.1157H112.015Z" fill="white" stroke="#263238" stroke-linecap="round" stroke-linejoin="round"/>
<path d="M292.5 33.3733H222.08V131.13H292.5V33.3733Z" fill="#919191" stroke="#263238" stroke-linecap="round" stroke-linejoin="round"/>
<path d="M289.447 37.6165H225.14V126.887H289.447V37.6165Z" fill="#CBCBCB"/>
<path opacity="0.5" d="M289.447 37.6165H225.14V126.887H289.447V37.6165Z" fill="white"/>
<path d="M239.277 120.107C237.552 122.737 235.374 125.04 232.844 126.907H289.447V37.6165H279.016L277.656 38.0449C267.456 41.2613 256.916 50.5704 250.939 67.4888" stroke="#263238" stroke-linecap="round" stroke-linejoin="round"/>
<path d="M249.946 70.4537C247.571 78.5221 246.259 86.8658 246.043 95.2737C245.669 105.365 243.52 112.62 240.65 117.836" stroke="#263238" stroke-linecap="round" stroke-linejoin="round"/>
<path d="M283.157 60.2741C273.807 65.7141 262.92 74.8533 258.854 88.8681C256.671 96.3481 258.718 103.094 262.764 108.867" stroke="#263238" stroke-linecap="round" stroke-linejoin="round"/>
<path d="M264.954 111.682C270.564 118.251 278.554 123.419 285.02 126.894H289.447V56.9761C288.182 57.5677 286.836 58.2341 285.435 59.0161" stroke="#263238" stroke-linecap="round" stroke-linejoin="round"/>
<path d="M235.829 60.8929C240.752 50.8561 241.269 42.8933 240.705 37.6165H225.153V78.4573C227.452 75.1865 230.267 70.8141 233.667 64.9525C233.878 64.5921 234.075 64.2725 234.272 63.8917" stroke="#263238" stroke-linecap="round" stroke-linejoin="round"/>
<path d="M241.922 99.551C241.167 104.495 238.896 108.085 236.217 108.085C232.919 108.085 230.24 102.645 230.24 95.913C230.24 89.181 232.919 83.741 236.217 83.741C239.515 83.741 242.194 89.181 242.194 95.913" stroke="#263238" stroke-linecap="round" stroke-linejoin="round"/>
<path d="M244.758 70.9297C244.758 73.5205 243.615 75.6285 242.194 75.6285C240.773 75.6285 239.637 73.5205 239.637 70.9297C239.637 68.3389 240.78 66.2309 242.194 66.2309C243.608 66.2309 244.758 68.3321 244.758 70.9297Z" stroke="#263238" stroke-linecap="round" stroke-linejoin="round"/>
<path d="M277.384 90.7788C279.852 91.9552 281.464 94.0088 281.464 96.3412C281.464 99.9928 277.452 102.958 272.495 102.958C267.537 102.958 263.532 99.9928 263.532 96.3412C263.532 92.6896 267.544 89.718 272.495 89.718C273.285 89.7175 274.073 89.7949 274.847 89.9492" stroke="#263238" stroke-linecap="round" stroke-linejoin="round"/>
<path d="M276.276 96.3413C276.276 97.8713 274.596 99.1157 272.515 99.1157C270.434 99.1157 268.755 97.8713 268.755 96.3413C268.755 94.8113 270.441 93.5601 272.515 93.5601C274.589 93.5601 276.276 94.8045 276.276 96.3413Z" stroke="#263238" stroke-linecap="round" stroke-linejoin="round"/>
<path d="M282.341 79.4704C282.341 81.592 280.24 83.3124 277.642 83.3124C275.045 83.3124 272.943 81.592 272.943 79.4704C272.943 77.3488 275.045 75.6284 277.642 75.6284C280.24 75.6284 282.341 77.3488 282.341 79.4704Z" stroke="#263238" stroke-linecap="round" stroke-linejoin="round"/>
<path d="M248.389 58.1184C250.158 58.1184 251.592 54.5807 251.592 50.2168C251.592 45.8529 250.158 42.3152 248.389 42.3152C246.62 42.3152 245.186 45.8529 245.186 50.2168C245.186 54.5807 246.62 58.1184 248.389 58.1184Z" stroke="#263238" stroke-linecap="round" stroke-linejoin="round"/>
<path d="M257.147 118.122C257.147 119.009 256.884 119.877 256.391 120.615C255.898 121.353 255.197 121.928 254.377 122.268C253.557 122.608 252.654 122.697 251.784 122.524C250.913 122.35 250.114 121.923 249.486 121.295C248.858 120.668 248.431 119.868 248.258 118.997C248.084 118.127 248.173 117.224 248.513 116.404C248.853 115.584 249.428 114.883 250.166 114.39C250.904 113.897 251.772 113.634 252.659 113.634C253.85 113.634 254.991 114.107 255.833 114.948C256.675 115.79 257.147 116.932 257.147 118.122Z" stroke="#263238" stroke-linecap="round" stroke-linejoin="round"/>
<path d="M278.071 51.4953C278.072 52.0459 277.91 52.5846 277.605 53.043C277.3 53.5014 276.865 53.8589 276.357 54.0703C275.849 54.2816 275.289 54.3373 274.749 54.2302C274.208 54.1231 273.712 53.8581 273.323 53.4687C272.934 53.0793 272.669 52.5831 272.561 52.043C272.454 51.5029 272.51 50.9431 272.721 50.4346C272.933 49.9262 273.29 49.4919 273.749 49.1868C274.207 48.8817 274.746 48.7195 275.296 48.7209C276.032 48.7227 276.736 49.0156 277.256 49.5355C277.776 50.0554 278.069 50.76 278.071 51.4953Z" stroke="#263238" stroke-linecap="round" stroke-linejoin="round"/>
<path d="M260.561 71.1405C260.562 71.4367 260.476 71.7266 260.312 71.9735C260.148 72.2204 259.915 72.4132 259.642 72.5275C259.369 72.6417 259.068 72.6723 258.777 72.6154C258.487 72.5584 258.219 72.4165 258.009 72.2075C257.8 71.9986 257.656 71.7321 257.598 71.4417C257.54 71.1513 257.569 70.8501 257.682 70.5764C257.795 70.3026 257.987 70.0686 258.233 69.9039C258.479 69.7392 258.769 69.6513 259.065 69.6513C259.261 69.6504 259.455 69.6883 259.637 69.7627C259.818 69.8371 259.983 69.9467 260.122 70.0851C260.261 70.2234 260.372 70.3879 260.447 70.569C260.522 70.7502 260.561 70.9444 260.561 71.1405V71.1405Z" stroke="#263238" stroke-linecap="round" stroke-linejoin="round"/>
<path d="M289.447 37.6165H225.14V126.887H289.447V37.6165Z" stroke="#263238" stroke-linecap="round" stroke-linejoin="round"/>
<path d="M184.346 164.913H166.877V171.488H184.346V164.913Z" fill="#263238" stroke="#263238" stroke-linecap="round" stroke-linejoin="round"/>
<path d="M207.786 165.905H138.256L141.547 112.009H211.084L207.786 165.905Z" fill="#919191" stroke="#263238" stroke-linecap="round" stroke-linejoin="round"/>
<path d="M205.794 165.905H136.264L139.555 112.009H209.085L205.794 165.905Z" fill="#263238" stroke="#263238" stroke-linecap="round" stroke-linejoin="round"/>
<path d="M202.115 162.907H140.31L143.234 115.001H205.039L202.115 162.907Z" fill="white" stroke="#263238" stroke-linecap="round" stroke-linejoin="round"/>
<path d="M184.136 155.767H142.152L144.403 118.849H186.393L184.136 155.767Z" fill="#919191" stroke="#263238" stroke-linecap="round" stroke-linejoin="round"/>
<path d="M158.717 139.909C158.717 139.909 149.972 143.37 149.918 144.302C149.864 145.233 148.15 155.767 148.15 155.767H174.153L171.964 143.635L162.342 139.637L158.717 139.909Z" fill="white" stroke="#263238" stroke-linecap="round" stroke-linejoin="round"/>
<path d="M158.976 137.774C158.317 137.947 157.706 138.266 157.187 138.705C156.507 139.385 155.678 141.636 155.678 141.636L155.644 144.302L159.091 142.439L162.593 142.207L165.871 145.274L166.292 140.609C166.292 140.609 165.789 137.944 164.728 137.808C163.668 137.672 158.976 137.774 158.976 137.774Z" fill="white" stroke="#263238" stroke-linecap="round" stroke-linejoin="round"/>
<path d="M158.867 135.244L158.717 139.909L160.778 143.241L164.184 139.773L164.715 135.509L158.867 135.244Z" fill="white" stroke="#263238" stroke-linecap="round" stroke-linejoin="round"/>
<path d="M167.272 129.791C167.027 133.701 164.429 138.44 161.58 138.44C158.731 138.44 156.711 133.68 156.949 129.791C157.187 125.901 159.669 122.712 162.539 122.712C165.408 122.712 167.51 125.887 167.272 129.791Z" fill="white" stroke="#263238" stroke-linecap="round" stroke-linejoin="round"/>
<path d="M156.902 130.307C156.902 130.307 155.984 127.914 155.603 129.777C155.222 131.64 157.099 133.639 157.099 133.639L156.902 130.307Z" fill="white" stroke="#263238" stroke-linecap="round" stroke-linejoin="round"/>
<path d="M167.272 129.791C167.272 129.791 169.523 128.845 168.863 130.845C168.696 131.41 168.403 131.931 168.008 132.369C167.613 132.807 167.124 133.15 166.578 133.374L167.272 129.791Z" fill="white" stroke="#263238" stroke-linecap="round" stroke-linejoin="round"/>
<path d="M161.301 130.307C161.319 130.067 161.287 129.826 161.206 129.599C161.126 129.372 160.999 129.164 160.834 128.989C160.669 128.814 160.469 128.675 160.248 128.581C160.026 128.487 159.787 128.441 159.547 128.444C159.045 128.457 158.567 128.654 158.202 128.998C157.837 129.342 157.611 129.808 157.568 130.307C157.55 130.548 157.582 130.789 157.662 131.016C157.743 131.244 157.869 131.452 158.034 131.628C158.199 131.803 158.399 131.943 158.621 132.038C158.842 132.132 159.081 132.18 159.322 132.177C159.824 132.164 160.304 131.966 160.669 131.621C161.034 131.276 161.259 130.808 161.301 130.307V130.307Z" fill="white" stroke="#263238" stroke-linecap="round" stroke-linejoin="round"/>
<path d="M165.83 130.307L167.863 129.777" stroke="#263238" stroke-linecap="round" stroke-linejoin="round"/>
<path d="M165.83 130.307C165.848 130.068 165.816 129.827 165.736 129.601C165.656 129.374 165.53 129.167 165.365 128.992C165.201 128.817 165.002 128.678 164.781 128.583C164.56 128.489 164.322 128.442 164.082 128.444C163.58 128.456 163.099 128.652 162.733 128.996C162.367 129.34 162.14 129.807 162.097 130.307C162.079 130.548 162.111 130.789 162.191 131.017C162.272 131.244 162.398 131.452 162.563 131.628C162.728 131.804 162.928 131.943 163.149 132.038C163.371 132.132 163.61 132.18 163.851 132.177C164.353 132.164 164.833 131.966 165.198 131.621C165.563 131.276 165.788 130.808 165.83 130.307V130.307Z" fill="white" stroke="#263238" stroke-linecap="round" stroke-linejoin="round"/>
<path d="M162.076 121.909C162.076 121.909 160.036 120.848 158.506 121.515C156.976 122.181 155.848 125.778 155.922 126.71C156.162 127.931 156.49 129.133 156.902 130.307L158.52 125.642L162.763 123.779L162.076 121.909Z" fill="#263238" stroke="#263238" stroke-linecap="round" stroke-linejoin="round"/>
<path d="M160.023 122.848C160.023 122.848 163.382 120.182 166.102 121.488C166.935 121.85 167.623 122.479 168.057 123.276C168.492 124.072 168.649 124.991 168.502 125.887C168.462 126.567 168.407 129.614 168.407 129.614L166.789 129.886L165.993 127.377C165.074 127.013 164.179 126.59 163.314 126.112C163.314 126.112 159.717 125.643 160.023 122.848Z" fill="#263238" stroke="#263238" stroke-linecap="round" stroke-linejoin="round"/>
<path d="M161.301 130.307L161.063 134.177H161.995" fill="white"/>
<path d="M161.301 130.307L161.063 134.177H161.995" stroke="#263238" stroke-linecap="round" stroke-linejoin="round"/>
<path d="M160.574 135.638H162.573" stroke="#263238" stroke-linecap="round" stroke-linejoin="round"/>
<path d="M160.778 143.241L160.037 155.365" stroke="#263238" stroke-linecap="round" stroke-linejoin="round"/>
<path d="M171.95 143.635C171.95 143.635 169.169 149.905 169.087 151.238C169.006 152.57 168.693 155.501 168.693 155.501" stroke="#263238" stroke-linecap="round" stroke-linejoin="round"/>
<path d="M149.918 144.302C149.918 144.302 152.686 149.103 153.046 149.742C153.406 150.381 152.964 155.474 152.964 155.474" stroke="#263238" stroke-linecap="round" stroke-linejoin="round"/>
<path d="M173.806 148.171L174.724 144.036L176.288 142.438L177.764 140.038H178.43L177.614 142.574L179.681 141.371L181.014 139.242L181.789 139.637L179.885 144.574L176.866 146.036L176.343 148.035L173.806 148.171Z" fill="white" stroke="#263238" stroke-linecap="round" stroke-linejoin="round"/>
<path d="M176.391 155.766L176.642 147.504L173.609 146.967L171.216 155.766H176.391Z" fill="white" stroke="#263238" stroke-linecap="round" stroke-linejoin="round"/>
<path d="M183.952 158.833H141.962L142.152 155.767H184.136L183.952 158.833Z" fill="white" stroke="#263238" stroke-linecap="round" stroke-linejoin="round"/>
<path d="M143.676 156.97H182.198" stroke="#263238" stroke-linecap="round" stroke-linejoin="round"/>
<path d="M202.183 128.702H188.052L188.651 118.972H202.781L202.183 128.702Z" fill="#CBCBCB" stroke="#263238" stroke-linecap="round" stroke-linejoin="round"/>
<path d="M202.183 128.702H188.052L188.154 127.104H202.285L202.183 128.702Z" fill="white" stroke="#263238" stroke-linecap="round" stroke-linejoin="round"/>
<path d="M197.62 123.269L193.948 121.073L193.683 125.466L197.62 123.269Z" fill="white" stroke="#263238" stroke-linecap="round" stroke-linejoin="round"/>
<path d="M201.265 143.765H187.134L187.726 134.041H201.856L201.265 143.765Z" fill="#CBCBCB" stroke="#263238" stroke-linecap="round" stroke-linejoin="round"/>
<path d="M201.265 143.765H187.134L187.236 142.167H201.36L201.265 143.765Z" fill="white" stroke="#263238" stroke-linecap="round" stroke-linejoin="round"/>
<path d="M196.702 138.338L193.03 136.142L192.765 140.535L196.702 138.338Z" fill="white" stroke="#263238" stroke-linecap="round" stroke-linejoin="round"/>
<path d="M200.34 158.833H186.216L186.808 149.103H200.938L200.34 158.833Z" fill="#CBCBCB" stroke="#263238" stroke-linecap="round" stroke-linejoin="round"/>
<path d="M200.34 158.833H186.216L186.312 157.235H200.442L200.34 158.833Z" fill="white" stroke="#263238" stroke-linecap="round" stroke-linejoin="round"/>
<path d="M195.777 153.4L192.112 151.204L191.84 155.597L195.777 153.4Z" fill="white" stroke="#263238" stroke-linecap="round" stroke-linejoin="round"/>
<path d="M188.093 130.307H201.816" stroke="#263238" stroke-linecap="round" stroke-linejoin="round"/>
<path d="M187.991 131.912H201.72" stroke="#263238" stroke-linecap="round" stroke-linejoin="round"/>
<path d="M187.162 145.505H200.891" stroke="#263238" stroke-linecap="round" stroke-linejoin="round"/>
<path d="M187.066 147.103H200.796" stroke="#263238" stroke-linecap="round" stroke-linejoin="round"/>
<path d="M181.076 171.488H170.753C170.753 170.458 171.162 169.471 171.891 168.743C172.619 168.015 173.606 167.605 174.636 167.605H177.179C178.209 167.605 179.197 168.015 179.925 168.743C180.653 169.471 181.062 170.458 181.062 171.488H181.076Z" fill="white" stroke="#263238" stroke-linecap="round" stroke-linejoin="round"/>
<path d="M165.837 169.373H115.367V171.488H165.837V169.373Z" fill="#919191" stroke="#263238" stroke-linecap="round" stroke-linejoin="round"/>
<path d="M165.823 169.373H153.141V171.488H165.823V169.373Z" fill="white" stroke="#263238" stroke-linecap="round" stroke-linejoin="round"/>
<path d="M94.6816 67.8357V27.6545" stroke="#263238" stroke-linecap="round" stroke-linejoin="round"/>
<path d="M94.6816 268.932V71.8341" stroke="#263238" stroke-linecap="round" stroke-linejoin="round"/>
<path d="M186.44 185.591L192.56 268.096C192.592 268.397 192.738 268.675 192.967 268.872C193.196 269.07 193.492 269.173 193.795 269.16C194.097 269.147 194.384 269.019 194.595 268.802C194.807 268.586 194.928 268.297 194.934 267.994L194.016 185.591H186.44Z" fill="#919191" stroke="#263238" stroke-linecap="round" stroke-linejoin="round"/>
<path d="M191.058 185.591L194.288 269.048C194.478 268.946 194.637 268.794 194.748 268.608C194.858 268.422 194.915 268.21 194.913 267.994L194.016 185.591H191.058Z" fill="white" stroke="#263238" stroke-linecap="round" stroke-linejoin="round"/>
<path d="M224.908 185.591L231.028 268.096C231.06 268.397 231.205 268.675 231.435 268.872C231.664 269.07 231.96 269.173 232.263 269.16C232.565 269.147 232.851 269.019 233.063 268.802C233.275 268.586 233.396 268.296 233.401 267.994L232.483 185.591H224.908Z" fill="#919191" stroke="#263238" stroke-linecap="round" stroke-linejoin="round"/>
<path d="M229.165 185.591L232.932 268.925C233.073 268.815 233.187 268.673 233.265 268.512C233.343 268.35 233.383 268.173 233.381 267.994L232.483 185.591H229.165Z" fill="white" stroke="#263238" stroke-linecap="round" stroke-linejoin="round"/>
<path d="M123.506 186.489L117.386 268.089C117.366 268.389 117.232 268.669 117.012 268.873C116.792 269.078 116.503 269.191 116.203 269.191V269.191C116.046 269.193 115.889 269.165 115.743 269.107C115.597 269.049 115.463 268.962 115.351 268.852C115.238 268.742 115.149 268.611 115.087 268.466C115.026 268.321 114.994 268.165 114.993 268.008L115.897 186.271L123.506 186.489Z" fill="#263238" stroke="#263238" stroke-linecap="round" stroke-linejoin="round"/>
<path d="M85.0729 186.489L78.9529 268.089C78.9322 268.388 78.7985 268.669 78.5788 268.873C78.3591 269.078 78.0699 269.191 77.7697 269.191V269.191C77.6128 269.19 77.4577 269.158 77.3132 269.097C77.1688 269.036 77.0378 268.947 76.9278 268.835C76.8178 268.723 76.7311 268.591 76.6725 268.445C76.6139 268.3 76.5847 268.144 76.5865 267.987L77.4909 186.251L85.0729 186.489Z" fill="#263238" stroke="#263238" stroke-linecap="round" stroke-linejoin="round"/>
<path d="M234.734 173.406H75.1855V186.258H234.734V173.406Z" fill="#919191" stroke="#263238" stroke-linecap="round" stroke-linejoin="round"/>
<path d="M234.734 173.406H189.011V186.258H234.734V173.406Z" fill="white" stroke="#263238" stroke-linecap="round" stroke-linejoin="round"/>
<path d="M234.734 175.446H75.1855V178.989H234.734V175.446Z" fill="#263238" stroke="#263238" stroke-linecap="round" stroke-linejoin="round"/>
<path d="M237.032 171.563H72.8872V175.861H237.032V171.563Z" fill="#919191" stroke="#263238" stroke-linecap="round" stroke-linejoin="round"/>
<path d="M237.025 171.563H191.948V175.861H237.025V171.563Z" fill="white" stroke="#263238" stroke-linecap="round" stroke-linejoin="round"/>
<path d="M188.63 91.8872H166.476C165.322 91.8872 164.215 92.3457 163.399 93.1619C162.583 93.978 162.124 95.085 162.124 96.2392V104.399C162.123 104.971 162.235 105.537 162.453 106.066C162.672 106.594 162.992 107.074 163.397 107.479C163.801 107.883 164.281 108.203 164.81 108.422C165.338 108.64 165.904 108.752 166.476 108.751H178.077L173.732 120.889L182.055 108.751H188.63C189.202 108.752 189.769 108.64 190.297 108.422C190.825 108.203 191.305 107.883 191.71 107.479C192.114 107.074 192.435 106.594 192.653 106.066C192.871 105.537 192.983 104.971 192.982 104.399V96.2392C192.982 95.085 192.524 93.978 191.708 93.1619C190.892 92.3457 189.785 91.8872 188.63 91.8872Z" fill="white" stroke="#263238" stroke-linecap="round" stroke-linejoin="round"/>
<path d="M171.617 102.176C172.492 102.176 173.201 101.466 173.201 100.591C173.201 99.7162 172.492 99.0068 171.617 99.0068C170.742 99.0068 170.032 99.7162 170.032 100.591C170.032 101.466 170.742 102.176 171.617 102.176Z" fill="#263238"/>
<path d="M177.553 102.176C178.428 102.176 179.138 101.466 179.138 100.591C179.138 99.7162 178.428 99.0068 177.553 99.0068C176.678 99.0068 175.969 99.7162 175.969 100.591C175.969 101.466 176.678 102.176 177.553 102.176Z" fill="#263238"/>
<path d="M185.067 100.591C185.067 100.278 184.974 99.971 184.8 99.7103C184.625 99.4496 184.377 99.2465 184.088 99.1268C183.798 99.0071 183.479 98.9761 183.171 99.0378C182.864 99.0995 182.581 99.251 182.36 99.4733C182.139 99.6956 181.988 99.9785 181.928 100.286C181.868 100.594 181.9 100.913 182.021 101.202C182.142 101.492 182.346 101.739 182.608 101.912C182.869 102.085 183.176 102.177 183.49 102.176C183.697 102.176 183.903 102.135 184.095 102.055C184.287 101.975 184.461 101.858 184.608 101.711C184.754 101.564 184.87 101.389 184.949 101.197C185.028 101.005 185.068 100.799 185.067 100.591Z" fill="#263238"/>
<path d="M293.833 269.367H312.193" stroke="#263238" stroke-linecap="round" stroke-linejoin="round"/>
<path d="M4.15283 269.367H284.313" stroke="#263238" stroke-linecap="round" stroke-linejoin="round"/>
<path d="M112.028 149.198C110.036 145.798 104.174 132.708 104.174 132.708C104.351 131.309 104.638 129.927 105.031 128.573C105.514 127.213 106.731 123.093 106.486 122.236C106.242 121.379 102.712 119.801 102.352 119.679C101.992 119.557 102.835 117.489 101.495 117C100.156 116.51 99.6728 117.245 99.6728 117.245L99.1628 120.645L97.5988 123.093C96.9475 122.598 96.2662 122.143 95.5588 121.733C94.464 121.121 91.9072 120.876 91.7848 121.855C91.6624 122.834 93.8248 123.677 94.5796 124.289C95.3344 124.901 96.2864 127.819 97.1432 128.675C97.9217 129.525 98.6527 130.417 99.3328 131.348L99.8224 132.932C99.8224 132.932 101.488 148.973 101.686 152.965C101.883 156.957 102.481 167.517 103.678 169.108C104.875 170.699 105.079 171.706 108.438 170.509C111.797 169.312 112.423 167.714 113.198 164.124C113.973 160.533 114.021 152.584 112.028 149.198Z" fill="white" stroke="#263238" stroke-linecap="round" stroke-linejoin="round"/>
<path d="M113.225 164.144C114.021 160.56 114.021 152.584 112.028 149.184C111.811 148.81 111.545 148.327 111.246 147.756C106.738 146.444 102.454 148.586 102.454 148.586L101.366 149.062C101.509 150.728 101.617 152.122 101.658 152.972C101.862 156.956 102.454 167.524 103.651 169.115C104.847 170.706 105.051 171.712 108.411 170.516C111.77 169.319 112.423 167.734 113.225 164.144Z" fill="#CBCBCB" stroke="#263238" stroke-linecap="round" stroke-linejoin="round"/>
<path d="M97.49 95.2873C97.981 97.091 98.255 98.947 98.306 100.816C98.306 103.474 97.49 105.113 98.7208 105.929C99.9516 106.745 100.972 106.752 100.761 108.391C100.68 109.296 100.321 110.153 99.734 110.846C99.734 110.846 99.326 119.237 98.918 120.06C98.51 120.882 93.1856 119.856 91.9548 119.645C90.724 119.434 87.2492 121.08 84.9916 116.578C82.734 112.076 84.5836 105.317 88.6772 101.836C91.4929 99.4934 94.4349 97.3074 97.49 95.2873V95.2873Z" fill="white" stroke="#263238" stroke-linecap="round" stroke-linejoin="round"/>
<path d="M98.306 100.782C98.306 100.782 97.1976 99.9522 96.6128 101.407" stroke="#263238" stroke-linecap="round" stroke-linejoin="round"/>
<path d="M97.3131 104.168C97.154 104.993 97.2054 105.844 97.4627 106.643" stroke="#263238" stroke-linecap="round" stroke-linejoin="round"/>
<path d="M99.3531 113.783C99.1714 113.842 98.9794 113.861 98.7897 113.84C98.5999 113.82 98.4167 113.759 98.2519 113.663C98.087 113.567 97.9443 113.437 97.8329 113.282C97.7215 113.127 97.6441 112.95 97.6055 112.763" stroke="#263238" stroke-linecap="round" stroke-linejoin="round"/>
<path d="M101.672 152.271C101.672 152.271 100.992 155.386 100.387 157.031C99.7817 158.677 88.9288 161.696 84.2028 162.322C81.0896 162.71 77.9562 162.917 74.8188 162.94L75.118 171.549C75.118 171.549 84.2709 171.733 84.9169 171.549C85.5629 171.366 100.972 164.477 100.972 164.477L107.622 163.607C107.622 163.607 110.417 162.927 110.526 160.758C110.634 158.588 108.166 152.421 107.044 151.462C105.922 150.503 103.556 147.96 102.134 149.524C100.713 151.088 101.672 152.271 101.672 152.271Z" fill="white" stroke="#263238" stroke-linecap="round" stroke-linejoin="round"/>
<path d="M81.2651 167.728C81.2651 164.008 82.2171 163.913 83.3051 162.437C80.4937 162.751 77.6679 162.919 74.8391 162.94L74.6147 170.842C74.6147 170.842 79.6263 171.304 82.6795 171.522C82.4279 171.91 81.2651 170.121 81.2651 167.728Z" fill="#CBCBCB" stroke="#263238" stroke-linecap="round" stroke-linejoin="round"/>
<path d="M110.818 184.456C107.197 180.387 102.594 177.313 97.4488 175.527L85.508 180.62C84.5807 178.344 83.3501 176.203 81.8496 174.256L79.6192 171.536L81.054 163.736C81.054 163.736 89.6492 157.847 90.7576 155.297L90.7984 155.216C92.5256 157.888 100.019 169.455 101.427 170.577C103.018 171.855 107.792 172.012 109.859 170.101C111.926 168.19 112.885 166.918 112.409 164.056C112.409 164.056 109.226 157.208 107.472 154.182C105.718 151.156 101.903 140.337 99.992 136.992C98.632 134.598 98.0676 132.912 97.102 131.783C96.4316 130.628 95.6407 129.548 94.7424 128.56C92.8316 126.52 87.5752 126.01 86.46 125.534C85.3448 125.058 85.1884 124.894 78.8236 122.99C72.4588 121.086 65.2916 119.964 60.1984 123.942C60.1984 123.942 53.3576 132.062 50.6784 145.43C47.9992 158.799 47.8088 172.331 47.496 174.718C47.1832 177.105 44.47 188.726 43.6744 195.41C42.8788 202.095 49.8556 208.806 54.1532 210.887C58.4508 212.968 76.9128 213.274 87.7384 210.887C98.564 208.5 115.754 197.675 115.754 197.675C115.754 197.675 116.387 190.984 110.818 184.456Z" fill="#CBCBCB" stroke="#263238" stroke-linecap="round" stroke-linejoin="round"/>
<path d="M82.6726 155.046L80.4897 154.971" stroke="#263238" stroke-linecap="round" stroke-linejoin="round"/>
<path d="M81.8496 151.571C84.9073 152.601 87.8847 153.856 90.7576 155.324L85.1544 155.134" stroke="#263238" stroke-linecap="round" stroke-linejoin="round"/>
<path d="M111.423 155.59C112.051 156.576 112.438 157.696 112.552 158.86C112.552 160.363 112.804 162.376 112.178 161.75C111.552 161.125 111.294 158.983 111.294 158.983L111.423 155.59Z" fill="white" stroke="#263238" stroke-linecap="round" stroke-linejoin="round"/>
<path d="M107.656 153.835C107.656 153.835 110.009 152.557 111.056 154.094C112.103 155.63 111.824 158.697 111.056 160.214C110.287 161.73 109.41 160.282 109.519 158.935C109.628 157.589 107.656 153.835 107.656 153.835Z" fill="white" stroke="#263238" stroke-linecap="round" stroke-linejoin="round"/>
<path d="M106.772 152.203C106.772 152.203 109.132 150.925 110.172 152.462C111.212 153.998 110.934 157.058 110.172 158.582C109.41 160.105 108.526 158.65 108.635 157.303C108.744 155.957 106.772 152.203 106.772 152.203Z" fill="white" stroke="#263238" stroke-linecap="round" stroke-linejoin="round"/>
<path d="M105.69 150.442C105.69 150.442 108.05 149.164 109.09 150.7C110.131 152.237 109.859 155.304 109.09 156.82C108.322 158.337 107.445 156.888 107.554 155.542C107.662 154.196 105.69 150.442 105.69 150.442Z" fill="white" stroke="#263238" stroke-linecap="round" stroke-linejoin="round"/>
<path d="M99.7201 88.902C99.7592 91.3459 99.129 93.7539 97.8977 95.8653C94.4161 101.19 91.1453 100.571 89.7377 104.875C88.3301 109.18 86.2289 113.647 88.4729 116.136C90.7169 118.625 92.5529 117.156 92.5529 117.156C92.5529 117.156 93.9877 120.842 90.3021 124.527C86.6165 128.213 80.2721 126.778 78.6333 126.166C77.6013 125.768 76.6359 125.216 75.7705 124.527C75.7705 124.527 74.7437 127.397 69.6505 127.397C64.5573 127.397 58.7705 123.915 58.7705 117.564C58.7705 111.213 62.2453 106.922 63.0681 104.46C63.8909 101.999 61.6333 94.4305 65.1081 89.7249C68.5829 85.0193 73.9481 81.5648 78.0281 81.5648C82.1081 81.5648 90.0709 83.802 90.1049 83.8156C90.6421 84.108 94.0829 82.7072 95.0145 82.7684C98.4349 82.9588 99.6793 85.7672 99.7201 88.902Z" fill="#263238" stroke="#263238" stroke-linecap="round" stroke-linejoin="round"/>
<path d="M86.4331 118.026C87.1756 118.125 87.9279 118.125 88.6703 118.026" stroke="#919191" stroke-linecap="round" stroke-linejoin="round"/>
<path d="M96.7692 92.4721C96.4463 94.2949 95.7744 96.0381 94.7904 97.6061C91.608 102.604 87.9904 104.406 83.6588 109.166C80.8776 112.246 81.4012 115.32 83.6588 116.932" stroke="#919191" stroke-linecap="round" stroke-linejoin="round"/>
<path d="M96.8301 87.1613C96.9626 87.9111 97.0286 88.6711 97.0273 89.4325" stroke="#919191" stroke-linecap="round" stroke-linejoin="round"/>
<path d="M92.553 91.928C92.553 91.928 91.873 98.966 88.9218 103.053C85.9706 107.14 80.0818 109.173 80.2926 113.498" stroke="#919191" stroke-linecap="round" stroke-linejoin="round"/>
<path d="M119.957 209.738C119.957 209.738 124.2 231.539 127.831 242.133C131.462 252.728 135.094 262.418 135.991 263.329C136.889 264.24 139.323 267.565 139.323 267.565C138.198 268.464 136.823 268.993 135.386 269.082C133.264 269.082 130.544 266.362 128.117 264.838C125.689 263.315 125.397 262.418 120.548 260.602C115.7 258.786 119.644 253.945 120.854 251.517C121.554 250.207 121.967 248.763 122.065 247.281C120.14 240.462 116.729 234.155 112.076 228.812C104.521 220.339 103.004 200.687 103.004 200.687L117.536 195.247L119.957 209.738Z" fill="white" stroke="#263238" stroke-linecap="round" stroke-linejoin="round"/>
<path d="M135.393 262.241L134.516 262.418C134.516 262.418 129.368 255.454 125.438 253.034C124.098 252.109 122.522 251.585 120.896 251.524C119.678 253.945 115.748 258.786 120.59 260.602C125.431 262.418 125.737 263.322 128.158 264.838C130.579 266.355 133.306 269.082 135.427 269.082C136.864 268.993 138.239 268.464 139.364 267.565C139.364 267.565 136.937 264.233 136.032 263.329C135.775 262.994 135.56 262.629 135.393 262.241V262.241Z" fill="#CBCBCB" stroke="#263238" stroke-linecap="round" stroke-linejoin="round"/>
<path d="M132.952 268.218C130.558 266.566 128.396 262.894 124.499 260.602C120.957 258.521 119.134 258.44 118.379 258.596C118.564 259.082 118.862 259.517 119.247 259.865C119.632 260.214 120.095 260.466 120.596 260.602C125.445 262.418 125.744 263.322 128.165 264.838C129.695 265.818 131.381 267.327 132.952 268.218Z" fill="#CBCBCB" stroke="#263238" stroke-linecap="round" stroke-linejoin="round"/>
<path d="M135.393 269.082C135.238 269.076 135.084 269.06 134.931 269.034C135.083 269.063 135.238 269.079 135.393 269.082V269.082Z" fill="#CBCBCB" stroke="#263238" stroke-linecap="round" stroke-linejoin="round"/>
<path d="M92.9744 176.887C92.9744 176.887 107.526 171.733 108.886 175.133C110.246 178.533 116.475 191.215 114.204 196.424C111.933 201.632 95.9664 181.464 93.6952 181.028C91.424 180.593 92.7092 178.41 92.9744 176.887Z" fill="white" stroke="#263238" stroke-linecap="round" stroke-linejoin="round"/>
<path d="M107.234 183.531C107.234 183.531 123.779 182.171 126.954 185.122C130.13 188.073 119.25 223.426 113.354 234.531C104.113 251.898 106.908 256.447 106.908 256.447C106.908 256.447 107.588 259.167 112.123 263.478C116.659 267.79 118.019 268.463 116.428 269.143C114.837 269.823 108.043 269.143 107.363 268.687C106.683 268.232 101.699 264.158 97.1634 262.798C92.6278 261.438 93.3078 260.527 95.3478 256.447C97.3878 252.367 97.1634 255.767 99.4278 248.743C102.142 240.087 104.287 231.262 105.847 222.325C107.051 215.042 108.887 207.045 108.37 199.64L107.234 183.531Z" fill="white" stroke="#263238" stroke-linecap="round" stroke-linejoin="round"/>
<path d="M119.352 194.601C117.62 190.422 114.639 186.878 110.818 184.456C103.583 179.838 97.4492 175.527 97.4492 175.527L85.5084 180.62C85.5084 180.62 88.4188 185.557 73.4588 188.053C61.9396 189.97 51.3656 187.189 45.6604 183.837C44.8648 187.788 44.0352 192.18 43.6204 195.397C42.8248 202.081 49.8288 208.766 54.1264 210.84C58.424 212.914 93.0496 217.204 102.372 211.214C119.352 200.354 119.352 194.601 119.352 194.601Z" fill="#263238" stroke="#263238" stroke-linecap="round" stroke-linejoin="round"/>
<path d="M84.1551 184.367C82.5571 185.68 79.4427 187.087 73.4587 188.06C61.9395 189.977 51.3655 187.196 45.6603 183.844C45.4563 184.857 45.2523 185.884 45.0483 186.938C48.9583 189.29 57.1727 193.275 66.4343 192.14C77.4843 190.786 82.3939 187.767 84.1551 184.367Z" fill="#CBCBCB" stroke="#263238" stroke-linecap="round" stroke-linejoin="round"/>
<path d="M75.3287 198.933C74.7983 199.613 74.2475 200.293 73.6899 200.973" stroke="white" stroke-linecap="round" stroke-linejoin="round"/>
<path d="M83.6584 186.027C81.5657 189.874 79.2308 193.586 76.668 197.138" stroke="white" stroke-linecap="round" stroke-linejoin="round"/>
<path d="M78.6744 190.331C78.6744 190.331 74.5944 195.771 70.29 198.946" stroke="white" stroke-linecap="round" stroke-linejoin="round"/>
<path d="M112.123 263.465C107.588 259.167 106.908 256.447 106.908 256.447C106.756 256.306 106.635 256.135 106.554 255.944C106.248 256.264 105.323 256.869 103.059 255.998C101.094 255.244 99.2305 253.958 97.2653 253.095C96.7961 253.931 96.3406 254.455 95.3478 256.447C93.3078 260.527 92.6278 261.438 97.1634 262.798C101.699 264.158 106.683 268.238 107.363 268.687C108.043 269.136 114.843 269.823 116.428 269.143C118.012 268.463 116.659 267.769 112.123 263.465Z" fill="#CBCBCB" stroke="#263238" stroke-linecap="round" stroke-linejoin="round"/>
<path d="M116.299 196.906L124.01 192.146" stroke="#263238" stroke-linecap="round" stroke-linejoin="round"/>
<path d="M24.1792 153.808C24.1792 153.808 48.7408 150.735 64.4352 155.168L66.822 214.879H29.9932C29.9932 214.879 32.3664 182.803 24.1792 153.808Z" fill="#919191" stroke="#263238" stroke-linecap="round" stroke-linejoin="round"/>
<path d="M64.4352 155.168C48.7408 150.735 24.1792 153.808 24.1792 153.808C26.8076 163.472 28.5533 173.354 29.3948 183.334C43.1096 190.182 55.6709 199.13 66.6248 209.854L64.4352 155.168Z" fill="#757575" stroke="#263238" stroke-linecap="round" stroke-linejoin="round"/>
<path d="M110.75 270.727C110.472 270.728 110.2 270.644 109.972 270.486C109.743 270.328 109.569 270.104 109.471 269.843C104.031 255.183 102.671 217.123 102.59 215.511C102.577 215.151 102.708 214.8 102.954 214.536C103.201 214.272 103.541 214.116 103.902 214.104C104.263 214.091 104.614 214.222 104.878 214.468C105.142 214.715 105.297 215.055 105.31 215.416C105.31 215.811 106.724 254.645 112.021 268.891C112.147 269.229 112.132 269.604 111.982 269.931C111.831 270.259 111.557 270.514 111.219 270.639C111.07 270.698 110.91 270.728 110.75 270.727Z" fill="white" stroke="#263238" stroke-linecap="round" stroke-linejoin="round"/>
<path d="M81.1359 270.727C80.8592 270.727 80.5892 270.642 80.362 270.484C80.1348 270.326 79.9612 270.103 79.8643 269.843C74.4243 255.183 73.0643 217.123 72.9759 215.511C72.9633 215.151 73.0945 214.8 73.3406 214.536C73.5867 214.272 73.9276 214.116 74.2883 214.104C74.649 214.091 75 214.222 75.2639 214.468C75.5279 214.715 75.6833 215.055 75.6959 215.416C75.6959 215.811 77.1103 254.645 82.4143 268.891C82.5396 269.229 82.5255 269.604 82.375 269.931C82.2245 270.259 81.9501 270.514 81.6119 270.639C81.4603 270.698 81.2988 270.728 81.1359 270.727V270.727Z" fill="white" stroke="#263238" stroke-linecap="round" stroke-linejoin="round"/>
<path d="M110.383 214.852H29.3472V212.132H107.676C108.398 212.132 109.09 212.418 109.6 212.928C110.11 213.439 110.396 214.13 110.396 214.852H110.383Z" fill="#919191" stroke="#263238" stroke-linecap="round" stroke-linejoin="round"/>
<path d="M110.376 214.192H29.3472V216.892H110.376V214.192Z" fill="white" stroke="#263238" stroke-linecap="round" stroke-linejoin="round"/>
<path d="M63.8299 270.727C63.6252 270.732 63.4222 270.69 63.2359 270.605C63.0497 270.52 62.8851 270.394 62.7544 270.236C62.6236 270.079 62.5301 269.893 62.4809 269.695C62.4316 269.496 62.4279 269.289 62.4699 269.088C70.1607 232.654 63.1499 156.038 63.0547 155.27C63.0381 155.091 63.057 154.911 63.11 154.74C63.1631 154.569 63.2494 154.41 63.364 154.272C63.4787 154.134 63.6193 154.02 63.778 153.936C63.9367 153.852 64.1103 153.801 64.2889 153.784C64.6496 153.751 65.0087 153.862 65.2874 154.094C65.566 154.325 65.7413 154.658 65.7747 155.018C65.8495 155.794 72.9147 232.81 65.1423 269.646C65.0789 269.949 64.9144 270.22 64.6759 270.417C64.4373 270.614 64.1389 270.723 63.8299 270.727Z" fill="white" stroke="#263238" stroke-linecap="round" stroke-linejoin="round"/>
<path d="M21.6698 269.734C21.5431 269.736 21.4169 269.718 21.2958 269.68C20.9501 269.582 20.6573 269.351 20.4815 269.037C20.3057 268.724 20.2611 268.353 20.3574 268.007C38.0374 205.243 23.0298 154.706 22.8802 154.202C22.7945 153.864 22.8422 153.506 23.0135 153.201C23.1848 152.897 23.4665 152.67 23.8003 152.568C24.1341 152.466 24.4945 152.496 24.8067 152.652C25.119 152.808 25.3593 153.078 25.4778 153.407C25.6342 153.917 40.9002 205.175 22.9754 268.742C22.8955 269.027 22.7247 269.278 22.4891 269.457C22.2535 269.636 21.9658 269.734 21.6698 269.734V269.734Z" fill="white" stroke="#263238" stroke-linecap="round" stroke-linejoin="round"/>
<path d="M270.291 157.609C270.291 157.609 261.934 152.965 261.315 163.491C260.696 174.018 259.153 242.433 259.153 242.433" stroke="#263238" stroke-width="2" stroke-linecap="round" stroke-linejoin="round"/>
<path d="M256.977 164.416C256.977 164.416 263.777 179.587 260.697 241.508" stroke="#263238" stroke-width="2" stroke-linecap="round" stroke-linejoin="round"/>
<path d="M263.675 159.731C263.675 159.731 260.472 161.771 258.656 159.432C256.841 157.092 259.887 152.795 257.201 150.959C254.515 149.123 249.871 151.924 249.871 151.924C249.871 151.924 253.441 152.972 253.325 154.923C253.21 156.875 251.489 157.609 251.285 156.759C251.081 155.909 249.347 151.612 246.45 153.4C245.613 153.893 244.885 154.552 244.31 155.335C243.735 156.118 243.325 157.01 243.105 157.956C243.105 157.956 249.857 157.235 250.265 159.772C250.673 162.308 247.498 159.33 244.71 159.166C241.922 159.003 239.378 159.411 239.562 161.098C239.624 162.59 239.535 164.084 239.297 165.558C240.823 164.291 242.753 163.611 244.737 163.641C247.804 163.824 247.688 165.776 244.9 165.613C242.112 165.45 239.718 168.102 239.718 168.102C239.718 168.102 242.262 172.447 245.492 174.596C248.722 176.744 249.884 175.956 250.252 174.317C250.619 172.678 249.762 168.414 251.714 168.53C253.665 168.646 248.484 175.888 250.972 176.316C253.461 176.744 255.467 176.024 256.12 174.385L256.8 172.746C256.8 172.746 255.93 168.496 256.31 166.844C256.691 165.191 257.147 166.891 257.589 168.884C258.031 170.876 258.31 175.636 259.16 175.405C260.01 175.174 262.736 171.706 263.376 170.339C264.015 168.972 259.785 164.817 259.833 163.981C259.88 163.144 263.144 164.736 263.654 165.606C264.025 166.267 264.359 166.948 264.654 167.646C264.654 167.646 266.694 166.368 266.64 162.451C266.585 158.534 263.675 159.731 263.675 159.731Z" fill="#CBCBCB"/>
<path opacity="0.3" d="M263.675 159.731C263.675 159.731 260.472 161.771 258.656 159.432C256.841 157.092 259.887 152.795 257.201 150.959C254.515 149.123 249.871 151.924 249.871 151.924C249.871 151.924 253.441 152.972 253.325 154.923C253.21 156.875 251.489 157.609 251.285 156.759C251.081 155.909 249.347 151.612 246.45 153.4C245.613 153.893 244.885 154.552 244.31 155.335C243.735 156.118 243.325 157.01 243.105 157.956C243.105 157.956 249.857 157.235 250.265 159.772C250.673 162.308 247.498 159.33 244.71 159.166C241.922 159.003 239.378 159.411 239.562 161.098C239.624 162.59 239.535 164.084 239.297 165.558C240.823 164.291 242.753 163.611 244.737 163.641C247.804 163.824 247.688 165.776 244.9 165.613C242.112 165.45 239.718 168.102 239.718 168.102C239.718 168.102 242.262 172.447 245.492 174.596C248.722 176.744 249.884 175.956 250.252 174.317C250.619 172.678 249.762 168.414 251.714 168.53C253.665 168.646 248.484 175.888 250.972 176.316C253.461 176.744 255.467 176.024 256.12 174.385L256.8 172.746C256.8 172.746 255.93 168.496 256.31 166.844C256.691 165.191 257.147 166.891 257.589 168.884C258.031 170.876 258.31 175.636 259.16 175.405C260.01 175.174 262.736 171.706 263.376 170.339C264.015 168.972 259.785 164.817 259.833 163.981C259.88 163.144 263.144 164.736 263.654 165.606C264.025 166.267 264.359 166.948 264.654 167.646C264.654 167.646 266.694 166.368 266.64 162.451C266.585 158.534 263.675 159.731 263.675 159.731Z" fill="#263238"/>
<path d="M247.464 168.918C249.551 166.34 252.618 162.852 255.195 161.186" stroke="#263238" stroke-linecap="round" stroke-linejoin="round"/>
<path d="M245.05 172.052C245.05 172.052 245.58 171.311 246.451 170.196" stroke="#263238" stroke-linecap="round" stroke-linejoin="round"/>
<path d="M256.555 161.825C256.555 161.825 259.656 166.205 260.227 170.713" stroke="#263238" stroke-linecap="round" stroke-linejoin="round"/>
<path d="M253.033 164.416C253.033 164.416 253.904 163.906 253.577 169.482" stroke="#263238" stroke-linecap="round" stroke-linejoin="round"/>
<path d="M255.311 159.207C255.311 159.207 257.086 157.636 256.147 154.502" stroke="#263238" stroke-linecap="round" stroke-linejoin="round"/>
<path d="M252.918 161.893L251.653 159.581" stroke="#263238" stroke-linecap="round" stroke-linejoin="round"/>
<path d="M250.259 164.253C250.259 164.253 246.247 161.22 243.737 161.07" stroke="#263238" stroke-linecap="round" stroke-linejoin="round"/>
<path d="M275.072 151.469C275.072 151.469 274.942 156.066 271.352 156.29C267.762 156.514 265.545 150.53 261.873 151.972C258.201 153.414 257.847 159.969 257.847 159.969C257.847 159.969 261.329 157.106 263.206 158.548C265.082 159.989 264.647 162.22 263.634 161.866C262.621 161.512 257.167 160.295 256.977 164.416C256.901 165.591 257.063 166.769 257.455 167.879C257.846 168.989 258.459 170.009 259.255 170.876C259.255 170.876 263.138 163.62 265.966 164.94C268.795 166.259 263.634 167.415 261.567 170.094C259.5 172.773 258.167 175.595 259.996 176.568C261.532 177.519 262.968 178.624 264.28 179.866C264.28 179.866 263.79 176.071 266.062 173.127C268.333 170.182 270.203 171.624 268.142 174.303C266.082 176.982 267.102 181.192 267.102 181.192C267.102 181.192 273.181 181.606 277.533 179.832C281.885 178.057 281.912 176.37 280.512 174.868C279.111 173.365 274.269 171.338 275.711 169.428C277.152 167.517 280.879 177.676 283.007 175.473C285.136 173.27 285.775 170.774 284.578 168.999L283.381 167.231C283.381 167.231 278.54 165.191 277.139 163.695C275.738 162.199 277.758 162.893 280.049 163.804C282.341 164.715 287.298 167.687 287.652 166.674C288.005 165.66 286.38 160.554 285.455 159.003C284.53 157.453 277.472 158.833 276.67 158.214C275.867 157.596 279.682 155.413 280.899 155.494C281.812 155.57 282.72 155.695 283.619 155.868C283.619 155.868 283.728 152.958 279.77 150.34C275.813 147.722 275.072 151.469 275.072 151.469Z" fill="#CBCBCB"/>
<path opacity="0.2" d="M275.072 151.469C275.072 151.469 274.942 156.066 271.352 156.29C267.762 156.514 265.545 150.53 261.873 151.972C258.201 153.414 257.847 159.969 257.847 159.969C257.847 159.969 261.329 157.106 263.206 158.548C265.082 159.989 264.647 162.22 263.634 161.866C262.621 161.512 257.167 160.295 256.977 164.416C256.901 165.591 257.063 166.769 257.455 167.879C257.846 168.989 258.459 170.009 259.255 170.876C259.255 170.876 263.138 163.62 265.966 164.94C268.795 166.259 263.634 167.415 261.567 170.094C259.5 172.773 258.167 175.595 259.996 176.568C261.532 177.519 262.968 178.624 264.28 179.866C264.28 179.866 263.79 176.071 266.062 173.127C268.333 170.182 270.203 171.624 268.142 174.303C266.082 176.982 267.102 181.192 267.102 181.192C267.102 181.192 273.181 181.606 277.533 179.832C281.885 178.057 281.912 176.37 280.512 174.868C279.111 173.365 274.269 171.338 275.711 169.428C277.152 167.517 280.879 177.676 283.007 175.473C285.136 173.27 285.775 170.774 284.578 168.999L283.381 167.231C283.381 167.231 278.54 165.191 277.139 163.695C275.738 162.199 277.758 162.893 280.049 163.804C282.341 164.715 287.298 167.687 287.652 166.674C288.005 165.66 286.38 160.554 285.455 159.003C284.53 157.453 277.472 158.833 276.67 158.214C275.867 157.596 279.682 155.413 280.899 155.494C281.812 155.57 282.72 155.695 283.619 155.868C283.619 155.868 283.728 152.958 279.77 150.34C275.813 147.722 275.072 151.469 275.072 151.469Z" fill="#263238"/>
<path d="M273.222 173.957C272.073 170.087 270.658 164.647 270.754 160.948" stroke="#263238" stroke-linecap="round" stroke-linejoin="round"/>
<path d="M274.712 178.519C274.712 178.519 274.331 177.472 273.807 175.847" stroke="#263238" stroke-linecap="round" stroke-linejoin="round"/>
<path d="M272.318 160.023C272.318 160.023 278.812 159.901 283.715 162.403" stroke="#263238" stroke-linecap="round" stroke-linejoin="round"/>
<path d="M272.522 165.327C272.522 165.327 272.604 164.11 277.962 168.238" stroke="#263238" stroke-linecap="round" stroke-linejoin="round"/>
<path d="M268.877 159.5C268.877 159.5 268.51 156.657 264.736 155.46" stroke="#263238" stroke-linecap="round" stroke-linejoin="round"/>
<path d="M269.904 163.709L266.728 163.396" stroke="#263238" stroke-linecap="round" stroke-linejoin="round"/>
<path d="M270.455 167.979C270.455 167.979 264.682 169.931 262.825 172.345" stroke="#263238" stroke-linecap="round" stroke-linejoin="round"/>
<path d="M236.55 182.069C236.55 182.069 254.815 194.139 254.509 240.889" stroke="#263238" stroke-width="2" stroke-linecap="round" stroke-linejoin="round"/>
<path d="M259.072 178.88C259.072 178.88 258.487 184.17 254.312 184.089C250.136 184.007 248.192 176.894 243.785 178.213C239.379 179.533 238.379 187.053 238.379 187.053C238.379 187.053 242.677 184.075 244.703 185.925C246.73 187.774 246.016 190.297 244.88 189.794C243.744 189.291 237.563 187.366 236.958 192.106C236.761 193.455 236.841 194.83 237.191 196.147C237.542 197.464 238.157 198.697 238.998 199.769C238.998 199.769 244.166 191.766 247.301 193.561C250.436 195.356 244.377 196.193 241.738 199.089C239.1 201.986 237.312 205.114 239.311 206.406C240.996 207.65 242.55 209.062 243.948 210.622C243.948 210.622 243.738 206.202 246.634 203.013C249.531 199.824 251.564 201.653 248.926 204.57C246.288 207.487 247.076 212.417 247.076 212.417C247.076 212.417 254.06 213.471 259.248 211.839C264.437 210.207 264.62 208.263 263.145 206.399C261.669 204.536 256.277 201.735 258.12 199.708C259.962 197.682 263.301 209.718 265.967 207.372C268.632 205.026 269.598 202.217 268.388 200.055L267.177 197.893C267.177 197.893 261.785 195.098 260.309 193.228C258.834 191.358 261.098 192.364 263.655 193.629C266.212 194.894 271.658 198.79 272.155 197.661C272.651 196.533 271.264 190.494 270.346 188.597C269.428 186.7 261.152 187.645 260.282 186.856C259.412 186.067 264.029 183.912 265.423 184.136C266.461 184.309 267.489 184.536 268.503 184.816C268.503 184.816 268.898 181.471 264.58 178.071C260.262 174.671 259.072 178.88 259.072 178.88Z" fill="#CBCBCB"/>
<path opacity="0.3" d="M259.072 178.88C259.072 178.88 258.487 184.17 254.312 184.089C250.136 184.007 248.192 176.894 243.785 178.213C239.379 179.533 238.379 187.053 238.379 187.053C238.379 187.053 242.677 184.075 244.703 185.925C246.73 187.774 246.016 190.297 244.88 189.794C243.744 189.291 237.563 187.366 236.958 192.106C236.761 193.455 236.841 194.83 237.191 196.147C237.542 197.464 238.157 198.697 238.998 199.769C238.998 199.769 244.166 191.766 247.301 193.561C250.436 195.356 244.377 196.193 241.738 199.089C239.1 201.986 237.312 205.114 239.311 206.406C240.996 207.65 242.55 209.062 243.948 210.622C243.948 210.622 243.738 206.202 246.634 203.013C249.531 199.824 251.564 201.653 248.926 204.57C246.288 207.487 247.076 212.417 247.076 212.417C247.076 212.417 254.06 213.471 259.248 211.839C264.437 210.207 264.62 208.263 263.145 206.399C261.669 204.536 256.277 201.735 258.12 199.708C259.962 197.682 263.301 209.718 265.967 207.372C268.632 205.026 269.598 202.217 268.388 200.055L267.177 197.893C267.177 197.893 261.785 195.098 260.309 193.228C258.834 191.358 261.098 192.364 263.655 193.629C266.212 194.894 271.658 198.79 272.155 197.661C272.651 196.533 271.264 190.494 270.346 188.597C269.428 186.7 261.152 187.645 260.282 186.856C259.412 186.067 264.029 183.912 265.423 184.136C266.461 184.309 267.489 184.536 268.503 184.816C268.503 184.816 268.898 181.471 264.58 178.071C260.262 174.671 259.072 178.88 259.072 178.88Z" fill="#263238"/>
<path d="M254.815 204.652C253.836 200.109 252.741 193.683 253.19 189.406" stroke="#263238" stroke-linecap="round" stroke-linejoin="round"/>
<path d="M256.107 210.058C256.107 210.058 255.767 208.813 255.311 206.889" stroke="#263238" stroke-linecap="round" stroke-linejoin="round"/>
<path d="M255.073 188.488C255.073 188.488 262.553 188.964 267.993 192.31" stroke="#263238" stroke-linecap="round" stroke-linejoin="round"/>
<path d="M254.821 194.567C254.821 194.567 255.032 193.173 260.826 198.443" stroke="#263238" stroke-linecap="round" stroke-linejoin="round"/>
<path d="M251.163 187.563C251.163 187.563 251.006 184.245 246.77 182.504" stroke="#263238" stroke-linecap="round" stroke-linejoin="round"/>
<path d="M251.952 192.514L248.321 191.854" stroke="#263238" stroke-linecap="round" stroke-linejoin="round"/>
<path d="M252.19 197.491C252.19 197.491 245.342 199.205 242.969 201.809" stroke="#263238" stroke-linecap="round" stroke-linejoin="round"/>
<path d="M243.669 218.904C243.669 218.904 255.433 227.88 256.671 241.195L254.196 196.607" stroke="#263238" stroke-width="2" stroke-linecap="round" stroke-linejoin="round"/>
<path d="M272.148 212.404C256.671 209.616 256.671 241.195 256.671 241.195" stroke="#263238" stroke-width="2" stroke-linecap="round" stroke-linejoin="round"/>
<path d="M258.527 240.889C258.527 240.889 249.551 175.568 275.527 175.568" stroke="#263238" stroke-width="2" stroke-linecap="round" stroke-linejoin="round"/>
<path d="M266.252 210.527C264.138 208.147 259.643 208.147 257.004 214.226C254.366 220.305 256.739 219.251 256.739 219.251C256.739 219.251 261.758 217.66 264.933 216.606C268.109 215.552 272.332 212.907 272.597 214.491C272.862 216.076 270.482 217.66 267.572 218.19C264.661 218.721 257.004 220.836 257.793 222.447C258.582 224.059 260.438 228.792 260.438 228.792C262.696 226.873 265.079 225.108 267.572 223.508C271.012 221.393 273.127 222.182 271.278 224.562C269.428 226.942 264.138 229.58 265.198 232.756C266.259 235.932 272.597 239.889 272.597 239.889C272.597 239.889 273.392 233.286 275.242 231.172C277.092 229.057 277.092 231.437 276.561 235.136C276.296 236.712 276.119 238.301 276.031 239.896L283.429 242.541C284.639 240.699 285.963 238.934 287.394 237.258L288.754 235.898C288.754 235.898 282.94 230.879 282.674 227.738C282.409 224.596 286.639 227.738 287.958 228.268C289.277 228.798 291.392 232.498 291.392 232.498C291.392 232.498 292.718 226.418 292.983 224.304L293.248 222.189C293.248 222.189 287.693 220.074 285.578 220.074C283.463 220.074 282.409 221.658 282.409 219.55C282.409 217.442 284.524 216.11 286.904 216.375C289.057 216.735 291.179 217.265 293.248 217.959C293.248 217.959 294.833 216.64 294.302 212.676C293.772 208.711 292.453 208.711 289.284 209.765C286.115 210.819 283.994 213.206 281.614 213.206C279.234 213.206 280.56 210.296 282.144 209.507C283.728 208.718 287.693 207.127 288.488 206.862C289.284 206.596 284.259 202.897 281.614 202.367C278.968 201.836 275.548 203.727 275.8 206.331C276.296 211.846 268.367 212.927 266.252 210.527Z" fill="#CBCBCB"/>
<path d="M283.266 237.74C283.347 238.534 283.402 239.329 283.429 240.127" stroke="#263238" stroke-linecap="round" stroke-linejoin="round"/>
<path d="M277.955 218.768C280.285 224.002 281.963 229.501 282.953 235.143" stroke="#263238" stroke-linecap="round" stroke-linejoin="round"/>
<path d="M277.003 216.647C275.697 213.832 274.711 212.111 274.711 212.111C276.154 211.432 277.353 210.326 278.145 208.942C278.764 207.69 279.67 206.601 280.791 205.767" stroke="#263238" stroke-linecap="round" stroke-linejoin="round"/>
<path d="M265.463 221.087C265.463 221.087 274.983 217.123 274.983 217.912" stroke="#263238" stroke-linecap="round" stroke-linejoin="round"/>
<path d="M280.233 216.076C280.233 216.076 284.463 213.961 288.162 213.961" stroke="#263238" stroke-linecap="round" stroke-linejoin="round"/>
<path d="M278.676 222.447C276.841 223.955 275.158 225.638 273.65 227.472C272.108 229.291 270.86 231.34 269.951 233.545" stroke="#263238" stroke-linecap="round" stroke-linejoin="round"/>
<path d="M281.593 223.481C281.593 223.481 287.149 221.89 290.052 224.535" stroke="#263238" stroke-linecap="round" stroke-linejoin="round"/>
<path d="M291.637 187.767C288.76 186.067 285.578 186.027 284.014 184.231C282.45 182.436 285.517 181.511 287.155 182.191C288.794 182.871 292.595 184.823 293.309 185.245C294.023 185.666 293.534 179.458 292.201 177.085C290.868 174.711 287.217 173.379 285.401 175.296C281.559 179.329 275.561 174.038 275.969 170.883C276.377 167.728 273.433 164.335 267.13 166.32C260.826 168.306 263.165 169.414 263.165 169.414C263.165 169.414 267.653 172.168 270.536 173.868C273.419 175.568 278.179 177.03 277.153 178.268C276.126 179.505 273.372 178.751 271.067 176.908C268.761 175.065 262.145 170.659 261.465 172.297C260.785 173.936 258.405 178.451 258.405 178.451C261.334 178.9 264.231 179.543 267.075 180.376C270.924 181.586 271.713 183.701 268.707 183.864C265.701 184.027 260.234 181.77 258.507 184.646C256.78 187.523 257.97 194.907 257.97 194.907C257.97 194.907 263.478 191.181 266.286 191.188C269.095 191.195 267.299 192.759 264.158 194.785C262.795 195.617 261.481 196.525 260.221 197.505L263.077 204.829C265.261 204.533 267.462 204.374 269.666 204.353L271.529 204.489C271.529 204.489 271.529 196.805 273.732 194.527C275.935 192.249 276.33 197.519 276.799 198.865C277.268 200.211 275.861 204.23 275.861 204.23C275.861 204.23 281.301 201.245 283.082 200.055L284.857 198.872C284.857 198.872 282.817 193.289 281.423 191.698C280.029 190.107 278.152 190.338 279.743 188.978C281.335 187.618 283.728 188.298 285.088 190.297C286.228 192.157 287.217 194.106 288.046 196.125C288.046 196.125 290.086 196.458 292.731 193.459C295.377 190.46 294.513 189.467 291.637 187.767ZM266.633 196.227C264.518 195.166 269.537 193.051 269.537 193.051C271.393 192.793 268.741 197.287 266.633 196.227ZM270.189 186.36C269.292 185.911 271.991 185 271.991 185C275.895 185.727 271.087 186.809 270.183 186.36H270.189Z" fill="#CBCBCB"/>
<path d="M266.565 201.612C266.021 202.19 265.45 202.754 264.872 203.298" stroke="#263238" stroke-linecap="round" stroke-linejoin="round"/>
<path d="M277.411 185.163C274.982 190.348 271.924 195.215 268.306 199.654" stroke="#263238" stroke-linecap="round" stroke-linejoin="round"/>
<path d="M278.39 183.055C279.662 180.219 280.308 178.349 280.308 178.349C281.769 178.991 283.392 179.171 284.959 178.866C286.308 178.509 287.723 178.479 289.087 178.778" stroke="#263238" stroke-linecap="round" stroke-linejoin="round"/>
<path d="M276.092 182.361C276.69 181.838 267.462 177.255 267.462 177.255" stroke="#263238" stroke-linecap="round" stroke-linejoin="round"/>
<path d="M280.954 185.136C280.954 185.136 285.326 186.944 287.754 189.739" stroke="#263238" stroke-linecap="round" stroke-linejoin="round"/>
<path d="M275.126 188.1C272.786 187.703 270.413 187.535 268.041 187.597C265.654 187.627 263.286 188.029 261.023 188.787" stroke="#263238" stroke-linecap="round" stroke-linejoin="round"/>
<path d="M276.234 190.99C276.234 190.99 281.069 194.139 280.994 198.069" stroke="#263238" stroke-linecap="round" stroke-linejoin="round"/>
<path d="M250.564 224.385C248.252 223.025 245.689 222.991 244.444 221.543C243.2 220.095 245.648 219.367 246.967 219.911C248.286 220.455 251.346 222.033 251.924 222.373C252.502 222.713 252.101 217.708 251.027 215.824C249.952 213.941 247.015 212.846 245.553 214.383C242.459 217.633 237.631 213.369 237.964 210.833C238.297 208.297 235.924 205.563 230.831 207.161C225.738 208.759 227.642 209.65 227.642 209.65C227.642 209.65 231.252 211.867 233.571 213.233C235.89 214.6 239.725 215.783 238.896 216.776C238.066 217.769 235.856 217.171 234 215.681C232.143 214.192 226.819 210.649 226.275 211.969C225.731 213.288 223.813 216.919 223.813 216.919C226.17 217.283 228.501 217.8 230.79 218.469C233.884 219.442 234.516 221.142 232.096 221.271C229.675 221.4 225.296 219.585 223.936 221.903C222.576 224.222 223.5 230.165 223.5 230.165C223.5 230.165 227.934 227.16 230.192 227.167C232.449 227.173 231.008 228.431 228.485 230.063C227.388 230.733 226.33 231.464 225.316 232.253L227.608 238.142C229.366 237.906 231.138 237.781 232.912 237.768L234.414 237.87C234.414 237.87 234.414 231.689 236.189 229.853C237.964 228.017 238.277 232.26 238.651 233.348C239.025 234.436 237.896 237.666 237.896 237.666C237.896 237.666 242.289 235.259 243.71 234.307L245.138 233.348C245.138 233.348 243.492 228.86 242.377 227.575C241.262 226.289 239.739 226.487 241.017 225.371C242.296 224.256 244.22 224.841 245.315 226.425C246.233 227.924 247.031 229.493 247.702 231.117C247.702 231.117 249.34 231.383 251.469 228.975C253.597 226.568 252.883 225.759 250.564 224.385ZM230.436 231.185C228.736 230.335 232.776 228.635 232.776 228.635C234.265 228.431 232.136 232.049 230.436 231.192V231.185ZM233.313 223.257C232.585 222.889 234.761 222.169 234.761 222.169C237.896 222.774 234.027 223.617 233.313 223.257Z" fill="#CBCBCB"/>
<path d="M230.396 235.53C229.954 235.993 229.498 236.448 229.036 236.89" stroke="#263238" stroke-linecap="round" stroke-linejoin="round"/>
<path d="M239.12 222.291C237.167 226.464 234.707 230.381 231.796 233.953" stroke="#263238" stroke-linecap="round" stroke-linejoin="round"/>
<path d="M239.909 220.591C240.929 218.313 241.453 216.81 241.453 216.81C242.628 217.325 243.933 217.469 245.193 217.225C246.278 216.938 247.415 216.914 248.511 217.157" stroke="#263238" stroke-linecap="round" stroke-linejoin="round"/>
<path d="M231.11 215.926C231.11 215.926 238.542 219.618 238.059 220.006" stroke="#263238" stroke-linecap="round" stroke-linejoin="round"/>
<path d="M241.969 222.27C241.969 222.27 245.485 223.726 247.409 225.976" stroke="#263238" stroke-linecap="round" stroke-linejoin="round"/>
<path d="M237.277 224.657C235.396 224.339 233.487 224.204 231.579 224.256C229.659 224.274 227.754 224.598 225.935 225.215" stroke="#263238" stroke-linecap="round" stroke-linejoin="round"/>
<path d="M238.175 226.983C238.175 226.983 242.064 229.519 241.99 232.674" stroke="#263238" stroke-linecap="round" stroke-linejoin="round"/>
<path d="M241.126 180.743C241.126 180.743 238.216 182.858 236.366 180.743C234.517 178.628 237.162 174.398 234.517 172.814C231.871 171.23 227.649 174.133 227.649 174.133C227.649 174.133 231.083 174.929 231.083 176.778C231.083 178.628 229.498 179.424 229.233 178.628C228.968 177.832 227.118 173.868 224.473 175.724C223.711 176.238 223.061 176.9 222.562 177.671C222.063 178.443 221.725 179.307 221.569 180.212C221.569 180.212 227.907 179.158 228.437 181.538C228.968 183.918 225.799 181.273 223.154 181.273C220.509 181.273 218.129 181.804 218.394 183.388C218.538 184.794 218.538 186.211 218.394 187.618C219.763 186.336 221.545 185.586 223.419 185.503C226.323 185.503 226.323 187.352 223.684 187.352C221.046 187.352 218.924 189.998 218.924 189.998C218.924 189.998 221.569 193.962 224.738 195.812C227.907 197.661 228.968 196.866 229.233 195.281C229.498 193.697 228.437 189.732 230.287 189.732C232.137 189.732 227.649 196.866 230.022 197.131C232.395 197.396 234.251 196.6 234.782 195.016L235.312 193.432C235.312 193.432 234.251 189.467 234.517 187.883C234.782 186.298 235.312 187.883 235.836 189.732C236.359 191.582 236.897 196.07 237.692 195.812C238.488 195.553 240.861 192.106 241.391 190.786C241.922 189.467 237.692 185.768 237.692 184.972C237.692 184.177 240.861 185.503 241.391 186.292C241.922 187.08 242.445 188.141 242.445 188.141C242.445 188.141 244.295 186.822 244.03 183.123C243.765 179.424 241.126 180.743 241.126 180.743Z" fill="#CBCBCB"/>
<path d="M226.316 190.331C228.145 187.781 230.858 184.313 233.197 182.592" stroke="#263238" stroke-linecap="round" stroke-linejoin="round"/>
<path d="M224.208 193.432C224.208 193.432 224.677 192.697 225.432 191.596" stroke="#263238" stroke-linecap="round" stroke-linejoin="round"/>
<path d="M234.517 183.123C234.517 183.123 237.692 187.087 238.481 191.317" stroke="#263238" stroke-linecap="round" stroke-linejoin="round"/>
<path d="M231.348 185.768C231.348 185.768 232.136 185.238 232.136 190.528" stroke="#263238" stroke-linecap="round" stroke-linejoin="round"/>
<path d="M233.197 180.743C233.197 180.743 234.782 179.158 233.728 176.248" stroke="#263238" stroke-linecap="round" stroke-linejoin="round"/>
<path d="M231.082 183.388L229.763 181.273" stroke="#263238" stroke-linecap="round" stroke-linejoin="round"/>
<path d="M228.703 185.768C228.703 185.768 224.738 183.123 222.358 183.123" stroke="#263238" stroke-linecap="round" stroke-linejoin="round"/>
<path d="M267.816 239.957H247.382V269.367H267.816V239.957Z" fill="#263238" stroke="#263238" stroke-width="2" stroke-linecap="round" stroke-linejoin="round"/>
</svg>
